<?xml version="1.0" encoding="utf-8"?>
<!-- Generator: Adobe Illustrator 23.0.1, SVG Export Plug-In . SVG Version: 6.00 Build 0)  -->
<svg version="1.1" id="Layer_1" xmlns="http://www.w3.org/2000/svg" xmlns:xlink="http://www.w3.org/1999/xlink" x="0px" y="0px"
	 viewBox="0 0 510.2 340.2" style="enable-background:new 0 0 510.2 340.2;" xml:space="preserve">
<style type="text/css">
	.st0{fill:#FFFFFF;}
</style>
<g>
	<path class="st0" d="M32,119.6c0-5.6,1-10.8,3.1-15.7c2.1-4.9,5.1-9.1,8.6-12.8c3.7-3.7,7.9-6.5,12.8-8.6
		c4.9-2.1,10.1-3.1,15.7-3.1c5.8,0,10.7,0.9,15,2.6c4.2,1.7,8.4,4.4,12.1,7.7c0.7,0.9,0.7,1.6,0,2.3l-7,7.2
		c-0.7,0.7-1.4,0.7-1.9-0.2c-2.4-2.1-5.2-3.8-8.4-4.9c-3.1-1.2-6.3-1.7-9.6-1.7c-3.7,0-7.2,0.7-10.3,2.1c-3.1,1.4-5.9,3.3-8.2,5.8
		c-2.3,2.4-4,5.2-5.4,8.6c-1.2,3.3-1.9,6.8-1.9,10.3c0,3.7,0.7,7.2,1.9,10.3c1.2,3.1,3.1,6.1,5.4,8.4c2.3,2.4,5.1,4.4,8.2,5.8
		c3.1,1.4,6.6,2.1,10.3,2.1c3.5,0,6.6-0.5,9.6-1.7c3-1.2,5.6-2.8,8-4.7c0.3-0.3,0.7-0.5,1-0.5s0.7,0.2,0.9,0.5V139l7.2,7.2
		c0.3,0.3,0.3,0.7,0.3,1.2c0,0.3-0.3,0.7-0.5,1h0.5c-3.8,3.7-8,6.5-12.6,8.2c-4.7,1.7-9.4,2.6-14.5,2.6c-5.6,0-10.8-1-15.7-3.1
		c-4.9-2.1-9.1-4.9-12.8-8.6c-3.7-3.7-6.5-7.9-8.6-12.8S32,125.2,32,119.6z"/>
	<path class="st0" d="M177.4,95.3c0.3-0.3,0.9-0.7,1.4-1.2c0.5-0.3,1.2-0.3,1.9,0.3c1,0.9,2.1,2.3,3.1,4.2c1,1.9,1.9,4,2.8,6.3
		c0.9,2.3,1.6,4.9,2.1,7.3c0.5,2.6,0.7,5.1,0.7,7.5c0,5.6-1,10.8-3.1,15.7c-2.1,4.9-4.9,9.1-8.6,12.8c-3.7,3.7-7.9,6.5-12.8,8.6
		s-10.1,3.1-15.7,3.1s-10.8-1-15.7-3.1c-4.9-2.1-9.1-4.9-12.8-8.6c-3.7-3.7-6.5-7.9-8.6-12.8c-2.1-4.9-3.1-10.1-3.1-15.7
		s1-10.8,3.1-15.7c2.1-4.9,4.9-9.1,8.6-12.8c3.7-3.7,7.9-6.5,12.8-8.6c4.9-2.1,10.1-3.1,15.7-3.1c6.5,0,12.4,1.4,17.8,4.2
		c1,0.5,1.4,1.6,0.9,2.8c-0.2,0.2-0.3,0.7-0.9,1.6c-0.3,0.9-0.9,1.7-1.4,2.6c-0.5,0.9-1,1.7-1.6,2.6c-0.5,0.9-0.9,1.4-0.9,1.6
		c-0.3,0.5-0.7,0.9-1.4,0.9c-0.7,0-1.4-0.2-1.9-0.3c-3.3-1.6-6.8-2.3-10.7-2.3c-3.7,0-7,0.7-10.3,2.1c-3.1,1.4-5.9,3.3-8.4,5.8
		c-2.4,2.4-4.4,5.2-5.8,8.6c-1.4,3.3-2.1,6.6-2.1,10.3s0.7,7,2.1,10.3c1.4,3.1,3.3,5.9,5.8,8.4c2.4,2.4,5.2,4.4,8.4,5.8
		c3.1,1.4,6.6,2.1,10.3,2.1c3.7,0,7.2-0.7,10.3-2.1c3.3-1.4,6.1-3.3,8.4-5.8c2.4-2.4,4.2-5.2,5.8-8.4c1.4-3.1,2.1-6.6,2.1-10.3
		c0-1.4-0.2-2.8-0.5-4.4c-0.3-1.6-0.7-3-1-4.4c-0.5-1.4-1-2.8-1.6-3.8c-0.5-1.2-1.2-2.1-1.7-2.8c-0.3-0.3-0.5-0.7-0.7-1.2
		c0-0.3,0-0.7,0.2-1s0.3-0.5,0.5-0.9c1-1,2.1-1.9,3-2.6c0.7-0.7,1.4-1.4,2.1-1.9C176.7,95.8,177.2,95.5,177.4,95.3z"/>
	<path class="st0" d="M282.2,158.6h-10.3c-0.3,0-0.7-0.2-1-0.5c-0.3-0.3-0.5-0.5-0.5-0.9l-6.6-42.7c0-0.3-0.2-0.5-0.5-0.5
		s-0.5,0-0.7,0.3l-20.3,44.4c-0.3,0.5-0.7,0.9-1.4,0.9h-2.1c-0.5,0-1-0.3-1.4-0.9c0,0-0.2-0.2-0.2-0.3c0-0.2-0.3-0.7-0.7-1.6
		c-0.3-0.9-0.9-2.1-1.7-3.8c-0.7-1.7-1.9-4.2-3.3-7.5c-1.6-3.3-3.3-7.3-5.6-12.4c-2.3-5.1-5.1-11.2-8.4-18.7
		c-0.2-0.3-0.3-0.3-0.7-0.3s-0.5,0.3-0.5,0.5l-7,42.7c0,0.3-0.2,0.5-0.5,0.9c-0.3,0.3-0.5,0.3-0.9,0.3h-10.1c-0.3,0-0.7-0.2-1-0.7
		s-0.5-0.9-0.3-1.4l13.1-76.1c0.2-0.9,0.7-1.2,1.4-1.2h3.1c0.7,0,1.2,0.3,1.4,0.7l23.6,53.4c0.3,0.7,0.7,0.7,1.2,0
		c4-8.9,7.3-16.3,10-22.4c2.8-6.1,5.1-11.2,6.8-15c1.7-4,3.1-7,4-9.1c0.9-2.1,1.7-3.7,2.1-4.7c0.5-1,0.7-1.6,0.9-1.7
		s0.2-0.2,0.2-0.3c0.2-0.5,0.7-0.7,1.4-0.7h3.1c0.9,0,1.2,0.3,1.4,1.2c1.6,9.4,3.1,17.8,4.4,25.2c1.2,7.3,2.3,13.6,3.1,18.9
		c0.9,5.4,1.6,9.8,2.3,13.5c0.7,3.7,1.2,6.6,1.6,9.1l1.7,9.6C284,158.1,283.5,158.6,282.2,158.6z"/>
	<path class="st0" d="M296.4,82c0-0.3,0.2-0.7,0.5-1c0.3-0.3,0.7-0.5,1-0.5h10.3c0.3,0,0.7,0.2,1,0.5c0.3,0.3,0.5,0.7,0.5,1v75.1
		c0,0.3-0.2,0.7-0.5,1c-0.3,0.3-0.7,0.5-1,0.5H298c-0.3,0-0.7-0.2-1-0.5c-0.3-0.3-0.5-0.7-0.5-1V82z"/>
	<path class="st0" d="M395.6,80.9c0.3,0.3,0.5,0.7,0.5,1v76.3c0,0.3-0.2,0.7-0.5,1c-0.3,0.3-0.7,0.5-1,0.5h-1.7
		c-1.2,0-2.3-0.5-3.1-1.4L345,109.3c0-0.2-0.3-0.2-0.7-0.2c-0.3,0.2-0.5,0.3-0.5,0.7l-0.2,47.4c0,0.3-0.2,0.7-0.5,1
		c-0.3,0.3-0.7,0.5-1,0.5h-10.3c-0.3,0-0.7-0.2-1-0.5c-0.3-0.3-0.5-0.7-0.5-1V80.8c0-0.3,0.2-0.7,0.5-1c0.3-0.3,0.7-0.5,1-0.5h2.1
		c1,0,2.1,0.5,3,1.4l44.4,48.5c0.2,0.3,0.3,0.3,0.7,0.2c0.2,0,0.3-0.3,0.3-0.5l0.2-46.7c0-0.3,0.2-0.7,0.5-1c0.3-0.3,0.7-0.5,1-0.5
		h10.5C394.9,80.4,395.3,80.6,395.6,80.9z"/>
	<path class="st0" d="M477.7,121.2c0.3,0.5,0.5,1,0.5,1.6v28c0,0.3-0.2,0.7-0.3,1c-0.2,0.3-0.4,0.7-0.5,0.7h-0.2
		c-0.2,0-0.9,0.5-2.4,1.2c-1.4,0.7-3.3,1.6-5.9,2.4c-2.4,0.9-5.2,1.7-8.6,2.4c-3.3,0.7-6.8,1-10.7,1c-5.6,0-10.8-1-15.6-3.1
		c-4.9-2.1-9.1-4.9-12.8-8.6c-3.7-3.5-6.5-7.9-8.6-12.6c-2.1-4.7-3.1-10.1-3.1-15.7c0-5.6,1-10.8,3.1-15.7c2.1-4.9,4.9-9.1,8.6-12.8
		c3.7-3.7,7.9-6.5,12.8-8.6c4.9-2.1,10-3.1,15.6-3.1c5.1,0,10,0.9,14.5,2.6c4.5,1.7,8.7,4.4,12.6,7.5c0.4,0.3,0.7,0.7,0.7,1.2
		c0.2,0.5,0,1-0.5,1.4l-0.9,0.9c-0.5,0.5-1.2,1.2-2.1,2.1c-1,1-2.3,2.3-4,4.2c-0.7,0.7-1.4,0.7-2.1,0c-2.4-2.1-5.2-3.8-8.2-4.9
		c-3-1-6.1-1.7-9.3-1.7c-3.5,0-7,0.7-10.1,2.1s-5.9,3.3-8.2,5.8c-2.3,2.4-4.2,5.2-5.6,8.6c-1.4,3.3-1.9,6.6-1.9,10.3
		c0,3.5,0.7,7,1.9,10.1c1.4,3.3,3.1,6.1,5.6,8.4c2.3,2.4,5.1,4.2,8.2,5.8c3.1,1.6,6.6,2.1,10.1,2.1c3.1,0,5.9-0.3,8.4-1
		c2.3-0.7,4.2-1.2,5.4-1.7c0.2,0,0.3-0.3,0.3-0.5v-9.3c0-0.5-0.2-0.7-0.5-0.7h-11.5c-0.9,0-1.4-0.2-1.9-0.7c-0.4-0.5-0.7-1-0.7-1.4
		v-7.7c0-0.5,0.2-1,0.7-1.6c0.3-0.5,0.9-0.7,1.6-0.7h23.8C476.8,120.5,477.3,120.7,477.7,121.2z"/>
	<path class="st0" d="M100.1,251.2c-0.5-0.5-0.7-0.9-0.9-1.2c-0.2-0.3,0-0.9,0.3-1.6v0.2l4-7c0.3-0.5,0.9-0.9,1.4-1
		c0.5-0.2,1,0,1.4,0.3l0.2,0.2c0.5,0.3,1.4,1,2.8,1.9c1.4,0.9,3,1.7,4.9,2.6c1.9,0.9,3.8,1.7,5.8,2.3c2.1,0.7,3.8,1,5.6,1
		c3.1,0,5.8-0.9,7.7-2.8c2.1-1.7,3.1-4,3.1-6.6c0-3-1.2-5.6-3.7-7.9c-2.4-2.3-6.1-4.4-11-6.3c-2.6-1-5.2-2.3-7.7-3.7
		c-2.4-1.4-4.7-3.1-6.6-4.9c-1.9-1.9-3.5-4-4.7-6.6c-1.2-2.4-1.7-5.4-1.7-8.6c0-2.4,0.5-4.9,1.6-7.5s2.4-4.9,4.5-7
		c2.1-2.1,4.5-3.7,7.7-4.9c3.1-1.2,6.8-1.7,11-1.7c2.8,0.2,5.4,0.5,8,1.2c2.6,0.7,4.9,1.4,6.8,2.3c2.1,0.9,3.8,1.7,5.2,2.4
		c1.4,0.7,2.4,1.4,3,1.9c0.5,0.3,0.7,0.7,0.9,1.4c0.2,0.5,0,1-0.3,1.6c-0.7,1-1.4,2.1-2.1,3.1c-0.7,1-1.6,2.3-2.1,3.3
		c-0.3,0.5-0.9,1-1.4,1.4c-0.5,0.3-1.2,0.3-1.7-0.2c-0.2-0.2-0.9-0.5-2.1-1.2c-1.2-0.7-2.6-1.4-4.2-2.3c-1.6-0.9-3.3-1.4-5.2-2.1
		c-1.9-0.7-3.7-0.9-5.2-0.9c-1.7,0-3.1,0.2-4.5,0.7c-1.2,0.5-2.4,1.2-3.3,1.9c-0.9,0.9-1.6,1.7-2.1,2.8c-0.5,1-0.7,1.9-0.7,3
		c0,2.8,1,5.2,3.3,7.2c2.3,1.9,5.6,4,10.1,6.1c2.6,1.4,5.4,2.8,8.2,4.2c2.8,1.4,5.2,3.1,7.5,5.1c2.3,1.9,4,4.2,5.6,6.6
		c1.4,2.6,2.1,5.6,2.1,9.1c0,2.8-0.5,5.6-1.7,8.4c-1.2,2.8-2.8,5.1-5.1,7.2s-4.9,3.7-8,4.9c-3.1,1.2-6.6,1.7-10.7,1.4
		c-3.5-0.2-6.8-0.7-9.8-1.4c-3-0.9-5.6-1.7-7.9-2.8c-2.3-1-4.2-1.9-5.6-3C101.5,252.4,100.4,251.7,100.1,251.2L100.1,251.2z"/>
	<path class="st0" d="M225.9,196.1c0.3-0.3,0.9-0.7,1.4-1.2c0.5-0.3,1.2-0.3,1.9,0.3c1,0.9,2.1,2.3,3.1,4.2c1,1.9,1.9,4,2.8,6.3
		c0.9,2.3,1.6,4.9,2.1,7.3c0.5,2.6,0.7,5.1,0.7,7.5c0,5.6-1,10.8-3.1,15.7c-2.1,4.9-4.9,9.1-8.6,12.8c-3.7,3.7-7.9,6.5-12.8,8.6
		c-4.9,2.1-10.1,3.1-15.7,3.1s-10.8-1-15.7-3.1c-4.9-2.1-9.1-4.9-12.8-8.6c-3.7-3.7-6.5-7.9-8.6-12.8c-2.1-4.9-3.1-10.1-3.1-15.7
		s1-10.8,3.1-15.7c2.1-4.9,4.9-9.1,8.6-12.8c3.7-3.7,7.9-6.5,12.8-8.6c4.9-2.1,10.1-3.1,15.7-3.1c6.5,0,12.4,1.4,17.8,4.2
		c1,0.5,1.4,1.6,0.9,2.8c-0.2,0.2-0.3,0.7-0.9,1.6c-0.3,0.9-0.9,1.7-1.4,2.6c-0.5,0.9-1,1.7-1.6,2.6c-0.5,0.9-0.9,1.4-0.9,1.6
		c-0.3,0.5-0.7,0.9-1.4,0.9c-0.7,0-1.4-0.2-1.9-0.3c-3.3-1.6-6.8-2.3-10.7-2.3c-3.7,0-7,0.7-10.3,2.1c-3.1,1.4-5.9,3.3-8.4,5.8
		c-2.4,2.4-4.4,5.2-5.8,8.6c-1.4,3.3-2.1,6.6-2.1,10.3c0,3.7,0.7,7,2.1,10.3c1.4,3.1,3.3,5.9,5.8,8.4c2.4,2.4,5.2,4.4,8.4,5.8
		c3.1,1.4,6.6,2.1,10.3,2.1s7.2-0.7,10.3-2.1c3.3-1.4,6.1-3.3,8.4-5.8c2.4-2.4,4.2-5.2,5.8-8.4c1.4-3.1,2.1-6.6,2.1-10.3
		c0-1.4-0.2-2.8-0.5-4.4s-0.7-3-1-4.4c-0.3-1.4-1-2.8-1.6-3.8c-0.5-1.2-1.2-2.1-1.7-2.8c-0.3-0.3-0.5-0.7-0.7-1.2c0-0.3,0-0.7,0.2-1
		c0.2-0.3,0.3-0.5,0.5-0.9c1-1,2.1-1.9,3-2.6c0.7-0.7,1.4-1.4,2.1-1.9C225.4,196.6,225.7,196.3,225.9,196.1z"/>
	<path class="st0" d="M314.8,196.1c0.3-0.3,0.9-0.7,1.4-1.2c0.5-0.3,1.2-0.3,1.9,0.3c1,0.9,2.1,2.3,3.1,4.2c1,1.9,1.9,4,2.8,6.3
		c0.9,2.3,1.6,4.9,2.1,7.3c0.5,2.6,0.7,5.1,0.7,7.5c0,5.6-1,10.8-3.1,15.7c-2.1,4.9-4.9,9.1-8.6,12.8c-3.7,3.7-7.9,6.5-12.8,8.6
		c-4.9,2.1-10.1,3.1-15.7,3.1s-10.8-1-15.7-3.1c-4.9-2.1-9.1-4.9-12.8-8.6c-3.7-3.7-6.5-7.9-8.6-12.8c-2.1-4.9-3.1-10.1-3.1-15.7
		s1-10.8,3.1-15.7s4.9-9.1,8.6-12.8c3.7-3.7,7.9-6.5,12.8-8.6c4.9-2.1,10.1-3.1,15.7-3.1c6.5,0,12.4,1.4,17.8,4.2
		c1,0.5,1.4,1.6,0.9,2.8c-0.2,0.2-0.3,0.7-0.9,1.6c-0.3,0.9-0.9,1.7-1.4,2.6c-0.5,0.9-1,1.7-1.6,2.6c-0.5,0.9-0.9,1.4-0.9,1.6
		c-0.3,0.5-0.7,0.9-1.4,0.9c-0.7,0-1.4-0.2-1.9-0.3c-3.3-1.6-6.8-2.3-10.7-2.3c-3.7,0-7,0.7-10.3,2.1c-3.1,1.4-5.9,3.3-8.4,5.8
		c-2.4,2.4-4.4,5.2-5.8,8.6s-2.1,6.6-2.1,10.3c0,3.7,0.7,7,2.1,10.3c1.4,3.1,3.3,5.9,5.8,8.4c2.4,2.4,5.2,4.4,8.4,5.8
		c3.1,1.4,6.6,2.1,10.3,2.1c3.7,0,7.2-0.7,10.3-2.1c3.3-1.4,6.1-3.3,8.4-5.8c2.4-2.4,4.2-5.2,5.8-8.4c1.4-3.1,2.1-6.6,2.1-10.3
		c0-1.4-0.2-2.8-0.5-4.4c-0.3-1.6-0.7-3-1-4.4c-0.3-1.4-1-2.8-1.6-3.8c-0.5-1.2-1.2-2.1-1.7-2.8c-0.3-0.3-0.5-0.7-0.7-1.2
		c0-0.3,0-0.7,0.2-1c0.2-0.3,0.3-0.5,0.5-0.9c1-1,2.1-1.9,3-2.6c0.7-0.7,1.4-1.4,2.1-1.9C314.1,196.6,314.6,196.3,314.8,196.1z"/>
	<path class="st0" d="M406.5,181.7c0.3,0.3,0.5,0.7,0.5,1v76.3c0,0.3-0.2,0.7-0.5,1c-0.3,0.3-0.7,0.5-1,0.5h-1.7
		c-1.2,0-2.3-0.5-3.1-1.4l-44.6-49.2c0-0.2-0.3-0.2-0.7-0.2c-0.3,0.2-0.5,0.3-0.5,0.7l-0.2,47.4c0,0.3-0.2,0.7-0.5,1
		c-0.3,0.3-0.7,0.5-1,0.5h-10.1c-0.3,0-0.7-0.2-1-0.5c-0.3-0.3-0.5-0.7-0.5-1v-76.5c0-0.3,0.2-0.7,0.5-1c0.3-0.3,0.7-0.5,1-0.5h2.1
		c1,0,2.1,0.5,3,1.4l44.6,48.3c0.2,0.3,0.3,0.3,0.7,0.2c0.2,0,0.3-0.3,0.3-0.5l0.2-46.7c0-0.3,0.2-0.7,0.5-1s0.7-0.5,1-0.5h10.5
		C405.8,181.2,406.1,181.4,406.5,181.7z"/>
</g>
</svg>
