<?xml version="1.0" encoding="utf-8"?>
<!-- Generator: Adobe Illustrator 23.0.1, SVG Export Plug-In . SVG Version: 6.00 Build 0)  -->
<svg version="1.1" id="Layer_1" xmlns="http://www.w3.org/2000/svg" xmlns:xlink="http://www.w3.org/1999/xlink" x="0px" y="0px"
	 viewBox="0 0 510.2 340.2" style="enable-background:new 0 0 510.2 340.2;" xml:space="preserve">
<style type="text/css">
	.st0{fill:#FFFFFF;}
</style>
<title>sale</title>
<g>
	<path class="st0" d="M24.7,159.8V92.9h45.9v11.4H38.2v15.8h27.9v11.4H38.2v28.3H24.7z"/>
	<path class="st0" d="M78.9,126.7c-0.2-5.9,0.9-11.7,3.1-17.2c1.5-3.4,3.6-6.5,6.2-9.2c2.4-2.6,5.4-4.6,8.7-6
		c4.6-1.8,9.5-2.7,14.4-2.6c9.9,0,17.7,3.1,23.7,9.2c5.9,6.1,8.9,14.6,8.9,25.5c0,10.8-2.9,19.3-8.8,25.3
		c-5.9,6.1-13.7,9.1-23.5,9.2c-10,0-17.9-3-23.7-9.1C81.9,145.7,78.9,137.4,78.9,126.7z M92.8,126.3c0,7.6,1.8,13.3,5.3,17.2
		c6.7,7.3,18.1,7.8,25.5,1.1c0.4-0.4,0.8-0.7,1.1-1.1c3.5-3.9,5.2-9.7,5.2-17.4c0-7.7-1.7-13.5-5-17.2c-3.4-3.8-8.3-5.8-13.4-5.6
		c-5.1-0.2-10.1,1.9-13.5,5.7C94.5,112.8,92.8,118.6,92.8,126.3z"/>
	<path class="st0" d="M154.5,159.8V92.9h28.4c7.2,0,12.3,0.6,15.6,1.8c3.3,1.2,6,3.5,7.8,6.5c2,3.2,3,6.8,2.9,10.5
		c0.2,4.6-1.4,9-4.4,12.4c-2.9,3.3-7.4,5.3-13.2,6.2c2.6,1.5,5.1,3.4,7.2,5.5c2.9,3.4,5.4,7,7.7,10.9l8.1,13h-16.1l-9.8-14.6
		c-2.2-3.4-4.5-6.7-7.1-9.8c-1.1-1.2-2.5-2.2-4.1-2.8c-2.2-0.6-4.5-0.9-6.8-0.8h-2.7v28H154.5z M167.9,121.2h10
		c6.5,0,10.5-0.3,12.1-0.8c1.5-0.5,2.9-1.5,3.8-2.8c1-1.5,1.4-3.2,1.4-5c0.1-2-0.6-3.9-1.8-5.4c-1.3-1.5-3.1-2.4-5.1-2.6
		c-1.1-0.2-4.4-0.2-9.9-0.2h-10.6L167.9,121.2z"/>
	<path class="st0" d="M244.4,138l13.1-1.3c0.4,3.7,2.2,7.2,4.9,9.8c2.8,2.2,6.2,3.3,9.8,3.1c4.3,0,7.6-0.9,9.8-2.8
		c2-1.5,3.2-3.9,3.3-6.5c0-1.5-0.4-2.9-1.4-4c-1.4-1.4-3-2.4-4.9-2.9c-1.6-0.6-5.2-1.5-10.8-2.9c-7.3-1.8-12.3-4-15.3-6.6
		c-4-3.3-6.2-8.3-6.2-13.5c0-3.4,1-6.7,2.9-9.6c2-3,4.9-5.4,8.3-6.8c4.2-1.7,8.7-2.4,13.2-2.3c8.4,0,14.7,1.8,19,5.5
		c4.3,3.7,6.7,9.1,6.7,14.7l-13.5,0.6c-0.2-2.8-1.5-5.5-3.6-7.4c-2.5-1.7-5.5-2.5-8.6-2.3c-3.3-0.2-6.5,0.6-9.3,2.4
		c-1.4,0.9-2.2,2.5-2.1,4.1c0,1.6,0.7,3.1,2,4.1c1.7,1.4,5.8,2.9,12.4,4.5c5.1,1,10,2.7,14.6,4.9c3,1.6,5.6,3.9,7.4,6.8
		c1.9,3.2,2.8,6.9,2.7,10.7c0,3.8-1.1,7.6-3.3,10.8c-2.2,3.4-5.3,6-9,7.5c-4.7,1.8-9.6,2.6-14.6,2.4c-8.5,0-15-2-19.5-5.9
		C247.8,151.2,245.1,145.5,244.4,138z"/>
	<path class="st0" d="M370.4,159.8h-14.6l-5.8-15.2h-26.8l-5.5,15.2h-14.3l26-66.9h14.3L370.4,159.8z M345.6,133.3l-9.2-24.8
		l-9,24.8H345.6z"/>
	<path class="st0" d="M378,159.8V93.4h13.5v55.1h33.6v11.3H378z"/>
	<path class="st0" d="M434.7,159.8V92.9h49.6v11.4h-36.1v14.8h33.6v11.3h-33.6v18.2h37.4v11.2H434.7z"/>
	<path class="st0" d="M26.1,229.6l14-1.6c0.1,2.4,1.1,4.6,2.7,6.3c1.6,1.4,3.6,2.2,5.7,2.1c3.1,0,5.9-1.6,7.6-4.1
		c2.1-2.7,3.4-8.4,4-17.1c-3.3,4.1-8.4,6.4-13.6,6.3c-5.9,0-11.5-2.5-15.3-6.9c-4.4-4.9-6.8-11.3-6.5-17.9c0-7.6,2.3-13.8,6.8-18.5
		c4.6-4.6,10.9-7.2,17.3-6.9c7.3-0.2,14.3,3.1,18.9,8.9c4.9,5.9,7.3,15.7,7.3,29.3c0,13.8-2.6,23.7-7.7,29.8c-4.9,6-12.2,9.4-20,9.2
		c-5.2,0.2-10.3-1.4-14.3-4.7C29.5,240.6,27.1,235.9,26.1,229.6z M58.8,198.1c0.2-3.9-0.9-7.7-3.3-10.9c-1.7-2.4-4.5-3.8-7.4-3.9
		c-2.6,0-5.1,1.2-6.7,3.3c-1.8,2.1-2.7,5.6-2.7,10.4c0,4.8,1,8.4,2.9,10.7c1.7,2.2,4.4,3.4,7.2,3.4c2.7,0,5.3-1.2,7-3.3
		C57.9,205.5,58.8,202.3,58.8,198.1z"/>
	<path class="st0" d="M84.7,229.6l14-1.6c0.1,2.4,1.1,4.6,2.7,6.3c1.6,1.4,3.6,2.2,5.7,2.1c3.1,0,5.9-1.6,7.6-4.1
		c2.1-2.7,3.4-8.4,4-17.1c-3.3,4.1-8.4,6.4-13.6,6.3c-5.9,0-11.5-2.5-15.3-6.9c-4.4-4.9-6.8-11.3-6.5-17.9c0-7.6,2.3-13.8,6.8-18.5
		c4.5-4.7,10.8-7.2,17.4-7c7.4-0.1,14.3,3.2,18.9,9c4.9,5.9,7.4,15.7,7.3,29.3c0,13.8-2.6,23.7-7.7,29.8c-4.9,6-12.2,9.4-20,9.2
		c-5.2,0.2-10.3-1.4-14.3-4.7C88,240.6,85.7,235.9,84.7,229.6z M117.4,198.1c0.2-3.9-0.9-7.7-3.3-10.9c-1.7-2.4-4.5-3.8-7.4-3.9
		c-2.6,0-5.1,1.2-6.7,3.3c-1.8,2.1-2.7,5.6-2.7,10.4c0,4.8,1,8.4,2.9,10.7c1.7,2.2,4.4,3.5,7.2,3.4c2.7,0,5.3-1.2,7-3.3
		C116.4,205.5,117.4,202.3,117.4,198.1z"/>
	<path class="st0" d="M190.5,171.4c6.6-0.3,13,2.6,17.1,7.8c4.9,6.2,7.3,16.4,7.3,30.7c0,14.3-2.5,24.5-7.4,30.8
		c-4.1,5.1-9.8,7.7-17.1,7.7c-6.9,0.2-13.5-2.9-17.7-8.5c-4.5-5.6-6.7-15.7-6.7-30.2c0-14.2,2.5-24.4,7.4-30.6
		C177.5,173.9,183.2,171.4,190.5,171.4z M190.5,183.3c-1.7,0-3.4,0.6-4.7,1.6c-1.7,1.6-2.8,3.7-3.3,6c-1,3.7-1.5,10-1.5,18.9
		c0,8.9,0.4,14.9,1.3,18.2c0.4,2.5,1.6,4.8,3.4,6.6c2.7,2.2,6.6,2.2,9.3,0c1.7-1.6,2.8-3.7,3.3-6c1-3.7,1.5-10,1.5-18.8
		c0-8.8-0.4-14.9-1.3-18.2c-0.5-2.5-1.7-4.8-3.4-6.6C193.8,183.9,192.2,183.3,190.5,183.3z"/>
	<path class="st0" d="M244.6,171.4c6.6-0.3,13,2.6,17.2,7.8c4.9,6.2,7.4,16.4,7.3,30.7c0,14.3-2.5,24.5-7.3,30.8
		c-4.1,5.1-9.8,7.7-17.1,7.7c-6.9,0.2-13.5-2.9-17.7-8.5c-4.5-5.6-6.7-15.7-6.7-30.2c0-14.2,2.5-24.4,7.4-30.6
		C231.7,173.9,237.3,171.4,244.6,171.4z M244.6,183.3c-1.7,0-3.4,0.6-4.7,1.6c-1.7,1.6-2.8,3.7-3.3,6c-1,3.7-1.5,10-1.5,18.9
		c0,8.9,0.4,14.9,1.3,18.2c0.4,2.5,1.6,4.8,3.4,6.6c2.7,2.2,6.6,2.2,9.3,0c1.7-1.6,2.8-3.7,3.3-6c1-3.7,1.5-10,1.5-18.8
		c0-8.8-0.5-14.9-1.3-18.2c-0.5-2.5-1.6-4.8-3.4-6.6C248,183.9,246.3,183.3,244.6,183.3z"/>
	<path class="st0" d="M298.7,171.4c6.6-0.3,13,2.6,17.1,7.8c4.9,6.2,7.4,16.4,7.4,30.7c0,14.3-2.5,24.5-7.4,30.8
		c-4.1,5.1-9.8,7.7-17.1,7.7c-6.9,0.2-13.5-2.9-17.7-8.5c-4.5-5.6-6.7-15.7-6.7-30.2c0-14.2,2.5-24.4,7.4-30.6
		C285.7,173.9,291.4,171.4,298.7,171.4z M298.7,183.3c-1.7,0-3.4,0.6-4.7,1.6c-1.7,1.6-2.8,3.7-3.3,6c-1,3.7-1.5,10-1.5,18.9
		c0,8.9,0.4,14.9,1.3,18.2c0.4,2.5,1.6,4.8,3.4,6.6c2.7,2.2,6.6,2.2,9.3,0c1.7-1.6,2.8-3.7,3.3-6c1-3.7,1.5-10,1.5-18.8
		c0-8.8-0.4-14.9-1.3-18.2c-0.5-2.5-1.6-4.8-3.4-6.6C302.1,183.9,300.4,183.3,298.7,183.3z"/>
	<path class="st0" d="M352.8,171.4c6.6-0.3,13,2.6,17.1,7.8c4.9,6.2,7.3,16.4,7.3,30.7c0,14.3-2.5,24.5-7.4,30.8
		c-4.1,5.1-9.8,7.7-17.1,7.7c-6.9,0.2-13.5-2.9-17.7-8.4c-4.5-5.6-6.7-15.7-6.7-30.2c0-14.2,2.5-24.4,7.4-30.6
		C339.9,173.9,345.5,171.4,352.8,171.4z M352.8,183.3c-1.7,0-3.4,0.6-4.7,1.6c-1.7,1.6-2.8,3.7-3.3,6c-1,3.7-1.5,10-1.5,18.9
		c0,8.9,0.5,14.9,1.3,18.2c0.4,2.5,1.6,4.8,3.4,6.6c2.7,2.2,6.6,2.2,9.3,0c1.7-1.6,2.8-3.7,3.3-6c1-3.7,1.5-10,1.5-18.8
		c0-8.8-0.4-14.9-1.2-18.2c-0.5-2.5-1.6-4.8-3.4-6.6C356.3,183.9,354.6,183.3,352.8,183.3z"/>
	<path class="st0" d="M407,171.4c6.6-0.3,13,2.6,17.1,7.8c4.9,6.2,7.4,16.4,7.3,30.7c0,14.3-2.5,24.5-7.4,30.8
		c-4.1,5.1-9.8,7.7-17.1,7.7c-6.9,0.2-13.5-2.9-17.7-8.5c-4.5-5.6-6.7-15.7-6.7-30.2c0-14.2,2.5-24.4,7.4-30.6
		C394,173.9,399.7,171.4,407,171.4z M407,183.3c-1.7,0-3.4,0.6-4.7,1.6c-1.7,1.6-2.8,3.7-3.3,6c-1,3.7-1.5,10-1.5,18.9
		c0,8.9,0.4,14.9,1.3,18.2c0.9,3.3,2,5.5,3.4,6.6c1.3,1.1,3,1.7,4.7,1.6c1.7,0,3.4-0.5,4.7-1.6c1.7-1.6,2.8-3.7,3.3-6
		c1-3.7,1.5-10,1.5-18.8c0-8.8-0.5-14.9-1.3-18.2c-0.5-2.5-1.6-4.8-3.4-6.6C410.3,183.9,408.7,183.3,407,183.3z"/>
	<path class="st0" d="M461.1,171.4c6.6-0.3,13,2.6,17.1,7.8c4.9,6.2,7.4,16.4,7.4,30.7c0,14.3-2.5,24.5-7.4,30.8
		c-4.1,5.1-9.8,7.7-17.1,7.7c-6.9,0.2-13.5-2.9-17.7-8.5c-4.5-5.6-6.7-15.7-6.7-30.2c0-14.2,2.5-24.4,7.4-30.6
		C448.1,173.9,453.8,171.4,461.1,171.4z M461.1,183.3c-1.7,0-3.4,0.6-4.7,1.6c-1.7,1.6-2.8,3.7-3.3,6c-1,3.7-1.5,10-1.5,18.9
		c0,8.9,0.5,14.9,1.3,18.2c0.4,2.5,1.6,4.8,3.4,6.6c2.7,2.2,6.6,2.2,9.3,0c1.7-1.6,2.8-3.7,3.3-6c1-3.7,1.5-10,1.5-18.8
		c0-8.8-0.4-14.9-1.3-18.2c-0.5-2.5-1.6-4.8-3.4-6.6C464.4,183.9,462.8,183.3,461.1,183.3z"/>
</g>
</svg>
