<?xml version="1.0" encoding="utf-8"?>
<!-- Generator: Adobe Illustrator 23.0.1, SVG Export Plug-In . SVG Version: 6.00 Build 0)  -->
<svg version="1.1" id="Layer_1" xmlns="http://www.w3.org/2000/svg" xmlns:xlink="http://www.w3.org/1999/xlink" x="0px" y="0px"
	 viewBox="0 0 510.2 340.2" style="enable-background:new 0 0 510.2 340.2;" xml:space="preserve">
<style type="text/css">
	.st0{fill-rule:evenodd;clip-rule:evenodd;fill:#FFFFFF;}
	.st1{fill-rule:evenodd;clip-rule:evenodd;fill:#E5504A;}
</style>
<path class="st0" d="M389.6,94.4c-1-15.8-3.1-32.6-14.7-44.2c-10.7-10.7-25.9-13.2-39.7-15.3c-26.5-3.6-52.9-4.6-79.9-4.6
	c-26.9,0-52.9,1-79.9,4.6c-14.3,2.1-29.5,5.1-39.7,15.3c-11.7,11.7-13.7,28.4-14.7,44.2c-1,17.8,0,36.2,1,53.9s3.1,35.6,7.6,52.9
	c2.1,8.2,4.6,16.2,9.2,22.9s10.7,11.2,18.3,14.7c15.3,7.1,33.1,7.6,49.4,8.6c16.2,1,32.6,1.5,48.8,1.5s32.6-0.5,48.8-1.5
	c16.2-1,34.1-1.5,49.4-8.6c7.1-3.1,13.7-8.2,18.3-14.7c4.6-7.1,7.1-14.7,9.2-22.9c4.6-17.3,6.1-35.1,7.6-52.9
	C389.6,130.4,390.7,112.1,389.6,94.4z M182.6,232.2c-1.5,0-4.6-0.5-7.6-1.5c-7.1-2.5-15.8-7.6-18.8-10.1c-0.5-0.5-1-1.5-2.1-2.1
	c-0.5-0.5-1-1-1.5-2.1c-0.5-0.5-0.5-1-1-1.5c-7.1-11.2-8.2-26.9-10.1-39.7c-3.1-20.8-4-42.3-3.6-63.1c0-16.2-1-37.2,9.2-51.4
	l0.5-0.5c2.1-2.5,4-4,6.6-5.6c1.5-1,3.6-2.1,5.6-2.5l0,0c0.5,0,1-0.5,1.5-0.5c3.1-1,6.1-2.1,9.2-3.1c4.6,0,2.5,7.1,3.1,10.1
	c0,16.8,1,33.6,2.1,49.9c2.5,39.7,5.1,79.3,10.7,119.1C186.1,230.7,184.6,231.7,182.6,232.2z M292,235.3c-1.5,0.5-7.1,0.5-13.2,0.5
	c-7.6,0-15.3,0-23.4,0c-7.6,0-15.3,0-23.4,0c-6.1,0-11.7,0-13.2-0.5c-1.5-0.5-3.6-0.5-3.1-2.1c0.5-2.1,8.2-25.9,8.2-25.9
	c5.1-15.8,5.1-16.8,17.8-19.3c4-1,9.2-1.5,13.7-1.5c4.6,0,9.7,0.5,13.7,1.5c12.7,2.5,12.7,3.6,17.8,19.3c0,0,7.6,23.9,8.2,25.9
	C295,234.7,293.5,234.7,292,235.3z M313.8,48.1c-5.6,20.8-12.2,48.4-18.3,69.2c-4.6,16.8-10.1,38.1-30.5,40.7
	c-3.1,0.5-6.1,0.5-9.7,0.5c-3.1,0-6.6-0.5-9.7-0.5c-20.4-2.1-25.9-23.9-30.5-40.7c-6.1-20.8-12.7-48.4-18.3-69.2
	c-0.5-1.5-0.5-2.5,0.5-2.5c3.6-1,26.9-3.1,57.5-2.5l0,0c17.3,0,37.2,0,50.3,2.1C313.3,45.5,314.9,44.5,313.8,48.1z M368.8,175.2
	c-2.1,14.3-3.6,33.1-13.7,44.2c-3.6,4-32,20.4-30.5,7.6c5.1-39.7,8.2-78.9,10.7-119.1c0.5-16.8,1.5-33.6,2.1-49.9
	c0-3.1-1.5-9.7,3.1-10.1c8.2,2.5,17.8,5.1,22.9,12.2c10.7,13.7,9.2,34.6,9.7,51.4C372.8,133,371.8,154.4,368.8,175.2z"/>
<g>
	<path class="st1" d="M114.9,298.3c0-1.5,0-2.1,0-3.6v-25.4c0-1.5-0.5-4,2.5-4.6l7.6-1v-5.6H85.4v6.1c1.5,0,6.1,0.5,7.6,1
		c1,0.5,2.5,1,2.5,4c0,2.5,0,9.2,0,9.2H63.1v-9.7c0-1,0.5-3.1,2.5-4c1.5-0.5,5.6-0.5,7.6-1v-5.6H33v6.1c3.1,0.5,5.1,0.5,8.2,1
		c2.5,0.5,2.1,3.1,2.1,4.6v26.5c0,2.5,0,2.1,0,2.1c0,2.5-2.5,3.1-4,3.1l-6.2,0.4v6.1h40.2v-6.1c-1,0-5.1-0.5-7.1-1
		c-3.1-0.5-3.1-2.5-3.1-4v-8.6h31.5v7.6c0,1.5,0.5,4.6-2.5,5.1c-3.1,0.5-6.1,1-7.1,1v6.1h40.2v-6.2c-2.5,0-3.1,0-7.6-1
		C115.9,300.4,114.9,299.3,114.9,298.3L114.9,298.3z"/>
	<path class="st1" d="M197.3,263.3c-8.2-5.1-18.8-6.1-30-6.1c-9.7,0-21.9,1.5-28.4,6.1c-7.6,5.1-11.7,13.2-11.7,20.4
		c0,6.6,4,14.7,11.2,19.8s18.3,6.6,29,6.6c11.2,0,21.4-0.5,29.5-5.6c7.6-4.6,12.2-12.2,12.2-20.4
		C208.5,275.5,204.9,267.8,197.3,263.3L197.3,263.3z M150,288.2c-1.5-6.1,0-12.7,3.6-16.8c6.1-7.6,23.4-7.1,29,0.5
		c4.6,5.1,4.6,13.7,1.5,20.4c-3.6,6.6-10.7,8.2-19.3,7.6C157.1,299.3,152.1,295.8,150,288.2L150,288.2z"/>
	<path class="st1" d="M268,258.1v6.1c9.2,0,9.7,2.1,9.7,7.6v23.9l-29-37.7h-36.6v6.1c4.6,0,10.1,1.5,10.1,7.6v21.9
		c-0.5,6.1,0,7.6-9.7,8.2v6.1h31v-6c-9.7,0-9.7-3.1-9.7-8.6v-21.9l28.4,37.2h27.5V275c0-2.1,0-4.6,0.5-6.1c1-4,4.6-4,9.7-4.6v-6.1
		L268,258.1L268,258.1z"/>
	<path class="st1" d="M377.4,264.8c-3.1-2.1-7.1-3.6-11.2-4.6c-5.1-1.5-12.7-1.5-17.8-1.5h-9.7h-34.6v6.1l6.6,0.5
		c1.5,0.5,3.1,1.5,3.1,4v28.4c0,0,0,2.5-2.1,3.1c-2.1,0.5-4.6,1-7.6,1v6.1h36.6c5.1,0,16.2,0,22.9-1c7.6-1.5,15.3-5.1,18.8-10.1
		c4-6.1,4.6-10.1,4.6-14.3C386.6,275.9,384.1,269.4,377.4,264.8L377.4,264.8z M363.1,282.1c0.5,7.1-1,17.3-16.8,16.2h-14.2v-31h15.3
		c5.6,0,8.6,0.5,11.7,3.1C362.2,273.9,363.1,278,363.1,282.1L363.1,282.1z"/>
	<path class="st1" d="M400.3,258.1v6.6c0,0,14.7-1,8.2,8.6l-11.7,18.8c-3.6,6.1-5.1,9.2-14.3,9.2v6.1h32v-6.1c-4-0.5-10.7-1-7.1-6.6
		l1.5-2.5h31l2.1,2.5c5.1,7.6-7.6,6.6-7.6,6.6v6.1h42.7v-6.1c-7.1,0-8.6-1-11.2-5.1l-26.5-38.1H400.3L400.3,258.1z M413.6,284.1
		l10.7-16.8l11.2,16.8H413.6L413.6,284.1z"/>
</g>
</svg>
