<?xml version="1.0" encoding="utf-8"?>
<!-- Generator: Adobe Illustrator 23.0.1, SVG Export Plug-In . SVG Version: 6.00 Build 0)  -->
<svg version="1.1" id="Layer_1" xmlns="http://www.w3.org/2000/svg" xmlns:xlink="http://www.w3.org/1999/xlink" x="0px" y="0px"
	 viewBox="0 0 510.2 340.2" style="enable-background:new 0 0 510.2 340.2;" xml:space="preserve">
<style type="text/css">
	.st0{fill-rule:evenodd;clip-rule:evenodd;fill:#FFFFFF;}
	.st1{fill-rule:evenodd;clip-rule:evenodd;fill:#E5504A;}
</style>
<path class="st0" d="M405,85.7c-1.1-17.6-3.4-36.3-16.4-49.3c-11.9-11.9-28.9-14.7-44.2-17c-29.5-4-59-5.1-89-5.1s-59,1.1-89,5.1
	c-15.9,2.3-32.9,5.7-44.2,17c-13,13-15.3,31.7-16.4,49.3c-1.1,19.8,0,40.3,1.1,60.1c1.1,19.8,3.4,39.7,8.5,59
	c2.3,9.1,5.1,18.1,10.2,25.5s11.9,12.5,20.4,16.4c17,7.9,36.9,8.5,55,9.6c18.1,1.1,36.3,1.7,54.4,1.7c18.1,0,36.3-0.6,54.4-1.7
	c18.1-1.1,38-1.7,55-9.6c7.9-3.4,15.3-9.1,20.4-16.4c5.1-7.9,7.9-16.4,10.2-25.5c5.1-19.3,6.8-39.1,8.5-59
	C405,125.9,406.2,105.5,405,85.7z M174.3,239.3c-1.7,0-5.1-0.6-8.5-1.7c-7.9-2.8-17.6-8.5-21-11.3c-0.6-0.6-1.1-1.7-2.3-2.3
	c-0.6-0.6-1.1-1.1-1.7-2.3c-0.6-0.6-0.6-1.1-1.1-1.7c-7.9-12.5-9.1-30-11.3-44.2c-3.4-23.2-4.5-47.1-4-70.3
	c0-18.1-1.1-41.4,10.2-57.3l0.6-0.6c2.3-2.8,4.5-4.5,7.4-6.2c1.7-1.1,4-2.3,6.2-2.8l0,0c0.6,0,1.1-0.6,1.7-0.6
	c3.4-1.1,6.8-2.3,10.2-3.4c5.1,0,2.8,7.9,3.4,11.3c0,18.7,1.1,37.4,2.3,55.6c2.8,44.2,5.7,88.4,11.9,132.7
	C178.2,237.6,176.5,238.7,174.3,239.3z M296.2,242.7c-1.7,0.6-7.9,0.6-14.7,0.6c-8.5,0-17,0-26.1,0c-8.5,0-17,0-26.1,0
	c-6.8,0-13,0-14.7-0.6c-1.7-0.6-4-0.6-3.4-2.3c0.6-2.3,9.1-28.9,9.1-28.9c5.7-17.6,5.7-18.7,19.8-21.5c4.5-1.1,10.2-1.7,15.3-1.7
	s10.8,0.6,15.3,1.7c14.2,2.8,14.2,4,19.8,21.5c0,0,8.5,26.6,9.1,28.9C299.6,242.1,297.9,242.1,296.2,242.7z M320.5,34.1
	c-6.2,23.2-13.6,53.9-20.4,77.1c-5.1,18.7-11.3,42.5-34,45.4c-3.4,0.6-6.8,0.6-10.8,0.6c-3.4,0-7.4-0.6-10.8-0.6
	c-22.7-2.3-28.9-26.6-34-45.4c-6.8-23.2-14.2-53.9-20.4-77.1c-0.6-1.7-0.6-2.8,0.6-2.8c4-1.1,30-3.4,64.1-2.8l0,0
	c19.3,0,41.4,0,56.1,2.3C320,31.2,321.7,30.1,320.5,34.1z M381.8,175.8c-2.3,15.9-4,36.9-15.3,49.3c-4,4.5-35.7,22.7-34,8.5
	c5.7-44.2,9.1-87.9,11.9-132.7c0.6-18.7,1.7-37.4,2.3-55.6c0-3.4-1.7-10.8,3.4-11.3c9.1,2.8,19.8,5.7,25.5,13.6
	c11.9,15.3,10.2,38.6,10.8,57.3C386.3,128.7,385.2,152.6,381.8,175.8z"/>
<g>
	<path class="st1" d="M98.9,313c0-1.7,0-2.3,0-4v-28.3c0-1.7-0.6-4.5,2.8-5.1l8.5-1.1v-6.2H66v6.8c1.7,0,6.8,0.6,8.5,1.1
		c1.1,0.6,2.8,1.1,2.8,4.5c0,2.8,0,10.2,0,10.2H41.1v-10.8c0-1.1,0.6-3.4,2.8-4.5c1.7-0.6,6.2-0.6,8.5-1.1v-6.2H7.6v6.8
		c3.4,0.6,5.7,0.6,9.1,1.1c2.8,0.6,2.3,3.4,2.3,5.1v29.5c0,2.8,0,2.3,0,2.3c0,2.8-2.8,3.4-4.5,3.4L7.6,317v6.8h44.8V317
		c-1.1,0-5.7-0.6-7.9-1.1c-3.4-0.6-3.4-2.8-3.4-4.5v-9.6h35.1v8.5c0,1.7,0.6,5.1-2.8,5.7c-3.4,0.6-6.8,1.1-7.9,1.1v6.8h44.8V317
		c-2.8,0-3.4,0-8.5-1.1C100,315.3,98.9,314.1,98.9,313L98.9,313z"/>
	<path class="st1" d="M190.7,273.9c-9.1-5.7-21-6.8-33.4-6.8c-10.8,0-24.4,1.7-31.7,6.8c-8.5,5.7-13,14.7-13,22.7
		c0,7.4,4.5,16.4,12.5,22.1s20.4,7.4,32.3,7.4c12.5,0,23.8-0.6,32.9-6.2c8.5-5.1,13.6-13.6,13.6-22.7
		C203.2,287.5,199.2,279,190.7,273.9L190.7,273.9z M138,301.7c-1.7-6.8,0-14.2,4-18.7c6.8-8.5,26.1-7.9,32.3,0.6
		c5.1,5.7,5.1,15.3,1.7,22.7c-4,7.4-11.9,9.1-21.5,8.5C145.9,314.1,140.3,310.2,138,301.7L138,301.7z"/>
	<path class="st1" d="M269.5,268.2v6.8c10.2,0,10.8,2.3,10.8,8.5v26.6l-32.3-42h-40.8v6.8c5.1,0,11.3,1.7,11.3,8.5v24.4
		c-0.6,6.8,0,8.5-10.8,9.1v6.8h34.6V317c-10.8,0-10.8-3.4-10.8-9.6v-24.4l31.7,41.4h30.6v-37.4c0-2.3,0-5.1,0.6-6.8
		c1.1-4.5,5.1-4.5,10.8-5.1v-6.8H269.5L269.5,268.2z"/>
	<path class="st1" d="M391.4,275.6c-3.4-2.3-7.9-4-12.5-5.1c-5.7-1.7-14.2-1.7-19.8-1.7h-10.8h-38.6v6.8l7.4,0.6
		c1.7,0.6,3.4,1.7,3.4,4.5v31.7c0,0,0,2.8-2.3,3.4s-5.1,1.1-8.5,1.1v6.8h40.8c5.7,0,18.1,0,25.5-1.1c8.5-1.7,17-5.7,21-11.3
		c4.5-6.8,5.1-11.3,5.1-15.9C401.6,288,398.8,280.7,391.4,275.6L391.4,275.6z M375.5,294.9c0.6,7.9-1.1,19.3-18.7,18.1H341v-34.6h17
		c6.2,0,9.6,0.6,13,3.4C374.4,285.8,375.5,290.3,375.5,294.9L375.5,294.9z"/>
	<path class="st1" d="M416.9,268.2v7.4c0,0,16.4-1.1,9.1,9.6l-13,21c-4,6.8-5.7,10.2-15.9,10.2v6.8h35.7v-6.8
		c-4.5-0.6-11.9-1.1-7.9-7.4l1.7-2.8h34.6l2.3,2.8c5.7,8.5-8.5,7.4-8.5,7.4v6.8h47.6v-6.8c-7.9,0-9.6-1.1-12.5-5.7l-29.5-42.5H416.9
		L416.9,268.2z M431.7,297.1l11.9-18.7l12.5,18.7H431.7L431.7,297.1z"/>
</g>
</svg>
