<?xml version="1.0" encoding="utf-8"?>
<!-- Generator: Adobe Illustrator 23.0.1, SVG Export Plug-In . SVG Version: 6.00 Build 0)  -->
<svg version="1.1" id="Layer_1" xmlns="http://www.w3.org/2000/svg" xmlns:xlink="http://www.w3.org/1999/xlink" x="0px" y="0px"
	 viewBox="0 0 163.4 196.8" style="enable-background:new 0 0 163.4 196.8;" xml:space="preserve">
<style type="text/css">
	.st0{fill:#FF0016;}
	.st1{fill:#015CD0;}
</style>
<path class="st0" d="M60.4,45c1.4-4.7,5-2.3,5-2.3s9.4,7.1,35,23.5s57.7-6.3,57.7-6.3l-76-54c-33.3,35.3-76,48-76,48h0.1l97.1,68.1
	c-1.4,4.7-5,2.3-5,2.3s-9.4-7.1-35-23.5c-25.7-16.3-57.7,6.3-57.7,6.3l76,54c33.3-35.3,76-48,76-48h-0.1L60.4,45z"/>
<g>
	<g>
		<path class="st1" d="M4.9,182.6l11.7,0.1c0.2,1.1-0.1,1.1,0.5,1.7c1,0.9,2.5,1.1,3.7,0.9c1-0.2,2.6-0.5,2.7-1.8
			c0.1-1.4-0.9-1.9-2.1-2c-1.7-0.2-3.3-0.3-5-0.5c-4.3-0.7-6.5-1-8.4-2.2c-1.8-1.2-2-3.7-2-5.5c0-1.2,0.5-2.3,1.4-3.3
			s2.3-1.9,4.2-2.5c1.9-0.6,4.5-0.9,7.7-0.9c4,0,7.1,0.5,9.2,1.6s3.4,3.5,3.8,5.9h-9.9c0.1-0.1-0.2-0.8-0.2-0.9
			c-0.4-1.4-1.7-1.8-3-2.1c-1-0.2-2.2-0.3-3.2,0.3c-0.6,0.4-1,0.7-1,1.2c0,0.4,0.2,0.7,0.7,1c0.5,0.3,1.5,0.6,3.3,0.8
			c4.3,0.7,7.3,1.3,9.1,2c1.8,0.7,3.2,1.5,4,2.5s1.3,2.1,1.3,3.4c0,1.5-0.6,2.8-1.7,4.1c-1.1,1.2-2.7,2.2-4.7,2.8
			c-2,0.6-4.5,1-7.6,1c-5.4,0-9.1-0.8-11.1-2.3C6.3,186.5,5.2,184.9,4.9,182.6z"/>
		<path class="st1" d="M52.3,166.9h8.6v16.2c0,3.3-2.1,5.7-6.2,7.1c-1.9,0.6-4.2,0.7-6.8,0.7c-2.3,0-4.4,0-6.4-0.5
			c-4.6-1.8-6.8-4.3-6.8-7.3v-16.2h8.7v13.9c0,2.5,0.3,4.4,4.5,4.4s4.3-2,4.3-4.5L52.3,166.9z"/>
		<path class="st1" d="M108.8,166.9h8.6v16.2c0,3.3-2.1,5.7-6.2,7.1c-1.9,0.6-4.2,0.7-6.8,0.7c-2.3,0-4.4,0-6.4-0.5
			c-4.6-1.8-6.8-4.3-6.8-7.3v-16.2h8.7v13.9c0,2.5,0.3,4.4,4.5,4.4s4.3-2,4.3-4.5L108.8,166.9z"/>
		<path class="st1" d="M62.7,167.1h26.8v5l-13.1,11.8h13.1v6.5H62.7v-5.6l12.8-11.6H62.7V167.1z"/>
		<path class="st1" d="M119.6,190.3V167h8.6v8.6l9.3-8.6h10.7l-12.3,11.3l12.8,12h-11.6l-8.8-8.3l0.1,8.3H119.6z"/>
		<path class="st1" d="M158.5,167v23.3h-8.6V167H158.5z"/>
	</g>
</g>
</svg>
