<?xml version="1.0" encoding="utf-8"?>
<!-- Generator: Adobe Illustrator 23.0.1, SVG Export Plug-In . SVG Version: 6.00 Build 0)  -->
<svg version="1.1" id="Capa_1" xmlns="http://www.w3.org/2000/svg" xmlns:xlink="http://www.w3.org/1999/xlink" x="0px" y="0px"
	 viewBox="0 0 510.2 340.2" style="enable-background:new 0 0 510.2 340.2;" xml:space="preserve">
<style type="text/css">
	.st0{fill:#96999D;}
	.st1{fill:url(#SVGID_1_);}
	.st2{fill:url(#SVGID_2_);}
	.st3{fill:url(#SVGID_3_);}
	.st4{fill:url(#SVGID_4_);}
	.st5{fill:url(#SVGID_5_);}
	.st6{fill:url(#SVGID_6_);}
	.st7{fill:url(#SVGID_7_);}
	.st8{fill:url(#SVGID_8_);}
	.st9{fill:#2D2F34;}
	.st10{fill:url(#SVGID_9_);}
	.st11{fill:url(#SVGID_10_);}
	.st12{fill:url(#SVGID_11_);}
	.st13{fill:url(#SVGID_12_);}
</style>
<g>
	<path class="st0" d="M254.6,293.4c0-18,14.5-32.6,32.6-32.6c17.7,0,32.2,14.6,32.6,32.6c-0.4,17.9-14.9,32.4-32.6,32.6
		C269.1,325.8,254.6,311.1,254.6,293.4L254.6,293.4z M287.2,314c9.8-0.1,18-9.3,18-20.6c-0.1-11.5-8.3-20.7-18-20.6
		c-10.2-0.1-18.4,9.2-18,20.6C268.9,304.7,277,313.9,287.2,314"/>
	<polyline class="st0" points="356.9,274.4 356.9,324.4 343.1,324.4 343.1,274.4 323.3,274.4 323.3,263.3 375.8,263.3 375.8,274.4 
		356.9,274.4 	"/>
	<path class="st0" d="M392.1,310.5L392.1,310.5l-5.2,13.7h-16.3l25.8-61h17.2l25,61h-16.3l-5.2-13.7H392.1L392.1,310.5z M405,300.3
		h8.5l-8.5-22.4l-8.5,22.4H405"/>
	<polyline class="st0" points="104.2,274.4 104.2,324.4 90.5,324.4 90.5,274.4 71.6,274.4 71.6,263.3 123.1,263.3 123.1,274.4 
		104.2,274.4 	"/>
	<path class="st0" d="M126.6,293.4c0-18,14.6-32.6,32.6-32.6c17.9,0,32.4,14.6,32.6,32.6c-0.3,17.9-14.9,32.4-32.6,32.6
		C141.1,325.8,126.6,311.1,126.6,293.4L126.6,293.4z M159.2,314c10-0.1,18-9.3,18-20.6c0-11.5-8.2-20.7-18-20.6
		c-10.1-0.1-18.3,9.2-18,20.6C141,304.7,149.1,313.9,159.2,314"/>
	<polyline class="st0" points="222.8,324.4 229.6,324.4 229.6,301.1 253.7,263.3 238.3,263.3 222.8,289 208.1,263.3 191.8,263.3 
		215.9,301.1 215.9,324.4 222.8,324.4 	"/>
</g>
<g>
	<path d="M71.6,129c0,63.3,82.3,114.8,183.4,114.8S438.4,192.3,438.4,129S356.1,14.2,255,14.2S71.6,65.7,71.6,129z M77.2,129
		c0-60.2,79.7-109.1,177.8-109.1S432.8,68.8,432.8,129S353.1,238.1,255,238.1C157,238.1,77.2,189.2,77.2,129z"/>
	<path d="M237.7,35.1c-43,2.6-74.2,14-79.5,29c-0.5,1.6-0.8,3.1-0.8,4.7c0,2.6,0.8,5,2.1,7.5c6,10.1,24.5,18.5,50.7,23l2.8,0.5
		l0.5-2.7c4.3-26.4,13.8-47.1,26-56.8l7-5.6L237.7,35.1z M164.4,73.4c-0.9-1.6-1.4-3.1-1.4-4.7c0-0.9,0.1-1.9,0.5-2.8l0,0
		c4-11.4,31.6-21.5,66.8-24.7c-10.1,11.4-17.7,29.6-21.7,51.9C185.8,88.9,169.3,81.7,164.4,73.4z M158.3,64.1L158.3,64.1L158.3,64.1
		z"/>
	<path d="M229.9,98.6l-0.5,3.1l3.1,0.3c7.4,0.5,15,0.9,22.7,0.9s15.3-0.3,22.7-0.9l3.1-0.3l-0.5-3.1c-4.3-23.8-13.7-37.9-25.2-37.9
		C243.5,60.7,234,74.8,229.9,98.6z M255,66.3c7.9,0,15.1,11.8,19,30.2c-6.2,0.4-12.6,0.6-19,0.6c-6.3,0-12.8-0.3-19-0.6
		C239.9,78,247.1,66.3,255,66.3z"/>
	<path d="M270.4,40.1c12.2,9.8,21.7,30.5,26,56.8l0.5,2.7l2.7-0.5c26.3-4.5,44.8-12.8,50.7-23c2.3-3.9,2.7-8.2,1.3-12.2
		c-5.3-15-36.5-26.4-79.5-29l-8.8-0.5L270.4,40.1z M279.7,41.3c35.2,3.2,62.8,13.2,66.8,24.7c0.4,0.9,0.5,1.9,0.5,2.8
		c0,1.6-0.5,3.1-1.3,4.7c-4.9,8.3-21.4,15.5-44.1,19.8C297.5,70.9,289.7,52.7,279.7,41.3z"/>
	<path d="M131.1,75.2c-19.3,16.2-29.5,35.3-29.5,55.5c0,47.5,57.9,87.6,134.6,93.3l8.5,0.6l-6.5-5.6c-16.8-14.4-27.3-48.5-27.3-89.1
		l0.1-9.6l-2.3-0.5c-40.4-7.2-69.1-24.2-73.1-43.2l-1-4.5L131.1,75.2z M107.2,130.7c0-17.3,8.4-33.9,24.3-48.3
		c7.4,19.2,34.9,35.2,73.9,42.6c0,2.2-0.1,4.9-0.1,4.9c0,37.7,8.9,70,23.7,87.6C159.1,210.1,107.2,173.6,107.2,130.7z"/>
	<path d="M227.6,125.7v1c0,37.7,11.8,66.1,27.4,66.1s27.4-28.5,27.4-66.1v-4l-3,0.3c-8,0.6-16.2,1-24.5,1s-16.4-0.4-24.5-1l-3-0.3
		V125.7z M276.9,128.6c-0.4,35.1-11.5,58.5-21.9,58.5c-10.4,0-21.4-23.4-21.9-58.5c7.1,0.5,14.5,0.9,21.9,0.9
		C262.4,129.4,269.8,129.2,276.9,128.6z"/>
	<path d="M374.5,76.7c-4.1,19-32.7,36-73.1,43.2l-2.3,0.4l0.1,9.6c0,40.5-10.5,74.7-27.3,89.1l-6.5,5.6l8.5-0.6
		c76.8-5.7,134.6-45.8,134.6-93.3c0-20.2-10.2-39.3-29.5-55.5l-3.6-3L374.5,76.7z M378.5,82.3c15.8,14.4,24.3,31.1,24.3,48.3
		c0,43-51.9,79.5-121.8,86.9c14.8-17.5,23.7-50,23.7-87.6c0,0,0-2.7-0.1-4.9C343.5,117.5,371.1,101.6,378.5,82.3z"/>
	
		<linearGradient id="SVGID_1_" gradientUnits="userSpaceOnUse" x1="255.0034" y1="2793.4839" x2="255.0034" y2="2665.8962" gradientTransform="matrix(1 0 0 1 0 -2576.2917)">
		<stop  offset="0" style="stop-color:#F0F3F5"/>
		<stop  offset="5.607202e-02" style="stop-color:#E2E5E8"/>
		<stop  offset="0.1383" style="stop-color:#D4D8DD"/>
		<stop  offset="0.2425" style="stop-color:#CCD0D6"/>
		<stop  offset="0.44" style="stop-color:#CACED4"/>
		<stop  offset="0.568" style="stop-color:#B3B7BD"/>
		<stop  offset="0.8354" style="stop-color:#797C83"/>
		<stop  offset="1" style="stop-color:#52545C"/>
	</linearGradient>
	<path class="st1" d="M376.4,62.2c0.3,0.8,0.5,1.4,0.6,2.2c1,4.3,0.8,8.4-0.5,12.4c18.3,15.1,29.1,33.7,29.1,53.8
		c0,50.4-67.4,91.1-150.7,91.1s-150.7-40.8-150.7-91.1c0-20.2,10.7-38.8,29.1-53.8c-1.4-4-1.6-8.2-0.5-12.4c0.1-0.8,0.5-1.6,0.9-2.3
		c-25,17.7-40.1,41.2-40.1,66.7c0,55.8,72.2,101,161.3,101s161.3-45.2,161.3-101C416.3,103.3,401.3,80,376.4,62.2z"/>
	
		<linearGradient id="SVGID_2_" gradientUnits="userSpaceOnUse" x1="255.0023" y1="2696.2688" x2="255.0023" y2="2627.1321" gradientTransform="matrix(1 0 0 1 0 -2576.2917)">
		<stop  offset="0" style="stop-color:#F0F3F5"/>
		<stop  offset="5.607202e-02" style="stop-color:#E2E5E8"/>
		<stop  offset="0.1383" style="stop-color:#D4D8DD"/>
		<stop  offset="0.2425" style="stop-color:#CCD0D6"/>
		<stop  offset="0.44" style="stop-color:#CACED4"/>
		<stop  offset="0.568" style="stop-color:#B3B7BD"/>
		<stop  offset="0.8354" style="stop-color:#797C83"/>
		<stop  offset="1" style="stop-color:#52545C"/>
	</linearGradient>
	<path class="st2" d="M277.4,99.1c-7.1,0.5-14.6,0.8-22.4,0.8s-15.3-0.3-22.4-0.8l0,0l-4.7,3.4c8.5,0.8,17.6,1.2,27.1,1.2
		s18.5-0.4,27.1-1.2L277.4,99.1L277.4,99.1z M359.8,63.8C354.2,45,307.6,31.3,255,31.3c-52.4,0-99.1,13.7-104.8,32.5
		c-4.9,16.2,21.9,31.3,64.2,37.3l-3.6-4.5l0,0c-34.3-5.8-54.6-18.3-49.8-31.5c5.7-16.1,47-27.7,94.1-27.7s88.4,11.6,94.1,27.7
		c4.7,13.2-15.7,25.6-50,31.5l0,0l-3.6,4.5C337.8,95,364.8,80,359.8,63.8z"/>
	
		<linearGradient id="SVGID_3_" gradientUnits="userSpaceOnUse" x1="278.0737" y1="2683.542" x2="234.8878" y2="2647.3047" gradientTransform="matrix(1 0 0 1 0 -2576.2917)">
		<stop  offset="0" style="stop-color:#F0F3F5"/>
		<stop  offset="5.607202e-02" style="stop-color:#E2E5E8"/>
		<stop  offset="0.1383" style="stop-color:#D4D8DD"/>
		<stop  offset="0.2425" style="stop-color:#CCD0D6"/>
		<stop  offset="0.44" style="stop-color:#CACED4"/>
		<stop  offset="0.568" style="stop-color:#B3B7BD"/>
		<stop  offset="0.8354" style="stop-color:#797C83"/>
		<stop  offset="1" style="stop-color:#52545C"/>
	</linearGradient>
	<path class="st3" d="M232.7,99.1c3.9-21.9,12.4-35.5,22.4-35.5c9.8,0,18.4,13.6,22.4,35.5h0.1l4.7,3.4
		c-3.9-28.9-14.5-47.2-27.1-47.2c-12.6,0-23.2,18.4-27.1,47.2L232.7,99.1L232.7,99.1z"/>
	
		<linearGradient id="SVGID_4_" gradientUnits="userSpaceOnUse" x1="282.3776" y1="2743.9104" x2="219.4101" y2="2707.5562" gradientTransform="matrix(1 0 0 1 0 -2576.2917)">
		<stop  offset="0" style="stop-color:#F0F3F5"/>
		<stop  offset="5.607202e-02" style="stop-color:#E2E5E8"/>
		<stop  offset="0.1383" style="stop-color:#D4D8DD"/>
		<stop  offset="0.2425" style="stop-color:#CCD0D6"/>
		<stop  offset="0.44" style="stop-color:#CACED4"/>
		<stop  offset="0.568" style="stop-color:#B3B7BD"/>
		<stop  offset="0.8354" style="stop-color:#797C83"/>
		<stop  offset="1" style="stop-color:#52545C"/>
	</linearGradient>
	<path class="st4" d="M283.5,118.8l-3.8,6.9l0,0c0,0.5,0,1,0,1.6c0,36.2-11.1,63.7-24.7,63.7c-13.6,0-24.7-27.4-24.7-63.7
		c0-0.5,0-1.2,0-1.7l-3.8-6.6c-0.1,2.7-0.1,5.4-0.1,8.3c0,41,12.8,72.1,28.6,72.1s28.6-31.1,28.6-72.1
		C283.6,124.2,283.6,121.5,283.5,118.8z"/>
	
		<linearGradient id="SVGID_5_" gradientUnits="userSpaceOnUse" x1="232.9346" y1="2593.2637" x2="232.9346" y2="2702.9187" gradientTransform="matrix(1 0 0 1 0 -2576.2917)">
		<stop  offset="0" style="stop-color:#F0F3F5"/>
		<stop  offset="5.607202e-02" style="stop-color:#E2E5E8"/>
		<stop  offset="0.1383" style="stop-color:#D4D8DD"/>
		<stop  offset="0.2425" style="stop-color:#CCD0D6"/>
		<stop  offset="0.44" style="stop-color:#CACED4"/>
		<stop  offset="0.568" style="stop-color:#B3B7BD"/>
		<stop  offset="0.8354" style="stop-color:#797C83"/>
		<stop  offset="1" style="stop-color:#52545C"/>
	</linearGradient>
	<path class="st5" d="M214.5,100.9c5.4-40.1,21.5-69.6,40.5-69.6c-20.3,0-37.7,26.3-44.1,65.2L214.5,100.9L214.5,100.9z"/>
	
		<linearGradient id="SVGID_6_" gradientUnits="userSpaceOnUse" x1="277.0722" y1="2593.2637" x2="277.0722" y2="2702.9187" gradientTransform="matrix(1 0 0 1 0 -2576.2917)">
		<stop  offset="0" style="stop-color:#F0F3F5"/>
		<stop  offset="5.607202e-02" style="stop-color:#E2E5E8"/>
		<stop  offset="0.1383" style="stop-color:#D4D8DD"/>
		<stop  offset="0.2425" style="stop-color:#CCD0D6"/>
		<stop  offset="0.44" style="stop-color:#CACED4"/>
		<stop  offset="0.568" style="stop-color:#B3B7BD"/>
		<stop  offset="0.8354" style="stop-color:#797C83"/>
		<stop  offset="1" style="stop-color:#52545C"/>
	</linearGradient>
	<path class="st6" d="M295.5,100.9L295.5,100.9l3.6-4.4c-6.5-39.1-23.8-65.2-44.1-65.2C274,31.3,290.1,60.9,295.5,100.9z"/>
	
		<linearGradient id="SVGID_7_" gradientUnits="userSpaceOnUse" x1="278.4313" y1="2592.3416" x2="278.4313" y2="2775.3494" gradientTransform="matrix(1 0 0 1 0 -2576.2917)">
		<stop  offset="0" style="stop-color:#F0F3F5"/>
		<stop  offset="5.607202e-02" style="stop-color:#E2E5E8"/>
		<stop  offset="0.1383" style="stop-color:#D4D8DD"/>
		<stop  offset="0.2425" style="stop-color:#CCD0D6"/>
		<stop  offset="0.44" style="stop-color:#CACED4"/>
		<stop  offset="0.568" style="stop-color:#B3B7BD"/>
		<stop  offset="0.8354" style="stop-color:#797C83"/>
		<stop  offset="1" style="stop-color:#52545C"/>
	</linearGradient>
	<path class="st7" d="M301.7,122.7l-4.7-5.6l0,0c0.3,4.4,0.4,8.8,0.4,13.3c0,54.8-19,99.3-42.5,99.3c26.3,0,46.9-41.2,46.9-99.3
		C301.9,127.9,301.9,125.3,301.7,122.7z"/>
	
		<linearGradient id="SVGID_8_" gradientUnits="userSpaceOnUse" x1="231.5755" y1="2592.3416" x2="231.5755" y2="2775.3494" gradientTransform="matrix(1 0 0 1 0 -2576.2917)">
		<stop  offset="0" style="stop-color:#F0F3F5"/>
		<stop  offset="5.607202e-02" style="stop-color:#E2E5E8"/>
		<stop  offset="0.1383" style="stop-color:#D4D8DD"/>
		<stop  offset="0.2425" style="stop-color:#CCD0D6"/>
		<stop  offset="0.44" style="stop-color:#CACED4"/>
		<stop  offset="0.568" style="stop-color:#B3B7BD"/>
		<stop  offset="0.8354" style="stop-color:#797C83"/>
		<stop  offset="1" style="stop-color:#52545C"/>
	</linearGradient>
	<path class="st8" d="M212.5,130.5c0-4.5,0.1-8.9,0.4-13.3l0,0l-4.7,5.4c-0.1,2.6-0.1,5.2-0.1,7.9c0,58,20.6,99.3,46.9,99.3
		C231.6,229.7,212.5,185.3,212.5,130.5z"/>
	<path class="st9" d="M376.5,76.7c7,5.8,12.9,12,17.5,18.8c-1.7-10.9-6-20.8-12.3-29.3c-1.7-1.4-3.5-2.7-5.3-4
		c0.3,0.8,0.5,1.4,0.6,2.2C378.1,68.6,378,72.7,376.5,76.7z"/>
	<path class="st9" d="M133.5,76.7c-1.4-4-1.6-8.2-0.5-12.4c0.1-0.8,0.5-1.6,0.9-2.3c-1.9,1.4-3.8,2.7-5.6,4.1
		c-6.3,8.4-10.6,18.4-12.3,29.3C120.6,88.9,126.5,82.6,133.5,76.7z"/>
	
		<linearGradient id="SVGID_9_" gradientUnits="userSpaceOnUse" x1="255.0681" y1="2593.3625" x2="255.0681" y2="2817.2866" gradientTransform="matrix(1 0 0 1 0 -2576.2917)">
		<stop  offset="0" style="stop-color:#F0F3F5"/>
		<stop  offset="0.2533" style="stop-color:#EDF0F3"/>
		<stop  offset="0.4056" style="stop-color:#E5E8EA"/>
		<stop  offset="0.5313" style="stop-color:#D7DADC"/>
		<stop  offset="0.6424" style="stop-color:#C3C5C9"/>
		<stop  offset="0.7439" style="stop-color:#A9ABAF"/>
		<stop  offset="0.8385" style="stop-color:#888B90"/>
		<stop  offset="0.9259" style="stop-color:#63656B"/>
		<stop  offset="1" style="stop-color:#3D3F46"/>
	</linearGradient>
	<path class="st10" d="M74.4,129c0-61.9,80.9-112,180.7-112s180.6,50.1,180.6,112s-80.9,112-180.6,112
		C155.3,241,74.4,190.9,74.4,129z M255,229.7c89.1,0,161.3-45.2,161.3-101s-72.2-101-161.3-101S93.7,73,93.7,128.8
		S166,229.7,255,229.7z"/>
	
		<linearGradient id="SVGID_10_" gradientUnits="userSpaceOnUse" x1="255.0034" y1="2593.2629" x2="255.0034" y2="2817.2085" gradientTransform="matrix(1 0 0 1 0 -2576.2917)">
		<stop  offset="0" style="stop-color:#F0F3F5"/>
		<stop  offset="0.2533" style="stop-color:#EDF0F3"/>
		<stop  offset="0.4056" style="stop-color:#E5E8EA"/>
		<stop  offset="0.5313" style="stop-color:#D7DADC"/>
		<stop  offset="0.6424" style="stop-color:#C3C5C9"/>
		<stop  offset="0.7439" style="stop-color:#A9ABAF"/>
		<stop  offset="0.8385" style="stop-color:#888B90"/>
		<stop  offset="0.9259" style="stop-color:#63656B"/>
		<stop  offset="1" style="stop-color:#3D3F46"/>
	</linearGradient>
	<path class="st11" d="M212.5,130.5c0-54.2,19-99.3,42.5-99.3s42.5,45,42.5,99.3c0,54.8-19,99.3-42.5,99.3S212.5,185.3,212.5,130.5z
		 M255,199.2c15.8,0,28.6-31.1,28.6-72.1c0-42.6-12.8-72-28.6-72s-28.6,29.4-28.6,72C226.4,168.1,239.2,199.2,255,199.2z"/>
	
		<linearGradient id="SVGID_11_" gradientUnits="userSpaceOnUse" x1="255.0034" y1="2593.2849" x2="255.0034" y2="2817.2229" gradientTransform="matrix(1 0 0 1 0 -2576.2917)">
		<stop  offset="0" style="stop-color:#F0F3F5"/>
		<stop  offset="0.2533" style="stop-color:#EDF0F3"/>
		<stop  offset="0.4056" style="stop-color:#E5E8EA"/>
		<stop  offset="0.5313" style="stop-color:#D7DADC"/>
		<stop  offset="0.6424" style="stop-color:#C3C5C9"/>
		<stop  offset="0.7439" style="stop-color:#A9ABAF"/>
		<stop  offset="0.8385" style="stop-color:#888B90"/>
		<stop  offset="0.9259" style="stop-color:#63656B"/>
		<stop  offset="1" style="stop-color:#3D3F46"/>
	</linearGradient>
	<path class="st12" d="M132.9,64.4c4.7-18.4,61-45.3,122.1-45.3s115.5,19.2,122.1,45.3c7.4,29.3-46.9,55.7-122.1,55.7
		S125.6,93.7,132.9,64.4z M255,31.3c-52.4,0-99.1,13.7-104.8,32.5c-6.3,21,40.3,39.9,104.8,39.9s111.2-19,104.8-39.9
		C354.2,45,307.6,31.3,255,31.3z"/>
	
		<linearGradient id="SVGID_12_" gradientUnits="userSpaceOnUse" x1="255.0067" y1="2639.717" x2="255.0067" y2="2703.5386" gradientTransform="matrix(1 0 0 1 0 -2576.2917)">
		<stop  offset="0" style="stop-color:#CACED4"/>
		<stop  offset="1" style="stop-color:#52545C"/>
	</linearGradient>
	<path class="st13" d="M226.5,118.8L226.5,118.8l3.9,6.9c7.9,0.6,16.1,1,24.6,1s16.7-0.4,24.7-1l3.8-6.9l0,0
		c-9.1,0.9-18.6,1.3-28.5,1.3C245.2,120.1,235.6,119.6,226.5,118.8z M377.7,70.7c-0.9,21-33.1,39.5-80.6,46.5l0,0l4.7,5.6
		C348.2,114.3,378.9,93.8,377.7,70.7z M132.3,70.7c-1,23.2,29.5,43.6,76,52l4.7-5.6l0,0C165.4,110.1,133.3,91.6,132.3,70.7z"/>
</g>
</svg>
