<?xml version="1.0" encoding="utf-8"?>
<!-- Generator: Adobe Illustrator 23.0.1, SVG Export Plug-In . SVG Version: 6.00 Build 0)  -->
<svg version="1.1" id="Layer_1" xmlns="http://www.w3.org/2000/svg" xmlns:xlink="http://www.w3.org/1999/xlink" x="0px" y="0px"
	 viewBox="0 0 180 100" style="enable-background:new 0 0 180 100;" xml:space="preserve">
<style type="text/css">
	.st0{fill:#FFFFFF;}
</style>
<g>
	<path class="st0" d="M26.2,59.3C26,59.1,26,59.1,26,59c-0.1-0.1,0-0.2,0.1-0.5l0,0l1.2-2.1c0.1-0.2,0.2-0.2,0.4-0.3
		c0.2,0,0.3,0,0.4,0.1h0.1c0.2,0.1,0.4,0.3,0.8,0.6c0.4,0.2,0.9,0.5,1.5,0.8c0.6,0.2,1.1,0.5,1.7,0.7c0.6,0.2,1.1,0.3,1.7,0.3
		c1,0,1.7-0.2,2.3-0.8s0.9-1.2,0.9-1.9c0-0.9-0.4-1.7-1.1-2.3c-0.7-0.6-1.9-1.3-3.3-1.9c-0.8-0.3-1.5-0.6-2.3-1.1
		c-0.7-0.4-1.5-0.9-2-1.5c-0.6-0.6-1.1-1.2-1.4-1.9c-0.3-0.7-0.6-1.6-0.6-2.6c0-0.7,0.2-1.5,0.5-2.3c0.3-0.8,0.7-1.5,1.4-2.1
		c0.6-0.6,1.4-1.1,2.3-1.5c1-0.4,2-0.6,3.3-0.5c0.8,0.1,1.6,0.2,2.4,0.3c0.7,0.2,1.5,0.4,2,0.6c0.6,0.2,1.1,0.5,1.5,0.7
		c0.4,0.2,0.7,0.4,0.9,0.6c0.2,0.1,0.2,0.2,0.2,0.4c0,0.2,0,0.3-0.1,0.5c-0.2,0.3-0.4,0.6-0.6,1c-0.2,0.3-0.5,0.6-0.6,1
		c-0.1,0.2-0.2,0.3-0.4,0.4c-0.2,0.1-0.3,0.1-0.5,0c-0.1-0.1-0.2-0.2-0.6-0.4c-0.3-0.2-0.8-0.4-1.3-0.6c-0.5-0.2-1.1-0.4-1.6-0.6
		c-0.6-0.2-1.1-0.2-1.5-0.2s-1,0.1-1.4,0.2c-0.4,0.2-0.7,0.3-1,0.6c-0.2,0.2-0.5,0.5-0.6,0.8c-0.2,0.3-0.2,0.6-0.2,0.9
		c0,0.8,0.3,1.5,1.1,2.1c0.6,0.6,1.7,1.2,3.1,1.9c0.8,0.4,1.6,0.8,2.4,1.2c0.8,0.4,1.5,1,2.3,1.5c0.6,0.6,1.2,1.2,1.6,2
		c0.4,0.7,0.6,1.7,0.6,2.7c0,0.8-0.2,1.7-0.6,2.5c-0.3,0.8-0.9,1.5-1.5,2.2s-1.5,1.1-2.3,1.5c-1,0.3-2,0.5-3.2,0.4
		c-1.1-0.1-2-0.2-2.9-0.4c-0.9-0.2-1.7-0.5-2.3-0.8s-1.2-0.6-1.7-0.9C26.6,59.6,26.4,59.5,26.2,59.3L26.2,59.3z"/>
	<path class="st0" d="M61.5,38.6c0.1,0.1,0.2,0.2,0.2,0.3v2.8c0,0.1-0.1,0.2-0.2,0.3s-0.2,0.2-0.3,0.2H55c-0.2,0-0.2,0.1-0.2,0.2
		v18.9c0,0.1-0.1,0.2-0.2,0.3c-0.1,0.1-0.2,0.2-0.3,0.2h-3.1c-0.1,0-0.2-0.1-0.3-0.2s-0.2-0.2-0.2-0.3V42.4c0-0.2-0.1-0.2-0.2-0.2
		h-6.2c-0.2,0-0.2-0.1-0.3-0.2C44.1,42,44,41.8,44,41.7V39c0-0.1,0.1-0.2,0.2-0.3c0.1-0.1,0.2-0.2,0.3-0.2h16.8
		C61.3,38.4,61.4,38.5,61.5,38.6z"/>
	<path class="st0" d="M84.9,42.9c0.1-0.1,0.2-0.2,0.4-0.3c0.2-0.2,0.3-0.1,0.6,0.1c0.3,0.2,0.6,0.6,1,1.2c0.3,0.6,0.6,1.2,0.8,1.9
		c0.2,0.7,0.5,1.5,0.6,2.2c0.2,0.8,0.2,1.5,0.2,2.3c0,1.7-0.3,3.2-1,4.7c-0.6,1.5-1.5,2.8-2.6,3.8c-1.1,1.1-2.3,1.9-3.8,2.5
		c-1.5,0.6-3,1-4.7,1c-1.7,0-3.2-0.3-4.7-1c-1.5-0.6-2.8-1.5-3.8-2.5c-1.1-1.1-1.9-2.3-2.5-3.8c-0.6-1.5-1-3-1-4.7s0.3-3.2,1-4.7
		c0.6-1.5,1.5-2.8,2.5-3.8c1.1-1.1,2.3-1.9,3.8-2.6c1.5-0.6,3-1,4.7-1c1.9,0,3.6,0.4,5.3,1.2c0.3,0.2,0.4,0.5,0.2,0.8
		c-0.1,0.1-0.2,0.2-0.2,0.5c-0.2,0.2-0.2,0.5-0.4,0.8c-0.2,0.2-0.3,0.6-0.5,0.8c-0.2,0.2-0.2,0.4-0.2,0.5c-0.1,0.2-0.2,0.2-0.4,0.2
		s-0.4,0-0.6-0.1c-1-0.4-2-0.6-3.2-0.6c-1.1,0-2.1,0.2-3.1,0.6c-1,0.4-1.8,1-2.5,1.7c-0.7,0.7-1.3,1.5-1.7,2.5c-0.4,1-0.6,2-0.6,3.1
		s0.2,2.1,0.6,3.1c0.4,1,1,1.8,1.7,2.5c0.7,0.7,1.5,1.3,2.5,1.7c1,0.4,1.9,0.6,3.1,0.6c1.1,0,2.1-0.2,3.1-0.6s1.8-1,2.5-1.7
		c0.7-0.7,1.3-1.5,1.7-2.5s0.6-1.9,0.6-3.1c0-0.4-0.1-0.9-0.2-1.3c-0.1-0.5-0.2-0.9-0.3-1.3c-0.2-0.4-0.3-0.8-0.5-1.1
		s-0.3-0.6-0.6-0.8c-0.1-0.1-0.2-0.2-0.2-0.3c0-0.2,0-0.2,0-0.3c0.1-0.1,0.1-0.2,0.2-0.2c0.3-0.3,0.6-0.6,0.9-0.8
		c0.2-0.2,0.4-0.4,0.6-0.6C84.6,43,84.8,43,84.9,42.9z"/>
	<path class="st0" d="M90.9,50.2c0-1.7,0.3-3.2,1-4.7c0.6-1.5,1.5-2.8,2.6-3.8c1.1-1.1,2.3-1.9,3.8-2.6c1.5-0.6,3-1,4.7-1
		c1.7,0,3.2,0.2,4.5,0.8c1.3,0.5,2.5,1.3,3.6,2.3c0.2,0.2,0.2,0.5,0,0.7l-2,2.1c-0.2,0.2-0.4,0.2-0.6,0c-0.7-0.6-1.5-1.1-2.5-1.5
		c-0.9-0.3-1.9-0.5-2.8-0.5c-1.1,0-2.1,0.2-3.1,0.6c-1,0.4-1.8,1-2.4,1.7c-0.6,0.7-1.2,1.6-1.6,2.6s-0.6,2-0.6,3.1s0.2,2.1,0.6,3.1
		s0.9,1.8,1.6,2.5c0.6,0.7,1.5,1.3,2.4,1.7c1,0.4,1.9,0.6,3.1,0.6c1.1,0,2-0.2,2.9-0.6c0.9-0.3,1.7-0.8,2.4-1.4
		c0.1-0.1,0.2-0.2,0.3-0.2c0.1,0,0.2,0.1,0.2,0.2l0,0l2.1,2.2c0.1,0.1,0.2,0.2,0.1,0.3c0,0.2-0.1,0.2-0.2,0.3l0,0
		c-1.1,1.1-2.4,1.9-3.8,2.4c-1.4,0.5-2.8,0.8-4.4,0.8c-1.7,0-3.2-0.3-4.7-1c-1.5-0.6-2.8-1.5-3.8-2.5s-1.9-2.3-2.6-3.8
		C91.3,53.3,90.9,51.8,90.9,50.2z"/>
	<path class="st0" d="M115.8,39.1c0-0.2,0.1-0.3,0.2-0.5c0.2-0.2,0.2-0.2,0.5-0.2h2.9c0.2,0,0.3,0.1,0.5,0.2
		c0.2,0.2,0.2,0.2,0.2,0.5v8.6c0,0.2,0.1,0.3,0.2,0.4c0.2,0.1,0.2,0,0.4-0.1l8.1-9.1l0,0c0.2-0.2,0.3-0.2,0.6-0.2h3.4
		c0.2,0,0.4,0.1,0.5,0.3c0.1,0.2,0.1,0.4-0.1,0.6l-8.4,9.5c-0.2,0.2-0.3,0.4-0.3,0.6c0,0.2,0.1,0.3,0.2,0.5c0.1,0.1,0.3,0.4,0.7,0.9
		c0.5,0.6,1,1.2,1.6,2c0.6,0.8,1.4,1.6,2.1,2.5s1.5,1.8,2.1,2.5c0.6,0.8,1.2,1.5,1.7,2c0.5,0.6,0.7,0.9,0.8,1c0.1,0.2,0.2,0.4,0,0.6
		c-0.1,0.2-0.2,0.3-0.5,0.3h-3.6c-0.2,0-0.4-0.1-0.5-0.2l-1.1-1.3c-0.2-0.3-0.6-0.7-1.1-1.2c-0.4-0.5-0.9-1.1-1.5-1.9
		c-0.6-0.7-1.3-1.6-2.1-2.6s-1.7-2.1-2.8-3.5c-0.1-0.2-0.2-0.2-0.4-0.2c-0.2,0.1-0.2,0.2-0.2,0.4v9.7c0,0.2-0.1,0.3-0.2,0.5
		c-0.2,0.2-0.3,0.2-0.5,0.2h-2.9c-0.2,0-0.3-0.1-0.5-0.2c-0.2-0.2-0.2-0.2-0.2-0.5C115.8,61.3,115.8,39.1,115.8,39.1z"/>
	<path class="st0" d="M145.9,52.4c-0.2,0-0.4-0.2-0.5-0.5c-0.2-0.7-0.2-1.4-0.1-1.9c0.1-0.6,0.2-1.1,0.5-1.5
		c0.2-0.4,0.5-0.8,0.8-1.1s0.6-0.6,1-0.8c0.6-0.5,1.1-1,1.5-1.5c0.4-0.5,0.6-1,0.6-1.6c0-0.6-0.2-1.2-0.7-1.7
		c-0.5-0.4-1.2-0.7-2.2-0.7c-0.8-0.1-1.5,0.1-2,0.4s-1,0.6-1.3,1l-0.5,0.4c-0.1,0.1-0.2,0.1-0.3,0.1s-0.2,0-0.2-0.1l-1.6-1.5
		c-0.2-0.2-0.2-0.4-0.1-0.6c0.5-0.6,1.1-1.1,1.7-1.5c0.6-0.4,1.3-0.7,2.1-1.1c0.8-0.3,1.8-0.5,2.8-0.5c0.9,0,1.7,0.2,2.5,0.4
		c0.8,0.2,1.5,0.6,2,1.1s1.1,1.1,1.4,1.8c0.3,0.6,0.5,1.5,0.5,2.3c0,0.6-0.1,1.1-0.3,1.6c-0.2,0.5-0.5,0.9-0.7,1.3
		c-0.3,0.4-0.6,0.7-1.1,1.1c-0.4,0.3-0.7,0.6-1.1,0.9c-0.2,0.2-0.6,0.4-0.8,0.6c-0.2,0.2-0.6,0.4-0.7,0.6c-0.2,0.2-0.4,0.6-0.6,1
		c-0.2,0.4-0.2,0.9-0.2,1.5c0,0.3-0.2,0.6-0.6,0.6H145.9z M144.8,59.5c0-0.3,0.1-0.7,0.2-1.1c0.2-0.3,0.3-0.6,0.6-0.8
		c0.2-0.2,0.5-0.4,0.8-0.6c0.3-0.2,0.6-0.2,1.1-0.2c0.3,0,0.7,0.1,1.1,0.2c0.3,0.2,0.6,0.3,0.8,0.6c0.2,0.2,0.4,0.6,0.6,0.8
		c0.2,0.3,0.2,0.6,0.2,1.1c0,0.7-0.2,1.3-0.8,1.9c-0.5,0.5-1.1,0.8-1.9,0.8s-1.3-0.2-1.9-0.8S144.8,60.1,144.8,59.5z"/>
</g>
</svg>
