<svg id="Layer_1" data-name="Layer 1" xmlns="http://www.w3.org/2000/svg" viewBox="0 0 311.81 170.08"><defs><style>.cls-1{fill:none;}.cls-2{fill:#fff;}</style></defs><title>sale</title><rect class="cls-1" width="311.81" height="170.08"/><path class="cls-2" d="M14.17,78.7V37.56H42.38v7H22.48v9.73H39.65v7H22.48V78.7Z"/><path class="cls-2" d="M47.54,58.38a26.21,26.21,0,0,1,1.88-10.55,19.28,19.28,0,0,1,3.83-5.64,16,16,0,0,1,5.32-3.71,22.68,22.68,0,0,1,8.87-1.62q9.09,0,14.55,5.64t5.46,15.68q0,10-5.42,15.59T67.55,79.4q-9.18,0-14.59-5.6T47.54,58.38Zm8.56-.28q0,7,3.23,10.59a11.08,11.08,0,0,0,16.34,0Q78.86,65.13,78.86,58t-3.1-10.56A10.53,10.53,0,0,0,67.52,44a10.57,10.57,0,0,0-8.28,3.52C57.15,49.82,56.1,53.37,56.1,58.1Z"/><path class="cls-2" d="M94,78.7V37.56h17.48q6.6,0,9.58,1.1a9.46,9.46,0,0,1,4.79,4,11.91,11.91,0,0,1,1.79,6.48,11,11,0,0,1-2.72,7.65c-1.81,2-4.53,3.28-8.14,3.8A19.48,19.48,0,0,1,121.19,64a46.92,46.92,0,0,1,4.73,6.68l5,8H121l-6-9a59.3,59.3,0,0,0-4.37-6,6.23,6.23,0,0,0-2.5-1.71,13.63,13.63,0,0,0-4.18-.47h-1.69V78.7ZM102.26,55h6.15q6,0,7.46-.51a4.51,4.51,0,0,0,2.33-1.74,5.36,5.36,0,0,0,.84-3.09,5,5,0,0,0-1.1-3.35,5.09,5.09,0,0,0-3.13-1.61c-.68-.1-2.7-.14-6.06-.14h-6.49Z"/><path class="cls-2" d="M149.3,65.31l8.08-.78a9.84,9.84,0,0,0,3,6,9,9,0,0,0,6,1.91c2.67,0,4.69-.56,6-1.7a5.05,5.05,0,0,0,2-4,3.73,3.73,0,0,0-.85-2.48,6.89,6.89,0,0,0-3-1.78c-1-.34-3.19-.94-6.65-1.8q-6.69-1.65-9.38-4.07a10.72,10.72,0,0,1-3.79-8.28,10.6,10.6,0,0,1,1.79-5.88,11.12,11.12,0,0,1,5.13-4.16,20.52,20.52,0,0,1,8.1-1.43q7.74,0,11.66,3.39a12,12,0,0,1,4.11,9.06l-8.31.37A7.09,7.09,0,0,0,171,45.12a8.37,8.37,0,0,0-5.27-1.39A9.52,9.52,0,0,0,160,45.22a3,3,0,0,0-1.31,2.55,3.17,3.17,0,0,0,1.23,2.5q1.57,1.32,7.63,2.75a40.18,40.18,0,0,1,9,3,11.56,11.56,0,0,1,4.55,4.18,12.27,12.27,0,0,1,1.64,6.55,12.14,12.14,0,0,1-2,6.63,11.82,11.82,0,0,1-5.55,4.59,23.36,23.36,0,0,1-9,1.5q-7.8,0-12-3.61T149.3,65.31Z"/><path class="cls-2" d="M226.83,78.7h-9l-3.59-9.35H197.76l-3.39,9.35h-8.82l16-41.14h8.78ZM211.54,62.42l-5.67-15.27-5.55,15.27Z"/><path class="cls-2" d="M231.46,78.7V37.89h8.31V71.77h20.66V78.7Z"/><path class="cls-2" d="M266.35,78.7V37.56h30.5v7h-22.2v9.12h20.66v6.93H274.65v11.2h23V78.7Z"/><path class="cls-2" d="M15.06,121.68l8.6-1a6.19,6.19,0,0,0,1.65,3.89,4.88,4.88,0,0,0,3.51,1.27,5.74,5.74,0,0,0,4.68-2.54q1.94-2.52,2.47-10.5a10.6,10.6,0,0,1-8.39,3.89,12.52,12.52,0,0,1-9.44-4.22,15.42,15.42,0,0,1-4-11q0-7.05,4.19-11.37A14.26,14.26,0,0,1,29,85.84,14.38,14.38,0,0,1,40.62,91.3q4.52,5.46,4.52,18,0,12.7-4.71,18.34a15.25,15.25,0,0,1-12.28,5.63,13,13,0,0,1-8.79-2.89Q16,127.44,15.06,121.68Zm20.12-19.42a10.16,10.16,0,0,0-2-6.68,5.84,5.84,0,0,0-4.57-2.37,5.12,5.12,0,0,0-4.1,2c-1.08,1.29-1.63,3.42-1.63,6.37s.59,5.19,1.77,6.6a5.58,5.58,0,0,0,4.43,2.1,5.5,5.5,0,0,0,4.32-2C34.59,106.86,35.18,104.87,35.18,102.26Z"/><path class="cls-2" d="M51.09,121.68l8.6-1a6.24,6.24,0,0,0,1.64,3.89,4.91,4.91,0,0,0,3.51,1.27,5.74,5.74,0,0,0,4.69-2.54q1.92-2.52,2.46-10.5a10.58,10.58,0,0,1-8.38,3.89,12.51,12.51,0,0,1-9.44-4.22,15.37,15.37,0,0,1-4-11q0-7.05,4.19-11.37a14.23,14.23,0,0,1,10.68-4.32A14.35,14.35,0,0,1,76.64,91.3q4.53,5.46,4.52,18,0,12.7-4.71,18.34a15.22,15.22,0,0,1-12.27,5.63,13,13,0,0,1-8.79-2.89Q52,127.44,51.09,121.68ZM71.2,102.26a10.16,10.16,0,0,0-2-6.68,5.82,5.82,0,0,0-4.57-2.37,5.1,5.1,0,0,0-4.09,2c-1.09,1.29-1.63,3.42-1.63,6.37s.59,5.19,1.77,6.6a5.56,5.56,0,0,0,4.43,2.1,5.5,5.5,0,0,0,4.32-2C70.62,106.86,71.2,104.87,71.2,102.26Z"/><path class="cls-2" d="M116.16,85.84a12.69,12.69,0,0,1,10.54,4.81q4.52,5.7,4.52,18.88t-4.56,18.92q-3.75,4.74-10.5,4.74a13.26,13.26,0,0,1-10.91-5.2q-4.14-5.2-4.14-18.55,0-13.09,4.55-18.85Q109.43,85.84,116.16,85.84Zm0,7.37a4.45,4.45,0,0,0-2.87,1,6.9,6.9,0,0,0-2,3.69q-.91,3.43-.91,11.6t.82,11.22a7.9,7.9,0,0,0,2.07,4.06,4.55,4.55,0,0,0,5.74,0,6.8,6.8,0,0,0,2-3.68q.91-3.42.92-11.58t-.82-11.21A8.07,8.07,0,0,0,119,94.24,4.43,4.43,0,0,0,116.16,93.21Z"/><path class="cls-2" d="M149.45,85.84A12.68,12.68,0,0,1,160,90.65q4.53,5.7,4.52,18.88T160,128.45q-3.76,4.74-10.5,4.74a13.25,13.25,0,0,1-10.91-5.2q-4.15-5.2-4.15-18.55,0-13.09,4.56-18.85Q142.72,85.84,149.45,85.84Zm0,7.37a4.46,4.46,0,0,0-2.88,1,6.9,6.9,0,0,0-2,3.69q-.92,3.43-.92,11.6t.82,11.22a7.9,7.9,0,0,0,2.07,4.06,4.56,4.56,0,0,0,5.75,0,6.93,6.93,0,0,0,2-3.68q.92-3.42.91-11.58t-.82-11.21a8.07,8.07,0,0,0-2.07-4.08A4.41,4.41,0,0,0,149.45,93.21Z"/><path class="cls-2" d="M182.73,85.84a12.68,12.68,0,0,1,10.53,4.81q4.53,5.7,4.53,18.88t-4.56,18.92q-3.76,4.74-10.5,4.74a13.26,13.26,0,0,1-10.91-5.2q-4.14-5.2-4.14-18.55,0-13.09,4.55-18.85Q176,85.84,182.73,85.84Zm0,7.37a4.5,4.5,0,0,0-2.88,1,7,7,0,0,0-2,3.69q-.91,3.43-.92,11.6t.83,11.22a7.9,7.9,0,0,0,2.07,4.06,4.55,4.55,0,0,0,5.74,0,6.86,6.86,0,0,0,2-3.68q.92-3.42.92-11.58t-.82-11.21a8,8,0,0,0-2.08-4.08A4.39,4.39,0,0,0,182.73,93.21Z"/><path class="cls-2" d="M216,85.84a12.69,12.69,0,0,1,10.54,4.81q4.51,5.7,4.52,18.88t-4.55,18.92q-3.77,4.74-10.51,4.74A13.26,13.26,0,0,1,205.1,128q-4.14-5.2-4.14-18.55,0-13.09,4.55-18.85Q209.28,85.84,216,85.84Zm0,7.37a4.45,4.45,0,0,0-2.87,1,6.83,6.83,0,0,0-2,3.69q-.93,3.43-.92,11.6t.82,11.22a7.9,7.9,0,0,0,2.07,4.06,4.55,4.55,0,0,0,5.74,0,6.8,6.8,0,0,0,2-3.68q.93-3.42.92-11.58T221,98.32a8.07,8.07,0,0,0-2.07-4.08A4.43,4.43,0,0,0,216,93.21Z"/><path class="cls-2" d="M249.3,85.84a12.68,12.68,0,0,1,10.53,4.81q4.53,5.7,4.52,18.88t-4.55,18.92q-3.76,4.74-10.5,4.74a13.26,13.26,0,0,1-10.91-5.2q-4.15-5.2-4.15-18.55,0-13.09,4.56-18.85Q242.57,85.84,249.3,85.84Zm0,7.37a4.46,4.46,0,0,0-2.88,1,6.9,6.9,0,0,0-2,3.69q-.92,3.43-.92,11.6t.82,11.22c.55,2,1.24,3.39,2.08,4.06a4.37,4.37,0,0,0,2.86,1,4.44,4.44,0,0,0,2.88-1,6.93,6.93,0,0,0,2-3.68q.92-3.42.91-11.58t-.82-11.21a8.07,8.07,0,0,0-2.07-4.08A4.41,4.41,0,0,0,249.3,93.21Z"/><path class="cls-2" d="M282.58,85.84a12.68,12.68,0,0,1,10.53,4.81q4.53,5.7,4.53,18.88t-4.56,18.92q-3.76,4.74-10.5,4.74a13.26,13.26,0,0,1-10.91-5.2q-4.14-5.2-4.14-18.55,0-13.09,4.55-18.85Q275.84,85.84,282.58,85.84Zm0,7.37a4.5,4.5,0,0,0-2.88,1,7,7,0,0,0-2,3.69q-.92,3.43-.91,11.6t.82,11.22a7.9,7.9,0,0,0,2.07,4.06,4.55,4.55,0,0,0,5.74,0,6.86,6.86,0,0,0,2-3.68q.91-3.42.92-11.58t-.82-11.21a8,8,0,0,0-2.08-4.08A4.39,4.39,0,0,0,282.58,93.21Z"/></svg>