<?xml version="1.0" encoding="utf-8"?>
<!-- Generator: Adobe Illustrator 23.0.1, SVG Export Plug-In . SVG Version: 6.00 Build 0)  -->
<svg version="1.1" id="Layer_1" xmlns="http://www.w3.org/2000/svg" xmlns:xlink="http://www.w3.org/1999/xlink" x="0px" y="0px"
	 viewBox="0 0 192.8 84.5" style="enable-background:new 0 0 192.8 84.5;" xml:space="preserve">
<style type="text/css">
	.st0{fill-rule:evenodd;clip-rule:evenodd;fill:none;}
	.st1{fill-rule:evenodd;clip-rule:evenodd;fill:#FFFFFF;}
</style>
<g>
	<polygon class="st0" points="0,0 192.8,0 192.8,84.5 0,84.5 0,0 	"/>
	<path class="st1" d="M21,42.3h5.2l0,0c7.7,0.2,20.8,4.2,13.4,9.6l0,0h23.8l0,0c0-3-3.7-8.5-13.1-9.9c9.4-1.5,13.1-6.8,13.1-9.8l0,0
		H39.6l0,0c6.2,5.8-8.5,9.3-13.4,9.4l0,0H21v-9.4H2.8V52H21V42.3L21,42.3L21,42.3z"/>
	<path class="st1" d="M146.1,49.3c0.9,0,2.1-0.3,2.1-1.3c-0.1-2.8-8.7-0.4-8.7-5.8c0-3.3,3.4-4.4,6.4-4.4c3.1,0,6.6,0.4,7,4.1l0,0
		h-4.9l0,0c-0.1-0.5-0.2-0.8-0.5-1c-0.3-0.2-0.8-0.3-1.3-0.3c-1,0-1.6,0.3-1.6,1c0,2,8.7-0.1,8.7,5.9c0,2.8-2.2,4.8-7.3,4.8
		c-3,0-6.4-1-6.4-4.9l0,0h4.6l0,0C144.2,48.2,144.7,49.2,146.1,49.3L146.1,49.3L146.1,49.3L146.1,49.3z"/>
	<polygon class="st1" points="184.7,52 184.7,38.4 189.9,38.4 189.9,52 184.7,52 184.7,52 	"/>
	<polygon class="st1" points="184.7,32.8 189.9,32.8 189.9,36.3 184.7,36.3 184.7,32.8 184.7,32.8 	"/>
	<polygon class="st1" points="113.9,45.3 115.9,51.9 121,51.9 125.7,38.1 120.3,38.1 118.1,45.2 118.2,45.2 116.1,38.1 111.5,38.1 
		109.4,45.2 109.3,45.2 107.2,38.1 101.7,38.1 106.4,51.9 111.9,51.9 113.9,45.3 113.9,45.3 	"/>
	<polygon class="st1" points="69.6,32.8 69.6,51.9 75.1,51.9 75.1,46.3 77,44.3 82,51.9 88.8,51.9 81.1,40.3 88,32.8 80.8,32.8 
		75.1,38.7 75.1,32.8 69.6,32.8 69.6,32.8 	"/>
	<polygon class="st1" points="174.5,48.2 174.5,52.1 169.1,52.1 169.1,32.7 174.5,32.7 174.5,42.2 177.8,38.4 183.5,38.4 
		178.9,43.5 184.2,52.1 178.4,52.1 175.5,47.4 174.5,48.2 174.5,48.2 	"/>
	<path class="st1" d="M102.3,50v-6.6l0,0c0-3.1-1.1-5.5-6.7-5.4c-5,0-6.8,1.8-7.1,4.7l0,0h4.8l0,0c0.3-1.5,1.7-1.7,2.4-1.7
		c0.6,0,1.7,0.1,1.7,1.2c0,2.6-9.3,0.8-9.4,6c0,2.9,1.9,4.1,4.6,4.1c2.1,0,3.4-0.3,4.9-1.3l0,0l0.6,1h4.4v-0.2l0,0
		C102.3,51.4,102.3,50.6,102.3,50L102.3,50L102.3,50L102.3,50z M95,49.2c-1.1,0.1-1.9-0.3-1.9-1l0,0v0l0,0c0-1.8,2.3-1.6,4.1-2.5
		C97.3,47.6,96.8,49,95,49.2L95,49.2L95,49.2L95,49.2z"/>
	<path class="st1" d="M168.2,50v-6.6l0,0c0-3.1-1.1-5.5-6.7-5.4c-5,0-6.8,1.8-7.1,4.7l0,0h4.8l0,0c0.3-1.5,1.7-1.7,2.4-1.7
		c0.6,0,1.7,0.1,1.7,1.2c0,2.6-9.3,0.8-9.4,6c0,2.9,1.9,4.1,4.6,4.1c2.1,0,3.4-0.3,4.9-1.3l0,0l0.6,1h4.4v-0.2l0,0
		C168.2,51.4,168.2,50.6,168.2,50L168.2,50L168.2,50L168.2,50z M160.8,49.2c-1.1,0.1-1.9-0.3-1.9-1l0,0v0l0,0c0-1.8,2.3-1.6,4.1-2.5
		C163.1,47.6,162.7,49,160.8,49.2L160.8,49.2L160.8,49.2L160.8,49.2z"/>
	<path class="st1" d="M138.8,50v-6.6l0,0c0-3.1-1.1-5.5-6.7-5.4c-5,0-6.8,1.8-7.1,4.7l0,0h4.8l0,0c0.3-1.5,1.7-1.7,2.4-1.7
		c0.6,0,1.7,0.1,1.7,1.2c0,2.6-9.3,0.8-9.4,6c0,2.9,1.9,4.1,4.6,4.1c2.1,0,3.4-0.3,4.9-1.3l0,0l0.6,1h4.4v-0.2l0,0
		C138.8,51.4,138.8,50.6,138.8,50L138.8,50L138.8,50L138.8,50z M131.4,49.2c-1.1,0.1-1.9-0.3-1.9-1l0,0v0l0,0c0-1.8,2.3-1.6,4.1-2.5
		C133.7,47.6,133.3,49,131.4,49.2L131.4,49.2L131.4,49.2L131.4,49.2z"/>
</g>
</svg>
