<?xml version="1.0" encoding="utf-8"?>
<!-- Generator: Adobe Illustrator 23.0.1, SVG Export Plug-In . SVG Version: 6.00 Build 0)  -->
<svg version="1.1" id="Layer_1" xmlns="http://www.w3.org/2000/svg" xmlns:xlink="http://www.w3.org/1999/xlink" x="0px" y="0px"
	 viewBox="0 0 1920 1080" style="enable-background:new 0 0 1920 1080;" xml:space="preserve">
<style type="text/css">
	.st0{fill:#0A0A0A;}
	.st1{fill:#0046E1;stroke:#0A0A0A;stroke-width:1.1381;stroke-miterlimit:10;}
	.st2{fill:#FFFFFF;}
	.st3{fill:#00E100;stroke:#0A0A0A;stroke-width:1.1381;stroke-miterlimit:10;}
	.st4{fill:#E10000;stroke:#0A0A0A;stroke-width:1.1381;stroke-miterlimit:10;}
	.st5{clip-path:url(#SVGID_2_);fill:url(#SVGID_3_);}
	.st6{clip-path:url(#SVGID_5_);fill:url(#SVGID_6_);}
</style>
<g>
	<rect y="-1" class="st0" width="1920" height="1080"/>
</g>
<g>
	<g>
		<g>
			<g>
				<polygon class="st1" points="462.9,432 462.9,327 371.9,274.4 84,386 84,491.1 175,543.6 				"/>
				<polyline class="st1" points="175.3,437.8 175.3,543.5 463.2,432.5 463.2,327.4 459.6,325.3 372.2,274.9 84.3,386.5 
					175.3,437.8 463.2,327.4 				"/>
			</g>
			<g>
				<path class="st2" d="M208.3,468l5.8-2.3c1.5-0.6,2.8-0.9,3.9-0.9s2,0.4,2.9,1.1c2.2,2,3.3,5.9,3.1,11.8c0,1.9-0.2,3.8-0.5,5.4
					c-0.3,1.7-0.7,3.3-1.2,4.8c-0.5,1.5-1.2,2.9-1.9,4.2c-0.6,1-1.3,1.9-2,2.6c-0.7,0.8-1.5,1.4-2.3,1.9c-0.8,0.5-1.7,1-2.7,1.4
					l-5.8,2.3c-0.8,0.3-1.4,0.4-1.8,0.2c-0.4-0.2-0.7-0.6-0.8-1.2c-0.1-0.6-0.2-1.4-0.1-2.5l0.5-23.7c0-1.4,0.3-2.5,0.7-3.3
					C206.7,469,207.4,468.4,208.3,468z M209.9,472.5l-0.5,21.9l3.4-1.4c0.7-0.3,1.3-0.6,1.7-0.8c0.4-0.2,0.9-0.5,1.3-1
					c0.5-0.4,0.9-0.9,1.2-1.5c1.5-2.4,2.3-5.9,2.4-10.5c0.1-3.2-0.2-5.4-0.8-6.8c-0.6-1.3-1.4-2-2.4-2.1c-1,0-2.1,0.2-3.5,0.7
					L209.9,472.5z"/>
				<path class="st2" d="M227.9,488.8l0.6-25.4c0-1.3,0.3-2.4,0.7-3.2c0.4-0.8,1-1.4,1.6-1.6c0.7-0.3,1.2-0.2,1.6,0.3
					c0.4,0.5,0.6,1.4,0.6,2.7l-0.6,25.4c0,1.3-0.3,2.4-0.7,3.2c-0.4,0.8-1,1.4-1.7,1.6c-0.6,0.3-1.2,0.1-1.6-0.4
					C228,491,227.9,490.1,227.9,488.8z"/>
				<path class="st2" d="M257.7,467.3l-0.1,6.2c0,0.8-0.1,1.5-0.2,2c-0.1,0.5-0.3,1.1-0.6,1.6s-0.7,1-1.2,1.6
					c-1.4,1.6-2.7,2.9-3.9,3.9c-1.2,1-2.6,1.8-4,2.3c-1.7,0.7-3.2,0.9-4.6,0.7c-1.4-0.2-2.5-0.8-3.5-1.9s-1.7-2.5-2.1-4.4
					c-0.5-1.9-0.7-4.1-0.6-6.6c0.1-2.5,0.4-4.9,0.9-7.2s1.3-4.4,2.4-6.2c1-1.9,2.3-3.4,3.7-4.8c1.4-1.3,3.1-2.4,4.9-3.1
					c1.5-0.6,2.8-0.8,3.9-0.7c1.1,0.1,2,0.5,2.7,1.1c0.7,0.6,1.2,1.3,1.5,2.2c0.3,0.8,0.5,1.6,0.5,2.4c0,0.8-0.2,1.6-0.7,2.4
					c-0.4,0.7-0.9,1.2-1.5,1.5c-0.3,0.1-0.6,0.1-0.9,0c-0.3-0.1-0.5-0.3-0.7-0.6c-0.5-1-1-1.8-1.3-2.3c-0.4-0.5-0.9-0.8-1.5-1
					s-1.5-0.1-2.5,0.3c-1,0.4-2,1-2.8,1.9s-1.5,1.9-2.1,3.1c-0.6,1.2-1.1,2.6-1.4,4.2c-0.3,1.6-0.5,3.2-0.6,5
					c-0.1,3.8,0.4,6.5,1.6,8c1.1,1.6,2.8,1.9,4.9,1.1c1-0.4,2-1,2.9-1.8c0.9-0.8,1.8-1.7,2.8-2.8l0.1-5.2l-3.5,1.4
					c-0.8,0.3-1.5,0.4-1.9,0.2c-0.4-0.2-0.6-0.7-0.6-1.6c0-0.7,0.2-1.4,0.6-2c0.4-0.6,0.9-1,1.5-1.3l5.1-2c0.6-0.2,1.1-0.4,1.6-0.4
					c0.4,0,0.8,0.2,1,0.7C257.6,465.4,257.7,466.1,257.7,467.3z"/>
				<path class="st2" d="M261.9,475.2l0.6-25.4c0-1.3,0.3-2.4,0.7-3.2c0.4-0.8,1-1.4,1.6-1.6c0.7-0.3,1.2-0.2,1.6,0.3
					s0.6,1.4,0.6,2.7l-0.6,25.4c0,1.3-0.3,2.4-0.7,3.2c-0.4,0.8-1,1.4-1.7,1.6c-0.6,0.3-1.2,0.1-1.6-0.4
					C262,477.4,261.8,476.5,261.9,475.2z"/>
				<path class="st2" d="M286.1,442.2l-4.9,1.9l-0.5,23.5c0,1.4-0.3,2.4-0.7,3.3c-0.4,0.8-1,1.4-1.6,1.6c-0.7,0.3-1.2,0.1-1.6-0.3
					c-0.4-0.5-0.6-1.4-0.6-2.7l0.5-23.5l-4.9,1.9c-0.8,0.3-1.3,0.3-1.7-0.1c-0.4-0.3-0.5-0.9-0.5-1.7c0-0.8,0.2-1.6,0.6-2.2
					c0.4-0.6,1-1.1,1.7-1.4l14.2-5.7c0.8-0.3,1.3-0.3,1.7,0.1c0.4,0.3,0.5,0.9,0.5,1.7s-0.2,1.5-0.6,2.2
					C287.5,441.4,286.9,441.9,286.1,442.2z"/>
				<path class="st2" d="M302.7,458.6l-1-3.6l-9,3.6l-1.1,4.6c-0.4,1.8-0.8,3-1.1,3.7c-0.3,0.7-0.8,1.2-1.4,1.4
					c-0.6,0.2-1,0.1-1.5-0.3c-0.4-0.4-0.6-1-0.6-1.8c0-0.4,0.1-0.9,0.2-1.4c0.1-0.5,0.3-1.2,0.5-2.2l6.1-23.2
					c0.2-0.7,0.4-1.5,0.6-2.4c0.2-0.9,0.5-1.7,0.8-2.4c0.3-0.7,0.6-1.2,1-1.8c0.4-0.5,0.9-0.9,1.6-1.1c0.6-0.2,1.1-0.3,1.5-0.1
					c0.4,0.2,0.7,0.5,1,0.9s0.4,0.9,0.6,1.5c0.2,0.6,0.4,1.3,0.6,2.2l5.3,18.5c0.4,1.4,0.6,2.5,0.6,3.2c0,0.7-0.2,1.5-0.7,2.3
					s-1,1.3-1.6,1.6c-0.4,0.1-0.6,0.2-0.9,0.1s-0.5-0.2-0.6-0.5c-0.2-0.2-0.3-0.7-0.5-1.2C303,459.6,302.8,459.1,302.7,458.6z
					 M294.1,453.2l6.6-2.6l-3-12L294.1,453.2z"/>
				<path class="st2" d="M315.7,428.5l-0.5,23.5l9-3.6c0.7-0.3,1.3-0.3,1.6,0.1c0.4,0.4,0.6,0.9,0.5,1.7c0,0.8-0.2,1.5-0.6,2.2
					c-0.4,0.6-1,1.1-1.7,1.4l-10.8,4.3c-1,0.4-1.7,0.4-2.1-0.1c-0.4-0.5-0.6-1.4-0.6-2.8l0.6-24.9c0-1.3,0.3-2.4,0.7-3.2
					s1-1.4,1.6-1.6c0.7-0.3,1.2-0.2,1.6,0.3C315.5,426.2,315.7,427.1,315.7,428.5z"/>
				<path class="st2" d="M345.7,432.6l-4.1,1.6l-0.2,9.1c0,1.3-0.3,2.4-0.7,3.2s-1,1.4-1.6,1.6c-0.7,0.3-1.2,0.2-1.6-0.4
					s-0.6-1.4-0.6-2.7l0.6-24.9c0-1.4,0.3-2.6,0.7-3.4s1.2-1.4,2.2-1.8l5.7-2.3c1.7-0.7,3-1,3.9-1c0.9,0,1.7,0.3,2.3,0.9
					c0.6,0.6,1.1,1.4,1.4,2.5c0.3,1.1,0.5,2.4,0.4,4c-0.1,3.3-0.8,6.1-2.2,8.3C350.6,429.8,348.5,431.5,345.7,432.6z M345,418.2
					l-3,1.2l-0.2,9.9l3-1.2c1.1-0.4,1.9-0.9,2.6-1.5s1.3-1.3,1.6-2.2c0.4-0.9,0.6-1.9,0.6-3.1c0-1.4-0.2-2.5-0.8-3.1
					C348.3,417.4,347,417.4,345,418.2z"/>
				<path class="st2" d="M363.7,424.2l-1.6,0.6l-0.2,10.4c0,1.4-0.3,2.5-0.7,3.3s-1,1.3-1.6,1.6c-0.7,0.3-1.3,0.2-1.6-0.4
					c-0.4-0.5-0.5-1.4-0.5-2.7l0.6-24.9c0-1.4,0.3-2.5,0.7-3.3c0.4-0.8,1.1-1.4,2.1-1.8l7.3-2.9c1-0.4,1.9-0.7,2.6-0.8
					c0.7-0.2,1.3-0.2,1.9,0c0.7,0.1,1.3,0.5,1.8,1.1c0.5,0.6,0.9,1.3,1.1,2.3s0.4,2,0.3,3.2c-0.1,2.4-0.6,4.5-1.5,6.3
					s-2.4,3.4-4.3,4.7c0.8,0.3,1.5,0.9,2.2,1.8s1.3,1.9,1.8,3.1c0.5,1.1,0.9,2.2,1.2,3.2c0.3,1,0.4,1.7,0.4,2.1
					c0,0.4-0.1,0.9-0.3,1.4c-0.2,0.5-0.5,0.9-0.8,1.3c-0.3,0.4-0.7,0.6-1.1,0.8c-0.5,0.2-0.9,0.2-1.3,0c-0.3-0.2-0.6-0.5-0.8-1
					c-0.2-0.4-0.5-1.1-0.9-1.9l-1.7-3.6c-0.6-1.3-1.2-2.3-1.6-3c-0.5-0.6-1-1-1.5-1.1C365.2,423.8,364.5,423.9,363.7,424.2z
					 M366.6,409.6l-4.1,1.6l-0.2,8.9l4-1.6c1.1-0.4,2-0.9,2.7-1.5s1.3-1.2,1.7-2.1c0.4-0.8,0.6-1.8,0.6-2.9c0-0.9-0.1-1.6-0.4-2.2
					c-0.3-0.6-0.7-0.9-1.3-1C369.1,408.7,368.1,409,366.6,409.6z"/>
				<path class="st2" d="M379.8,428l0.6-25.4c0-1.3,0.3-2.4,0.7-3.2c0.4-0.8,1-1.4,1.6-1.6c0.7-0.3,1.2-0.2,1.6,0.3s0.6,1.4,0.6,2.7
					l-0.6,25.4c0,1.3-0.3,2.4-0.7,3.2c-0.4,0.8-1,1.4-1.7,1.6c-0.6,0.3-1.2,0.1-1.6-0.4S379.8,429.4,379.8,428z"/>
				<path class="st2" d="M395.6,396.4l8.2,15.6l0.4-19.2c0-1.2,0.2-2.3,0.6-3s0.9-1.3,1.5-1.5c0.6-0.3,1.1-0.1,1.5,0.3
					c0.4,0.5,0.5,1.3,0.5,2.6l-0.6,25.4c-0.1,2.8-0.9,4.6-2.5,5.2c-0.4,0.2-0.8,0.2-1.1,0.2c-0.3,0-0.6-0.2-0.9-0.4s-0.5-0.6-0.8-1
					s-0.5-0.8-0.7-1.2l-7.9-15.5l-0.4,18.9c0,1.2-0.2,2.2-0.6,3c-0.4,0.8-0.9,1.3-1.5,1.5c-0.6,0.3-1.1,0.1-1.5-0.4
					c-0.4-0.5-0.5-1.3-0.5-2.6l0.6-24.9c0-1.1,0.1-1.9,0.3-2.6c0.2-0.7,0.5-1.4,1-2s0.9-1,1.4-1.2c0.4-0.2,0.7-0.2,1-0.1
					c0.3,0.1,0.5,0.2,0.7,0.5c0.2,0.2,0.4,0.6,0.6,1S395.4,396,395.6,396.4z"/>
				<path class="st2" d="M427.5,385.7l-4.9,1.9l-0.5,23.5c0,1.4-0.3,2.4-0.7,3.3c-0.4,0.8-1,1.4-1.6,1.6c-0.7,0.3-1.2,0.1-1.6-0.3
					c-0.4-0.5-0.6-1.4-0.6-2.7l0.5-23.5l-4.9,1.9c-0.8,0.3-1.3,0.3-1.7-0.1c-0.4-0.3-0.5-0.9-0.5-1.7c0-0.8,0.2-1.6,0.6-2.2
					s1-1.1,1.7-1.4l14.2-5.7c0.8-0.3,1.3-0.3,1.7,0.1c0.4,0.3,0.5,0.9,0.5,1.7s-0.2,1.5-0.6,2.2C428.8,385,428.2,385.4,427.5,385.7z
					"/>
				<path class="st2" d="M432,407.2l0.6-25.4c0-1.3,0.3-2.4,0.7-3.2c0.4-0.8,1-1.4,1.6-1.6c0.7-0.3,1.2-0.2,1.6,0.3
					c0.4,0.5,0.6,1.4,0.6,2.7l-0.6,25.4c0,1.3-0.3,2.4-0.7,3.2s-1,1.4-1.7,1.6c-0.6,0.3-1.2,0.1-1.6-0.4
					C432.2,409.4,432,408.5,432,407.2z"/>
				<path class="st2" d="M447.9,375.6l8.2,15.6l0.4-19.2c0-1.2,0.2-2.3,0.6-3c0.4-0.8,0.9-1.3,1.5-1.5c0.6-0.3,1.1-0.1,1.5,0.3
					c0.4,0.5,0.5,1.3,0.5,2.6l-0.6,25.4c-0.1,2.8-0.9,4.6-2.5,5.2c-0.4,0.2-0.8,0.2-1.1,0.2c-0.3,0-0.6-0.2-0.9-0.4
					c-0.3-0.3-0.5-0.6-0.8-1c-0.2-0.4-0.5-0.8-0.7-1.2l-7.9-15.5l-0.4,18.9c0,1.2-0.2,2.2-0.6,3c-0.4,0.8-0.9,1.3-1.5,1.5
					c-0.6,0.3-1.1,0.1-1.5-0.4c-0.4-0.5-0.5-1.3-0.5-2.6l0.6-24.9c0-1.1,0.1-1.9,0.3-2.6c0.2-0.7,0.5-1.4,1-2s0.9-1,1.4-1.2
					c0.4-0.2,0.7-0.2,1-0.1s0.5,0.2,0.7,0.5c0.2,0.2,0.4,0.6,0.6,1C447.4,374.7,447.6,375.1,447.9,375.6z"/>
				<path class="st2" d="M485.2,376.3l-0.1,6.2c0,0.8-0.1,1.5-0.2,2c-0.1,0.5-0.3,1.1-0.6,1.6c-0.3,0.5-0.7,1-1.2,1.6
					c-1.4,1.6-2.7,2.9-3.9,3.9c-1.2,1-2.6,1.8-4,2.3c-1.7,0.7-3.2,0.9-4.6,0.7c-1.4-0.2-2.5-0.8-3.5-1.9s-1.7-2.5-2.1-4.4
					c-0.5-1.9-0.7-4.1-0.6-6.6c0.1-2.5,0.4-4.9,0.9-7.2s1.3-4.4,2.4-6.2c1-1.9,2.3-3.4,3.7-4.8c1.4-1.3,3.1-2.4,4.9-3.1
					c1.5-0.6,2.8-0.8,3.9-0.7c1.1,0.1,2,0.5,2.7,1.1c0.7,0.6,1.2,1.3,1.5,2.2c0.3,0.8,0.5,1.6,0.5,2.4c0,0.8-0.2,1.6-0.7,2.4
					c-0.4,0.7-0.9,1.2-1.5,1.5c-0.3,0.1-0.6,0.1-0.9,0c-0.3-0.1-0.5-0.3-0.7-0.6c-0.5-1-1-1.8-1.3-2.3c-0.4-0.5-0.9-0.8-1.5-1
					s-1.5-0.1-2.5,0.3c-1,0.4-2,1-2.8,1.9c-0.8,0.8-1.5,1.9-2.1,3.1s-1.1,2.6-1.4,4.2c-0.3,1.6-0.5,3.2-0.6,5
					c-0.1,3.8,0.4,6.5,1.6,8c1.1,1.6,2.8,1.9,4.9,1.1c1-0.4,2-1,2.9-1.8c0.9-0.8,1.8-1.7,2.8-2.8l0.1-5.2l-3.5,1.4
					c-0.8,0.3-1.5,0.4-1.9,0.2c-0.4-0.2-0.6-0.7-0.6-1.6c0-0.7,0.2-1.4,0.6-2c0.4-0.6,0.9-1,1.5-1.3l5.1-2c0.6-0.2,1.1-0.4,1.6-0.4
					c0.4,0,0.8,0.2,1,0.7C485.1,374.4,485.2,375.2,485.2,376.3z"/>
			</g>
		</g>
		<g>
			<g>
				<polygon class="st3" points="688.5,430.2 688.5,325.1 597.5,272.6 309.6,384.2 309.6,489.3 400.6,541.8 				"/>
				<polyline class="st3" points="401,436 401,541.7 688.8,430.7 688.8,325.6 685.2,323.5 597.8,273.1 309.9,384.7 401,436 
					688.8,325.6 				"/>
			</g>
			<g>
				<path class="st2" d="M462.3,491.8l0.3-42.2c0-2.2,0.4-4,1.3-5.4c0.8-1.4,1.9-2.4,3.2-2.9c1.4-0.5,2.5-0.4,3.3,0.4
					c0.8,0.8,1.2,2.3,1.2,4.5l-0.3,42.2c0,2.2-0.4,4-1.3,5.4c-0.8,1.4-2,2.4-3.3,2.9c-1.3,0.5-2.4,0.3-3.2-0.5
					C462.7,495.5,462.3,494,462.3,491.8z"/>
				<path class="st2" d="M487.4,434.7l11.8-4.4c3.1-1.1,5.7-1.8,7.9-1.9c2.2-0.1,4.2,0.4,5.9,1.6c4.6,3,6.9,9.4,6.8,19.2
					c0,3.2-0.3,6.2-0.8,9.1c-0.5,2.8-1.2,5.5-2.2,8c-1,2.5-2.2,4.9-3.8,7.1c-1.2,1.7-2.5,3.3-3.9,4.6c-1.4,1.3-3,2.4-4.6,3.4
					c-1.6,0.9-3.5,1.8-5.5,2.5l-11.8,4.4c-1.6,0.6-2.9,0.8-3.7,0.5c-0.8-0.3-1.4-0.9-1.6-1.9s-0.4-2.3-0.4-4.1l0.3-39.3
					c0-2.3,0.5-4.2,1.3-5.6C484,436.5,485.4,435.4,487.4,434.7z M490.8,441.9l-0.3,36.4l6.8-2.6c1.5-0.6,2.7-1.1,3.5-1.5
					c0.9-0.4,1.7-1,2.7-1.7c0.9-0.7,1.7-1.6,2.4-2.5c3-4.2,4.6-10.1,4.6-17.6c0-5.3-0.6-9-1.9-11.1c-1.3-2.1-2.9-3.2-4.9-3.2
					c-1.9,0-4.3,0.5-7,1.6L490.8,441.9z"/>
				<path class="st2" d="M557.2,416.8l-20.3,7.6l-0.1,13.2l18.7-7c1.4-0.5,2.4-0.5,3.1,0c0.7,0.5,1,1.3,1,2.6c0,1.2-0.4,2.3-1,3.4
					s-1.7,1.8-3.1,2.3l-18.7,7l-0.1,15.2l21-7.9c1.4-0.5,2.5-0.5,3.2,0c0.7,0.5,1.1,1.4,1.1,2.8c0,1.3-0.4,2.4-1.1,3.5
					s-1.8,1.9-3.2,2.4L533,471c-2,0.7-3.4,0.7-4.2,0c-0.9-0.7-1.3-2.3-1.3-4.6l0.3-40.3c0-1.6,0.2-2.9,0.6-4c0.4-1.1,1-2.1,1.8-2.8
					c0.8-0.8,1.9-1.4,3.2-1.9l23.8-8.9c1.4-0.5,2.5-0.6,3.2-0.1c0.7,0.5,1,1.4,1,2.6c0,1.3-0.4,2.4-1.1,3.4
					C559.7,415.5,558.6,416.3,557.2,416.8z"/>
				<path class="st2" d="M597.6,440.7l-2.1-5.9l-18.1,6.8l-2.2,7.7c-0.9,3-1.6,5.1-2.2,6.2c-0.6,1.2-1.6,2-2.9,2.5
					c-1.1,0.4-2.1,0.3-3-0.4c-0.9-0.7-1.3-1.6-1.3-2.9c0-0.7,0.1-1.5,0.3-2.4c0.2-0.9,0.5-2.1,1-3.6l11.6-39.1
					c0.3-1.1,0.7-2.5,1.2-4c0.5-1.6,1-2.9,1.5-4c0.5-1.1,1.2-2.1,2.1-3c0.8-0.9,1.9-1.6,3.1-2c1.3-0.5,2.3-0.6,3.1-0.3
					c0.8,0.3,1.5,0.7,2,1.4c0.5,0.7,0.9,1.5,1.3,2.4c0.3,0.9,0.8,2.1,1.3,3.6l11.4,30.2c0.9,2.3,1.3,4,1.3,5.2
					c0,1.2-0.4,2.5-1.3,3.9c-0.9,1.4-1.9,2.3-3.1,2.7c-0.7,0.3-1.3,0.3-1.8,0.2c-0.5-0.1-0.9-0.4-1.3-0.8c-0.3-0.4-0.7-1.1-1.1-2
					C598.2,442.2,597.9,441.4,597.6,440.7z M579.8,432.5l13.3-5l-6.6-19.6L579.8,432.5z"/>
				<path class="st2" d="M647.8,411.9c0,3.2-0.7,6.4-2.1,9.5c-1.4,3.1-3.5,5.9-6.1,8.4c-2.7,2.5-5.9,4.4-9.5,5.8
					c-4.4,1.7-8,2-10.9,1.1c-2-0.7-3.7-2-4.9-3.9c-1.3-1.9-1.9-4-1.9-6.3c0-1.3,0.4-2.6,1.2-3.8c0.8-1.2,1.7-2.1,2.9-2.5
					c1-0.4,1.8-0.3,2.4,0.2c0.7,0.5,1.2,1.4,1.7,2.6c0.6,1.5,1.2,2.7,1.8,3.6c0.7,0.9,1.6,1.5,2.8,1.8c1.2,0.3,2.8,0.1,4.7-0.7
					c2.7-1,4.9-2.6,6.5-4.7c1.7-2.1,2.5-4.3,2.5-6.6c0-1.8-0.4-3.1-1.3-3.8c-0.9-0.8-2.1-1.2-3.5-1.2c-1.4,0-3.3,0-5.7,0.3
					c-3.2,0.3-5.9,0.3-8-0.1c-2.2-0.4-3.9-1.4-5.1-3c-1.3-1.6-1.9-4-1.8-7.1c0-2.9,0.7-5.8,2.1-8.6c1.4-2.8,3.3-5.3,5.8-7.5
					c2.5-2.2,5.5-3.9,9-5.2c2.7-1,5.1-1.5,7.1-1.4c2,0.1,3.6,0.5,4.9,1.4c1.3,0.9,2.3,1.9,2.9,3.2c0.6,1.3,0.9,2.6,0.9,4
					c0,1.3-0.4,2.6-1.2,3.9c-0.8,1.3-1.7,2.2-2.9,2.6c-1,0.4-1.8,0.4-2.3,0c-0.5-0.4-1.1-1.2-1.7-2.4c-0.8-1.7-1.8-2.9-2.9-3.6
					c-1.1-0.7-2.9-0.6-5.5,0.4c-2.3,0.9-4.2,2.2-5.7,4c-1.4,1.8-2.2,3.5-2.2,5.2c0,1.1,0.2,1.9,0.7,2.5c0.5,0.6,1.1,1,2,1.3
					c0.8,0.2,1.7,0.4,2.6,0.3c0.9,0,2.3-0.1,4.3-0.2c2.5-0.2,4.8-0.3,6.8-0.2c2,0.1,3.8,0.5,5.2,1.2c1.4,0.7,2.5,1.8,3.3,3.4
					C647.4,407,647.8,409.2,647.8,411.9z"/>
			</g>
		</g>
		<g>
			<g>
				<polygon class="st4" points="726.3,263.6 726.3,158.5 635.3,106 347.4,217.6 347.4,322.6 438.4,375.2 				"/>
				<polyline class="st4" points="438.8,269.4 438.8,375.1 726.6,264 726.6,159 723,156.9 635.6,106.4 347.7,218 438.8,269.4 
					726.6,159 				"/>
			</g>
			<g>
				<path class="st2" d="M525.2,303.4c-0.2,3.5-1.1,6.9-2.7,10.2s-3.8,6.2-6.7,8.8c-2.9,2.6-6.3,4.5-10.1,5.9
					c-4.6,1.6-8.4,1.9-11.3,0.8c-2.1-0.8-3.7-2.3-4.9-4.4c-1.2-2.1-1.8-4.4-1.6-6.8c0.1-1.4,0.5-2.8,1.4-4.1
					c0.8-1.3,1.9-2.2,3.1-2.6c1-0.4,1.8-0.3,2.5,0.3s1.2,1.5,1.6,2.9c0.5,1.6,1.1,2.9,1.7,3.9c0.6,1,1.6,1.7,2.8,2
					c1.2,0.4,2.9,0.2,4.9-0.5c2.8-1,5.1-2.6,7-4.8c1.8-2.2,2.8-4.6,2.9-7c0.1-1.9-0.3-3.3-1.2-4.2c-0.9-0.9-2.1-1.3-3.6-1.4
					c-1.5-0.1-3.5-0.1-5.9,0.1c-3.3,0.2-6.1,0.1-8.3-0.4c-2.2-0.5-3.9-1.6-5.2-3.4s-1.8-4.3-1.6-7.7c0.2-3.2,1-6.2,2.5-9.2
					c1.5-3,3.7-5.6,6.4-7.8c2.7-2.3,5.9-4,9.5-5.3c2.9-1,5.4-1.4,7.4-1.3c2.1,0.1,3.8,0.7,5.1,1.7c1.3,1,2.3,2.1,2.8,3.5
					s0.8,2.8,0.7,4.4c-0.1,1.4-0.5,2.8-1.4,4.2s-1.9,2.3-3.1,2.7c-1.1,0.4-1.9,0.3-2.4-0.1c-0.5-0.5-1.1-1.4-1.7-2.6
					c-0.7-1.9-1.7-3.2-2.8-4c-1.1-0.8-3-0.7-5.7,0.2c-2.5,0.9-4.5,2.2-6,4.1c-1.6,1.9-2.4,3.7-2.5,5.6c-0.1,1.2,0.2,2.1,0.6,2.7
					c0.5,0.7,1.1,1.1,2,1.4s1.8,0.4,2.7,0.5c0.9,0,2.4,0,4.5-0.1c2.6-0.2,5-0.2,7.1,0c2.1,0.2,3.9,0.6,5.3,1.4s2.5,2,3.3,3.7
					C525,298.2,525.3,300.5,525.2,303.4z"/>
				<path class="st2" d="M533.1,311.6l2.2-45.5c0.1-2.4,0.6-4.3,1.6-5.8s2.1-2.5,3.5-3c1.4-0.5,2.6-0.3,3.4,0.5
					c0.8,0.9,1.2,2.5,1.1,4.9l-2.2,45.5c-0.1,2.4-0.6,4.3-1.6,5.8s-2.1,2.5-3.6,3c-1.4,0.5-2.5,0.3-3.3-0.6S533,314,533.1,311.6z"/>
				<path class="st2" d="M597,272.2l-0.5,11.1c-0.1,1.5-0.2,2.7-0.5,3.6c-0.3,1-0.7,1.9-1.4,2.8c-0.7,0.9-1.5,1.9-2.5,2.9
					c-2.9,2.9-5.7,5.2-8.4,7c-2.7,1.8-5.6,3.2-8.6,4.3c-3.6,1.3-6.9,1.7-9.8,1.4s-5.3-1.4-7.3-3.3s-3.4-4.5-4.4-7.8
					c-0.9-3.3-1.3-7.3-1.1-11.8c0.2-4.5,1-8.8,2.2-12.9c1.3-4.1,3-7.8,5.3-11.2c2.2-3.3,4.9-6.2,8-8.7s6.6-4.3,10.4-5.7
					c3.2-1.1,5.9-1.6,8.3-1.4s4.3,0.8,5.7,1.8c1.4,1,2.5,2.3,3.2,3.8c0.7,1.5,1,2.9,0.9,4.3c-0.1,1.5-0.6,2.9-1.5,4.2
					c-0.9,1.3-2,2.2-3.3,2.7c-0.7,0.2-1.3,0.3-1.9,0.1c-0.6-0.2-1.1-0.5-1.5-1.1c-1.1-1.8-2-3.2-2.7-4.1c-0.8-0.9-1.8-1.5-3.1-1.8
					c-1.3-0.3-3.1-0.1-5.2,0.7c-2.2,0.8-4.2,1.9-6,3.5c-1.8,1.5-3.3,3.4-4.6,5.6c-1.3,2.2-2.4,4.7-3.1,7.5c-0.8,2.8-1.2,5.8-1.4,8.9
					c-0.3,6.8,0.7,11.5,3,14.3c2.4,2.8,5.8,3.4,10.3,1.8c2.2-0.8,4.3-1.8,6.3-3.2c2-1.4,4-3.1,6-5.1l0.5-9.4l-7.4,2.6
					c-1.8,0.6-3.1,0.8-4,0.4c-0.9-0.3-1.3-1.3-1.2-2.9c0.1-1.3,0.5-2.5,1.3-3.6c0.8-1.1,1.8-1.9,3.2-2.3l10.8-3.8
					c1.3-0.5,2.4-0.7,3.3-0.7c0.9,0,1.6,0.4,2.1,1.2C596.9,268.8,597.1,270.2,597,272.2z"/>
				<path class="st2" d="M619.8,236.4l16.6,27.6l1.7-34.4c0.1-2.2,0.6-4,1.4-5.4c0.8-1.4,1.9-2.3,3.2-2.8c1.4-0.5,2.4-0.3,3.2,0.5
					c0.7,0.8,1.1,2.4,0.9,4.6l-2.2,45.4c-0.2,5.1-2.1,8.2-5.5,9.4c-0.9,0.3-1.6,0.4-2.3,0.4c-0.7-0.1-1.3-0.3-1.9-0.8
					c-0.6-0.4-1.1-1-1.6-1.7c-0.5-0.7-0.9-1.4-1.4-2.2l-16.2-27.4l-1.6,33.8c-0.1,2.2-0.6,4-1.5,5.4c-0.9,1.4-2,2.4-3.3,2.8
					c-1.3,0.5-2.4,0.3-3.2-0.6c-0.8-0.9-1.1-2.4-1-4.6l2.2-44.6c0.1-1.9,0.3-3.4,0.7-4.6c0.5-1.3,1.2-2.5,2.2-3.6
					c1-1.1,2-1.8,3.1-2.2c0.9-0.3,1.6-0.4,2.2-0.3c0.6,0.1,1.1,0.4,1.5,0.8s0.9,1,1.3,1.8S619.4,235.6,619.8,236.4z"/>
				<path class="st2" d="M691.3,245.2c-0.2,3.5-1.1,6.9-2.7,10.2c-1.6,3.3-3.8,6.2-6.7,8.8c-2.9,2.6-6.3,4.5-10.1,5.9
					c-4.6,1.6-8.4,1.9-11.3,0.8c-2.1-0.8-3.7-2.3-4.9-4.4c-1.2-2.1-1.8-4.4-1.6-6.8c0.1-1.4,0.5-2.8,1.4-4.1s1.9-2.2,3.1-2.6
					c1-0.4,1.8-0.3,2.5,0.3s1.2,1.5,1.6,2.9c0.5,1.6,1.1,2.9,1.7,3.9c0.6,1,1.6,1.7,2.8,2c1.2,0.4,2.9,0.2,4.9-0.5
					c2.8-1,5.1-2.6,7-4.8c1.8-2.2,2.8-4.6,2.9-7c0.1-1.9-0.3-3.3-1.2-4.2c-0.9-0.9-2.1-1.3-3.6-1.4c-1.5-0.1-3.5-0.1-5.9,0.1
					c-3.3,0.2-6.1,0.1-8.3-0.4c-2.2-0.5-3.9-1.6-5.2-3.4c-1.2-1.8-1.8-4.3-1.6-7.7c0.2-3.2,1-6.2,2.5-9.2s3.7-5.6,6.4-7.8
					c2.7-2.3,5.9-4,9.5-5.3c2.9-1,5.4-1.4,7.4-1.3c2.1,0.1,3.8,0.7,5.1,1.7c1.3,1,2.3,2.1,2.8,3.5c0.6,1.4,0.8,2.8,0.7,4.4
					c-0.1,1.4-0.5,2.8-1.4,4.2c-0.9,1.4-1.9,2.3-3.1,2.7c-1.1,0.4-1.9,0.3-2.4-0.1c-0.5-0.5-1.1-1.4-1.7-2.6c-0.7-1.9-1.7-3.2-2.8-4
					c-1.1-0.8-3-0.7-5.7,0.2c-2.5,0.9-4.5,2.2-6,4.1c-1.6,1.9-2.4,3.7-2.5,5.6c-0.1,1.2,0.2,2.1,0.6,2.7c0.5,0.7,1.1,1.1,2,1.4
					c0.9,0.3,1.8,0.4,2.7,0.5c0.9,0,2.4,0,4.5-0.1c2.6-0.2,5-0.2,7.1,0c2.1,0.2,3.9,0.6,5.3,1.4s2.5,2,3.3,3.7
					S691.5,242.3,691.3,245.2z"/>
			</g>
		</g>
	</g>
	<g>
		<defs>
			<path id="SVGID_1_" d="M951,162.2c0.7,0.9,1.1,1.8,1.1,2.8v24.7c0,1-0.4,2-1.1,3c-0.7,1-1.6,1.5-2.7,1.5h-49.6
				c-1.1,0-1.6,0.6-1.6,1.8v169.1c0,1-0.4,1.9-1.1,2.8c-0.7,0.9-1.6,1.3-2.7,1.3h-24.7c-0.9,0-1.7-0.4-2.5-1.3
				c-0.8-0.9-1.2-1.8-1.2-2.8V196c0-1.2-0.5-1.8-1.6-1.8h-49.9c-1.1,0-2-0.5-2.8-1.5c-0.8-1-1.2-2-1.2-3V165c0-1,0.4-1.9,1.2-2.8
				c0.8-0.9,1.7-1.3,2.8-1.3h134.9C949.3,160.9,950.2,161.3,951,162.2z M1053.2,361.8c0,2.2-0.7,4-2,5.4c-1.3,1.4-3,2.1-5,2.1h-17.7
				c-2,0-3.6-0.7-5-2.1c-1.3-1.4-2-3.2-2-5.4v-28.6c0-3.6,0-7.1,0-10.6c0-3.5,0-6.6,0.1-9.5c0.1-2.9,0.1-5.2,0.1-7c0-1.8,0-2.8,0-3
				c0-9.1-1.6-16.7-4.8-22.8c-3.2-6.1-7.8-10.9-13.7-14.4c-4.3-2.6-8.8-4.1-13.4-4.6c-4.7-0.5-9.1,0-13.4,1.3
				c-4.3,1.4-8.3,3.6-11.9,6.7c-3.7,3.1-6.7,6.9-9,11.5c-3.6,6.7-4.9,13.9-3.9,21.6c1,7.6,3.4,14.5,7.4,20.5
				c3.9,6.1,9.1,10.6,15.4,13.7c6.3,3.1,13.2,3.4,20.5,1c1.8-0.6,3.3-0.4,4.6,0.4c1.2,0.9,2.3,2.1,3.2,3.7l7.2,22
				c0.5,1.6-0.1,2.8-1.9,3.6c-9.7,3.6-19,4.9-28,3.9c-9-1-17.3-3.7-24.7-8c-7.4-4.4-13.9-10.1-19.3-17.3
				c-5.5-7.1-9.5-15.1-12.1-23.8c-2.6-8.7-3.6-18-3.1-27.7c0.5-9.7,3-19.4,7.5-29.2c3.9-8.3,9.3-15.5,16.1-21.4
				c6.8-6,14.2-10.3,22.3-12.9c8-2.7,16.3-3.5,24.7-2.5c8.4,1,16.2,4.3,23.3,9.8c1.2,1.6,2.5,2.2,3.6,1.8c1.2-0.4,1.7-1.7,1.7-3.9
				c0-2,0.7-3.8,2-5.4c1.3-1.6,2.9-2.4,4.7-2.4h19.3c2,0,3.6,0.8,5,2.4c1.3,1.6,2,3.4,2,5.4V361.8z M1212.3,310.3
				c-1.4,9.7-4.4,18.6-9,26.5c-4.6,7.9-10.2,14.6-16.9,19.9c-6.7,5.4-14.3,9.2-22.7,11.5c-8.4,2.3-17,2.6-25.8,1
				c-4.7-0.8-8.9-2.1-12.6-4c-3.8-1.9-7.5-3.9-11.3-6.1v77.4c0,2-0.6,3.7-1.7,5.1c-1.2,1.4-2.5,2.1-4.2,2.1h-18.5
				c-2,0-3.6-0.7-5-2.1c-1.3-1.4-2-3.1-2-5.1V235.6c0-2,0.7-3.7,2-5.1c1.3-1.4,3-2.1,5-2.1h18.5c1.6,0,3,0.7,4.2,2.1
				c1.2,1.4,1.7,3.1,1.7,5.1v69.7c0,3.8,0.8,7.4,2.3,10.9c1.5,3.5,3.6,6.6,6.2,9.4c2.6,2.8,5.6,5.1,9.1,7c3.5,1.9,7.3,3.1,11.4,3.7
				c4.8,0.8,9.5,0.6,14.1-0.7s8.6-3.3,12.2-6.1c3.6-2.8,6.6-6.3,9-10.6c2.4-4.3,4-9.1,4.7-14.4c0.7-5.2,0.5-10.2-0.5-15.2
				c-1.1-5-2.9-9.5-5.5-13.5c-2.6-4.1-5.8-7.5-9.7-10.3c-3.8-2.8-8.1-4.6-12.7-5.4c-2.5-0.4-4.9-0.6-7.2-0.6c-2.3,0-4.7,0.5-7,1.5
				c-1.6,0.8-3.2,0.6-4.7-0.4c-1.5-1.1-2.5-2.6-3.1-4.6l-6.2-20.2c-0.5-2-0.5-3.3,0-4c0.5-0.7,1.1-1.1,1.6-1.3
				c5-1.4,10.1-2.5,15.4-3.3c5.3-0.8,10.5-0.7,15.7,0.3c8.8,1.6,16.8,5,24,10.1c7.2,5.2,13.3,11.5,18.1,18.9
				c4.8,7.4,8.3,15.8,10.3,25.2C1213.6,290.7,1213.9,300.4,1212.3,310.3z M1292.7,228.1c8.6,0,16.8,1.7,24.5,5.2
				c7.8,3.5,14.5,8.5,20.3,15.2c5.7,6.6,10.1,14.9,13.3,24.9c3.1,9.9,4.5,21.4,4.2,34.5c0,2-0.3,3.4-0.8,4.2
				c-0.5,0.8-1.7,1.2-3.5,1.2c-15.4,0.2-29.3,0.3-41.9,0.3h-48c-0.2,0-0.4,0.1-0.5,0.3v0.3c0.2,1,0.8,2.9,2,5.7
				c1.2,2.8,3,5.7,5.5,8.8c2.5,3.1,5.8,6,9.9,8.6c4.1,2.7,9.3,4.4,15.6,5.2c5.4,0.8,10.2,0.8,14.5,0c4.3-0.8,8.1-1.9,11.4-3.4
				c3.3-1.5,6.2-3.3,8.6-5.4c2.4-2.1,4.4-4.1,6-6.1c0.7-0.8,1.5-0.9,2.4-0.3l14.5,13.7c0.7,0.8,1.1,1.5,1.1,2.1
				c0,0.8-0.2,1.4-0.5,1.8c-1.4,1.8-3.6,4.3-6.6,7.4c-3,3.2-6.8,6.3-11.5,9.2c-4.7,3-10.4,5.5-17,7.6c-6.6,2.1-14.2,3-22.8,2.8
				c-8.6-0.2-16.8-2.2-24.5-6.1c-7.8-3.9-14.5-9-20.3-15.5c-5.7-6.4-10.3-14-13.7-22.6c-3.4-8.6-5.1-17.9-5.1-27.8
				c0-9.9,1.7-19.2,5-28c3.3-8.7,7.8-16.3,13.5-22.8c5.7-6.4,12.4-11.6,20.1-15.3C1276,230,1284.2,228.1,1292.7,228.1z
				 M1326.3,284.4c0.2-0.2,0.3-0.5,0.3-0.9c-0.9-2.4-2.1-5.1-3.6-8.2c-1.5-3.1-3.6-6-6.2-8.6c-2.6-2.7-5.8-5-9.7-6.8
				c-3.8-1.9-8.4-2.8-13.8-2.8c-5.5,0-10.2,1.1-14.1,3.4c-3.8,2.3-7,4.9-9.4,7.9c-2.4,3-4.2,6-5.4,8.9c-1.2,3-1.9,5.1-2.3,6.3v0.9
				c0.2,0.2,0.4,0.3,0.5,0.3h62.8C1326,284.7,1326.3,284.6,1326.3,284.4z M1408.6,162.9c1.2,1.6,1.9,3.5,1.9,5.7v193.5
				c0,2-0.6,3.7-1.9,5.1c-1.3,1.4-2.9,2.1-4.8,2.1h-18.5c-1.6,0-3-0.7-4.3-2.1c-1.3-1.4-1.9-3.1-1.9-5.1V168.6
				c0-2.2,0.6-4.1,1.9-5.7c1.2-1.6,2.7-2.4,4.3-2.4h18.5C1405.8,160.6,1407.4,161.4,1408.6,162.9z M1473.6,162.9
				c1.2,1.6,1.9,3.5,1.9,5.7v193.5c0,2-0.6,3.7-1.9,5.1c-1.3,1.4-2.9,2.1-4.8,2.1h-18.5c-1.6,0-3-0.7-4.3-2.1
				c-1.3-1.4-1.9-3.1-1.9-5.1V168.6c0-2.2,0.6-4.1,1.9-5.7c1.2-1.6,2.7-2.4,4.3-2.4h18.5C1470.7,160.6,1472.3,161.4,1473.6,162.9z
				 M1533.4,177.2c4.5,0,6.7,2.5,6.7,7.4v20.8c0,1.8-0.6,3.4-1.9,4.8c-1.3,1.4-2.9,2.1-4.8,2.1h-18.5c-1.6,0-3-0.7-4.3-2.1
				c-1.3-1.4-1.9-3-1.9-4.8v-20.8c0-2.2,0.6-4,1.9-5.4c1.2-1.4,2.7-2.1,4.3-2.1H1533.4z M1533.4,228.4c2,0,3.6,0.8,4.8,2.4
				c1.2,1.6,1.9,3.5,1.9,5.7v125.6c0,2-0.6,3.7-1.9,5.1c-1.3,1.4-2.9,2.1-4.8,2.1h-18.5c-1.6,0-3-0.7-4.3-2.1
				c-1.3-1.4-1.9-3.1-1.9-5.1V236.5c0-2.2,0.6-4.1,1.9-5.7c1.2-1.6,2.7-2.4,4.3-2.4H1533.4z M1636.9,227.2c7.2,0,13.5,1.4,19.2,4.3
				c5.6,2.9,10.5,7,14.5,12.4c4,5.4,7.1,11.7,9.3,19.1c2.1,7.3,3.2,15.5,3.2,24.4v74.7c0,2-0.6,3.7-1.7,5.1
				c-1.2,1.4-2.7,2.1-4.7,2.1h-18.2c-2,0-3.6-0.7-4.8-2.1c-1.3-1.4-1.9-3.1-1.9-5.1v-75.9c0-2.4-0.4-5-1.1-7.9
				c-0.7-2.9-1.9-5.6-3.5-8c-1.6-2.5-3.8-4.6-6.6-6.3c-2.8-1.7-6.3-2.5-10.6-2.5c-7.5,0-13.5,2.7-17.8,8.2
				c-4.4,5.5-6.6,12.7-6.6,21.6v70.8c0,2-0.7,3.7-2,5.1c-1.3,1.4-3,2.1-5,2.1h-17.7c-2,0-3.6-0.7-5-2.1c-1.3-1.4-2-3.1-2-5.1V238.6
				c0-1.8,0.7-3.3,2-4.6s3-1.9,5-1.9h16.4c2,0,3.5,0.6,4.7,1.9c1.2,1.3,1.7,2.8,1.7,4.6v1.8c0,0.8,0.3,1.4,0.9,1.9
				c0.6,0.5,1,0.7,1.2,0.7c1.6,0.4,2.8-0.1,3.5-1.5c3-4.6,7.2-8.1,12.3-10.6C1626.8,228.5,1631.9,227.2,1636.9,227.2z M1821.8,254.6
				c4.5,6.4,8,13.3,10.5,21c2.5,7.6,3.8,15.6,3.8,24c0,9.9-1.7,19.2-5.1,28c-3.4,8.7-8,16.3-14,22.8c-5.9,6.5-12.8,11.6-20.8,15.3
				c-8,3.8-16.5,5.7-25.6,5.7c-7.9,0-15.5-1.9-22.8-5.7c-7.3-3.8-13.8-8.9-19.3-15.3c-5.5-6.4-10-14-13.3-22.8c-3.3-8.7-5-18.1-5-28
				c0-13.7,2.8-25.9,8.5-36.6c5.6-10.7,12.9-19.1,21.7-25.2c8.9-6.1,18.7-9.4,29.6-10c10.9-0.6,21.6,2.3,32.2,8.6
				c1.8,1,2.2,2.3,1.3,3.9l-10.2,20.5c-0.9,1.6-2.1,2.7-3.6,3.4c-1.5,0.7-3,0.5-4.4-0.4c-4.3-2-9.2-3-14.8-3c-4.5,0-8.6,1-12.3,3
				c-3.8,2-7,4.7-9.8,8.2c-2.8,3.5-4.9,7.6-6.4,12.4c-1.5,4.8-2.3,9.8-2.3,15.2c0,11.1,2.9,20.3,8.7,27.5
				c5.8,7.2,13.2,10.9,22.1,10.9c5,0,9.7-0.9,14.1-2.8c4.4-1.9,8.2-4.6,11.4-8c3.2-3.5,5.8-7.5,7.6-12.2c1.9-4.7,2.8-9.8,2.8-15.3
				c0-3.6-0.5-7.1-1.5-10.6c-1-3.5-2.2-6.6-3.6-9.4c-1.4-3.4-0.8-6.3,1.9-8.6l16.1-16.1C1820.3,253.9,1821.1,253.8,1821.8,254.6z
				 M1621.9,461.1c0-2.4,0.9-4.6,2.6-6.4s3.8-2.7,6.3-2.7c1.2,0,2.4,0.2,3.5,0.7c1.1,0.5,2.1,1.2,2.9,2s1.4,1.8,1.9,2.9
				c0.5,1.1,0.7,2.3,0.7,3.5c0,2.4-0.9,4.5-2.7,6.3c-1.8,1.8-3.9,2.7-6.4,2.7c-2.4,0-4.5-0.9-6.3-2.7S1621.9,463.5,1621.9,461.1z
				 M1686.5,463.8c0.5,0.6,0.6,1.2,0.3,1.8c-0.3,0.6-0.7,1-1.3,1.3c-1.6,0.8-3.4,1.4-5.4,2c-2,0.6-4.4,0.9-7.1,0.9
				c-3.3,0-6.6-0.7-9.7-2.2c-3.1-1.4-5.8-3.4-8.2-5.9c-2.4-2.5-4.2-5.4-5.6-8.7c-1.4-3.3-2.1-6.9-2.1-10.7v-0.1v-0.1
				c0-3.8,0.7-7.4,2.1-10.7c1.4-3.3,3.3-6.2,5.6-8.7c2.4-2.5,5.1-4.4,8.2-5.9c3.1-1.4,6.3-2.2,9.7-2.2c4.2,0,8.4,0.9,12.5,2.8
				c0.4,0.3,0.7,0.6,1.1,1c0.3,0.3,0.4,0.9,0.2,1.5l-4.1,7.5c-0.4,0.6-0.9,1-1.5,1.3c-0.6,0.3-1.3,0.2-1.9-0.2
				c-1.8-0.8-3.9-1.1-6.3-1.1c-1.8,0-3.5,0.4-5.1,1.1c-1.6,0.8-3,1.8-4.1,3.1c-1.2,1.3-2.1,2.9-2.8,4.7c-0.7,1.8-1,3.7-1,5.7
				c0,2,0.3,4,1,5.8c0.7,1.8,1.6,3.4,2.8,4.7c1.2,1.3,2.6,2.3,4.1,3.1c1.6,0.8,3.3,1.1,5.1,1.1c2.4,0,4.4-0.4,6.3-1.1
				c0.6-0.4,1.2-0.4,1.9-0.2c0.6,0.3,1.1,0.7,1.5,1.3L1686.5,463.8z M1741.7,425.1c1.9,2.4,3.4,5.1,4.4,8c1.1,2.9,1.6,6,1.6,9.2
				c0,3.8-0.7,7.4-2.2,10.7c-1.4,3.3-3.4,6.2-5.9,8.7c-2.5,2.5-5.4,4.4-8.8,5.9c-3.4,1.4-7,2.2-10.9,2.2c-3.3,0-6.6-0.7-9.7-2.2
				c-3.1-1.4-5.8-3.4-8.2-5.9c-2.4-2.5-4.2-5.4-5.6-8.7c-1.4-3.3-2.1-6.9-2.1-10.7c0-5.2,1.2-9.9,3.6-14c2.4-4.1,5.5-7.3,9.2-9.6
				c3.7-2.3,7.9-3.6,12.6-3.8c4.6-0.2,9.2,0.9,13.7,3.3c0.8,0.4,0.9,0.9,0.6,1.5l-4.3,7.8c-0.4,0.6-0.9,1-1.5,1.3
				c-0.6,0.3-1.3,0.2-1.9-0.2c-1.8-0.8-3.9-1.1-6.3-1.1c-1.9,0-3.6,0.4-5.2,1.1c-1.6,0.8-3,1.8-4.2,3.1c-1.2,1.3-2.1,2.9-2.7,4.7
				c-0.6,1.8-1,3.8-1,5.8c0,4.2,1.2,7.8,3.7,10.5c2.5,2.8,5.6,4.2,9.4,4.2c2.1,0,4.1-0.4,6-1.1c1.9-0.7,3.5-1.7,4.8-3.1
				c1.4-1.3,2.5-2.9,3.2-4.7c0.8-1.8,1.2-3.7,1.2-5.9c0-1.4-0.2-2.7-0.6-4c-0.4-1.3-0.9-2.5-1.5-3.6c-0.6-1.3-0.3-2.4,0.8-3.3
				l6.8-6.1C1741,424.9,1741.4,424.8,1741.7,425.1z M1816.1,415c3,0,5.8,0.6,8.2,1.6c2.4,1.1,4.5,2.7,6.3,4.7c1.7,2,3.1,4.4,4,7.2
				c0.9,2.8,1.4,5.8,1.4,9.2v28.5c0,0.8-0.3,1.4-0.8,1.9c-0.5,0.5-1.2,0.8-2,0.8h-7.6c-0.8,0-1.5-0.3-2-0.8
				c-0.5-0.5-0.8-1.2-0.8-1.9v-29c0-0.9-0.2-1.9-0.5-3c-0.3-1.1-0.8-2.1-1.5-3c-0.7-0.9-1.7-1.7-2.9-2.3c-1.2-0.6-2.8-1-4.7-1
				c-2.9,0-5.3,1-7.4,3c-2,2-3.1,4.9-3.1,8.6v26.7v0.3c0,0.7-0.3,1.2-0.7,1.7c-0.5,0.5-1.1,0.7-1.8,0.7h-8c-0.7,0-1.3-0.3-1.8-0.8
				c-0.5-0.5-0.7-1.2-0.7-1.9v-29c0-0.9-0.1-1.9-0.5-3c-0.3-1.1-0.8-2.1-1.5-3.1c-0.7-0.9-1.7-1.7-3-2.4c-1.3-0.6-2.8-1-4.7-1
				c-1.1,0-2.2,0.3-3.2,0.9c-1,0.6-2,1.3-2.8,2.3s-1.5,2.2-2,3.6c-0.5,1.4-0.7,2.9-0.7,4.6v27.1c0,0.8-0.3,1.4-0.8,1.9
				c-0.5,0.5-1.1,0.8-1.8,0.8h-7.7c-0.8,0-1.4-0.3-1.9-0.8c-0.5-0.5-0.8-1.2-0.8-1.9V419c0-0.7,0.3-1.3,0.8-1.8
				c0.5-0.5,1.2-0.7,1.9-0.7h7.1c0.8,0,1.5,0.2,2,0.7c0.5,0.5,0.7,1.1,0.7,1.8v0.7c0,0.3,0.1,0.6,0.3,0.7c0.2,0.2,0.4,0.3,0.5,0.3
				c0.5,0.2,0.9,0.2,1,0.1c0.1-0.1,0.3-0.3,0.4-0.6c3-3.6,6.5-5.5,10.2-5.5c3.5,0,6.6,0.8,9.3,2.3c2.7,1.6,4.9,3.5,6.5,6
				c0.8,1.2,1.6,1.3,2.4,0.1V423c1.8-2,3.4-3.5,4.7-4.3c1.5-1.3,3.2-2.2,5.1-2.8C1812.9,415.3,1814.6,415,1816.1,415z"/>
		</defs>
		<clipPath id="SVGID_2_">
			<use xlink:href="#SVGID_1_"  style="overflow:visible;"/>
		</clipPath>
		<linearGradient id="SVGID_3_" gradientUnits="userSpaceOnUse" x1="810.2883" y1="324.799" x2="1836" y2="324.799">
			<stop  offset="0" style="stop-color:#FF0000"/>
			<stop  offset="0.1405" style="stop-color:#FF6000"/>
			<stop  offset="0.38" style="stop-color:#FFFF00"/>
			<stop  offset="0.4022" style="stop-color:#FCFF00"/>
			<stop  offset="0.4181" style="stop-color:#F3FF00"/>
			<stop  offset="0.4322" style="stop-color:#E3FF00"/>
			<stop  offset="0.445" style="stop-color:#CDFF00"/>
			<stop  offset="0.4572" style="stop-color:#B0FF00"/>
			<stop  offset="0.4687" style="stop-color:#8DFF00"/>
			<stop  offset="0.4798" style="stop-color:#62FF00"/>
			<stop  offset="0.4903" style="stop-color:#33FF00"/>
			<stop  offset="0.5" style="stop-color:#00FF00"/>
			<stop  offset="0.591" style="stop-color:#00FF47"/>
			<stop  offset="0.764" style="stop-color:#00FFCA"/>
			<stop  offset="0.84" style="stop-color:#00FFFF"/>
			<stop  offset="0.8582" style="stop-color:#00E0FF"/>
			<stop  offset="0.894" style="stop-color:#00AAFF"/>
			<stop  offset="0.9273" style="stop-color:#007FFF"/>
			<stop  offset="0.9571" style="stop-color:#0060FF"/>
			<stop  offset="0.9824" style="stop-color:#004DFF"/>
			<stop  offset="1" style="stop-color:#0046FF"/>
		</linearGradient>
		<rect x="810.3" y="88.4" class="st5" width="1025.7" height="472.8"/>
	</g>
</g>
<g>
	<defs>
		<path id="SVGID_4_" d="M123,719c0-0.9,0.4-1.8,1.3-2.7c0.8-0.8,1.7-1.3,2.7-1.3h26.3c0.9,0,1.8,0.4,2.7,1.3
			c0.8,0.9,1.3,1.7,1.3,2.7v190.2c0,0.9-0.4,1.8-1.3,2.7c-0.8,0.8-1.7,1.3-2.7,1.3H127c-0.9,0-1.8-0.4-2.7-1.3
			c-0.8-0.9-1.3-1.7-1.3-2.7V719z M275.5,778.2c7.5,0,14.3,1.4,20.2,4.1c5.9,2.7,11,6.6,15.3,11.7c4.2,5.1,7.5,11.1,9.8,18.1
			c2.3,7,3.4,14.7,3.4,23.2v71c0,1.9-0.6,3.5-1.8,4.8c-1.2,1.3-2.9,2-5,2h-19.2c-2.1,0-3.8-0.7-5.1-2c-1.3-1.3-2-2.9-2-4.8v-72.2
			c0-2.3-0.4-4.8-1.1-7.5c-0.8-2.7-2-5.3-3.7-7.6c-1.7-2.4-4-4.3-6.9-5.9c-2.9-1.6-6.6-2.4-11.2-2.4c-7.9,0-14.2,2.6-18.8,7.8
			c-4.6,5.2-6.9,12-6.9,20.5v67.3c0,1.9-0.7,3.5-2.1,4.8c-1.4,1.3-3.2,2-5.2,2h-18.7c-2.1,0-3.8-0.7-5.2-2c-1.4-1.3-2.1-2.9-2.1-4.8
			V788.9c0-1.7,0.7-3.2,2.1-4.4c1.4-1.2,3.2-1.8,5.2-1.8h17.3c2.1,0,3.7,0.6,5,1.8c1.2,1.2,1.8,2.7,1.8,4.4v1.7c0,0.8,0.3,1.4,1,1.8
			c0.7,0.5,1.1,0.7,1.3,0.7c1.7,0.4,2.9-0.1,3.7-1.4c3.2-4.3,7.5-7.7,13-10C264.9,779.3,270.2,778.2,275.5,778.2z M548.6,715
			c8.5,0,16.6,1.7,24.2,5c7.6,3.3,14.3,7.7,20.1,13.3c5.8,5.6,10.3,12.1,13.6,19.7c3.3,7.5,5,15.6,5,24.1c0,8.7-1.7,16.8-5,24.5
			c-3.3,7.6-7.8,14.3-13.6,20.1c-5.8,5.8-12.4,10.3-19.9,13.6c-7.5,3.3-15.6,5-24.1,5h-30.3c-1.1,0-1.7,0.6-1.7,1.7v67.3
			c0,0.9-0.4,1.8-1.3,2.7c-0.8,0.8-1.7,1.3-2.7,1.3h-26c-1.1,0-2.1-0.4-2.8-1.3c-0.8-0.9-1.1-1.7-1.1-2.7V719c0-0.9,0.4-1.8,1.1-2.7
			c0.8-0.8,1.7-1.3,2.8-1.3H548.6z M546,808.1c4.1,0,8.1-0.8,11.9-2.4c3.8-1.6,7.1-3.8,9.9-6.6s5.1-6.1,6.8-9.9
			c1.7-3.8,2.5-7.9,2.5-12.5c0-4.1-0.8-8-2.5-11.6c-1.7-3.6-4-6.6-6.8-9.2c-2.8-2.5-6.1-4.6-9.9-6.1c-3.8-1.5-7.7-2.3-11.9-2.3
			h-27.4c-1.1,0-1.7,0.6-1.7,1.7v57.2c0,1.1,0.6,1.7,1.7,1.7H546z M640.5,783.8c0-1.1,0.4-2.1,1.3-2.8c0.8-0.8,1.7-1.1,2.7-1.1h14.1
			c2.4,0,3.8,0.9,4,2.8l0.6,5.1c0.2,1.3,0.3,2.6,0.4,3.8c0.1,1.2,0.1,1.9,0.1,2.1c0.4,1.7,1.1,2,2.3,0.9c1.1-1.7,2.7-3.6,4.7-5.7
			c2-2.1,4.3-4,7.1-5.8c2.7-1.8,5.8-3.3,9.1-4.4c3.3-1.1,6.9-1.7,10.9-1.7c2.4,0,5,0.2,7.8,0.6c2.7,0.4,5.2,1,7.4,1.8
			c2.2,0.8,3.9,1.9,5.1,3.1c1.2,1.2,1.5,2.6,0.7,4.1l-10.5,18.7c-1.1,1.9-3.4,2.3-6.8,1.1c-4.7-1.5-8.9-1.6-12.6-0.3
			c-3.7,1.3-6.7,3.4-9.2,6.2c-2.5,2.8-4.3,6.1-5.5,9.9c-1.2,3.8-1.8,7.5-1.8,11v75.8c0,2.6-1.8,4-5.4,4h-22.4
			c-0.9,0-1.8-0.4-2.7-1.3c-0.8-0.9-1.3-1.7-1.3-2.7V783.8z M846.5,804.2c4.7,6,8.4,12.7,11,19.9c2.6,7.3,4,14.9,4,22.8
			c0,9.4-1.8,18.3-5.4,26.6c-3.6,8.3-8.5,15.5-14.7,21.6c-6.2,6.1-13.5,11-21.9,14.6c-8.4,3.6-17.4,5.4-27,5.4
			c-8.3,0-16.3-1.8-24.1-5.4c-7.7-3.6-14.5-8.4-20.4-14.6c-5.8-6.1-10.5-13.3-14-21.6c-3.5-8.3-5.2-17.2-5.2-26.6
			c0-13,3-24.6,8.9-34.8c5.9-10.2,13.6-18.2,22.9-23.9c9.3-5.8,19.8-8.9,31.3-9.5c11.5-0.6,22.8,2.2,34,8.2c1.9,0.9,2.4,2.2,1.4,3.7
			l-10.8,19.5c-0.9,1.5-2.2,2.6-3.8,3.3c-1.6,0.7-3.2,0.5-4.7-0.4c-4.5-1.9-9.7-2.8-15.6-2.8c-4.7,0-9.1,0.9-13,2.8
			c-4,1.9-7.4,4.5-10.3,7.8c-2.9,3.3-5.2,7.2-6.8,11.7c-1.6,4.5-2.4,9.3-2.4,14.4c0,10.6,3.1,19.3,9.2,26.2
			c6.1,6.9,13.9,10.3,23.3,10.3c5.3,0,10.2-0.9,14.9-2.7c4.6-1.8,8.6-4.3,12-7.6c3.4-3.3,6.1-7.2,8.1-11.6c2-4.4,3-9.3,3-14.6
			c0-3.4-0.5-6.7-1.6-10c-1-3.3-2.3-6.3-3.8-8.9c-1.5-3.2-0.8-5.9,2-8.2l17-15.3C844.9,803.5,845.8,803.4,846.5,804.2z M881,835.3
			c1.3-9.2,4.4-17.6,9.3-25.2c4.9-7.5,10.9-13.9,18-19c7.1-5.1,15-8.7,23.8-10.9c8.8-2.2,17.9-2.5,27.3-1c4.9,0.8,9.3,2,13.3,3.8
			c4,1.8,7.9,3.7,11.9,5.8v-67.1c0-1.9,0.6-3.5,1.8-4.8c1.2-1.3,2.7-2,4.4-2h19.5c2.1,0,3.8,0.7,5.2,2c1.4,1.3,2.1,2.9,2.1,4.8
			v184.5c0,1.9-0.7,3.5-2.1,4.8c-1.4,1.3-3.2,2-5.2,2h-19.5c-1.7,0-3.2-0.7-4.4-2c-1.2-1.3-1.8-2.9-1.8-4.8v-66.2
			c0-3.6-0.8-7-2.4-10.3c-1.6-3.3-3.8-6.3-6.5-8.9c-2.7-2.6-5.9-4.9-9.6-6.6c-3.7-1.8-7.7-3-12-3.5c-5.1-0.8-10-0.5-14.9,0.7
			c-4.8,1.2-9.1,3.2-12.9,5.8c-3.8,2.6-6.9,6-9.5,10c-2.5,4.1-4.2,8.6-5,13.7c-0.8,4.9-0.6,9.7,0.6,14.4c1.1,4.7,3.1,9,5.8,12.9
			c2.7,3.9,6.1,7.1,10.2,9.8c4.1,2.6,8.5,4.3,13.4,5.1c2.6,0.4,5.2,0.6,7.6,0.6c2.4,0,4.9-0.5,7.4-1.4c1.7-0.8,3.3-0.6,5,0.4
			c1.6,1,2.7,2.5,3.3,4.4l6.5,19.2c0.6,1.9,0.6,3.2,0,3.8c-0.6,0.7-1.1,1.1-1.7,1.3c-5.3,1.3-10.7,2.4-16.3,3.1
			c-5.6,0.8-11.1,0.7-16.6-0.3c-9.4-1.5-17.9-4.7-25.5-9.6c-7.5-4.9-13.9-10.9-19-18s-8.7-15-10.9-23.9
			C879.6,853.9,879.4,844.7,881,835.3z M1117.6,914.8c-15.3,0-27.3-5.1-36.1-15.3c-8.8-10.2-13.2-24.7-13.2-43.6v-69
			c0-2.1,0.7-3.9,2-5.4c1.3-1.5,3-2.3,5.1-2.3h19c2.1,0,3.8,0.8,5.1,2.3c1.3,1.5,2,3.3,2,5.4v70.5c0,2.3,0.4,4.9,1.1,7.9
			c0.8,3,2,5.9,3.8,8.8c1.8,2.8,4.2,5.2,7.2,7.2c3,2,6.8,3,11.3,3c3.8,0,7.3-0.8,10.5-2.5c3.2-1.7,5.9-4,8.2-6.8
			c2.3-2.8,4.1-6.1,5.4-9.9c1.3-3.8,2-7.8,2-12.2v-65.9c0-2.1,0.6-3.9,1.8-5.4c1.2-1.5,2.9-2.3,5-2.3h19.2c1.9,0,3.5,0.8,4.8,2.3
			c1.3,1.5,2,3.3,2,5.4v119.1c0,2.1-0.7,3.8-2,5.1c-1.3,1.3-2.9,2-4.8,2h-17.8c-2.1,0-3.8-0.7-5.2-2c-1.4-1.3-2.1-3-2.1-5.1v-4.8
			c0-1.5-0.4-2.3-1.1-2.3c-1.1-0.4-1.9-0.4-2.4-0.1c-0.5,0.3-1.1,0.8-1.8,1.6c-1.7,2.3-3.7,4.2-5.9,5.9c-2.3,1.7-4.7,3.2-7.4,4.5
			c-2.6,1.3-5.3,2.3-8.1,3C1122.4,914.5,1119.9,914.8,1117.6,914.8z M1313.1,900.4c1.1,1.5,1.4,3,0.7,4.4c-0.7,1.4-1.7,2.5-3.3,3.3
			c-4,1.9-8.4,3.5-13.4,5c-5,1.4-10.9,2.1-17.7,2.1c-8.3,0-16.3-1.8-24.1-5.4c-7.7-3.6-14.5-8.4-20.4-14.6
			c-5.8-6.1-10.5-13.3-14-21.6c-3.5-8.3-5.2-17.2-5.2-26.6v-0.3v-0.3c0-9.4,1.7-18.3,5.2-26.6c3.5-8.3,8.2-15.5,14-21.6
			c5.8-6.1,12.6-11,20.4-14.6c7.7-3.6,15.7-5.4,24.1-5.4c10.6,0,20.9,2.4,31.1,7.1c0.9,0.8,1.8,1.6,2.7,2.4c0.8,0.8,1,2.1,0.4,3.8
			l-10.2,18.7c-0.9,1.5-2.2,2.6-3.8,3.3c-1.6,0.7-3.2,0.5-4.7-0.4c-4.5-1.9-9.7-2.8-15.6-2.8c-4.5,0-8.8,0.9-12.7,2.8
			c-4,1.9-7.4,4.5-10.3,7.8c-2.9,3.3-5.2,7.2-6.9,11.6c-1.7,4.4-2.5,9.2-2.5,14.3c0,5.1,0.8,9.9,2.5,14.4c1.7,4.5,4,8.4,6.9,11.6
			c2.9,3.2,6.4,5.8,10.3,7.6c4,1.9,8.2,2.8,12.7,2.8c5.8,0,11-0.9,15.6-2.8c1.5-0.9,3.1-1.1,4.7-0.4c1.6,0.7,2.9,1.7,3.8,3.3
			L1313.1,900.4z M1429.4,898.1c0.4,0.9,0.4,1.7,0,2.3c-0.4,0.6-1,1.1-2,1.7c-0.4,0.2-1.7,1-3.8,2.4c-2.2,1.4-5.1,2.9-8.8,4.4
			c-3.7,1.5-8.1,2.9-13.2,4.1c-5.1,1.2-10.9,1.7-17.3,1.6c-11.1-0.4-19.6-3.4-25.5-9.1c-5.8-5.7-8.8-14.3-8.8-26v-64.2
			c0-2.1-1-3.1-3.1-3.1H1331c-1.5,0-2.9-0.7-4.2-2c-1.3-1.3-2-3-2-5.1v-17.8c0-2.1,0.7-3.8,2-5.1c1.3-1.3,2.7-2,4.2-2h16.1
			c2.1,0,3.1-1,3.1-3.1v-39c0-1.9,0.7-3.5,2-4.8c1.3-1.3,2.8-2,4.5-2h19c2.3,0,4,0.7,5.2,2c1.2,1.3,1.8,2.9,1.8,4.8v39
			c0,2.1,1.1,3.1,3.4,3.1h31.4c1.9,0,3.5,0.7,4.8,2c1.3,1.3,2,3,2,5.1V805c0,2.1-0.7,3.8-2,5.1c-1.3,1.3-2.9,2-4.8,2h-31.1
			c-0.8,0-1.5,0.3-2.3,0.8c-0.8,0.6-1.1,1.3-1.1,2.3l0.3,58.3c0,5.7,1.3,9.4,4,11.2c2.6,1.8,5.7,2.2,9.1,1.3c4-0.9,7.5-2.2,10.6-3.7
			c3.1-1.5,5.6-2.7,7.5-3.7c1.9-0.9,3.7-1.3,5.4-1.1c1.7,0.2,2.7,1,3.1,2.5L1429.4,898.1z M1482.6,730.6c4.7,0,7.1,2.4,7.1,7.1v19.8
			c0,1.7-0.7,3.2-2,4.5c-1.3,1.3-3,2-5.1,2h-19.5c-1.7,0-3.2-0.7-4.5-2c-1.3-1.3-2-2.8-2-4.5v-19.8c0-2.1,0.7-3.8,2-5.1
			c1.3-1.3,2.8-2,4.5-2H1482.6z M1482.6,779.3c2.1,0,3.8,0.8,5.1,2.3c1.3,1.5,2,3.3,2,5.4v119.4c0,1.9-0.7,3.5-2,4.8
			c-1.3,1.3-3,2-5.1,2h-19.5c-1.7,0-3.2-0.7-4.5-2c-1.3-1.3-2-2.9-2-4.8V786.9c0-2.1,0.7-3.9,2-5.4c1.3-1.5,2.8-2.3,4.5-2.3H1482.6z
			 M1636.6,804.2c4.7,6,8.4,12.7,11,19.9c2.6,7.3,4,14.9,4,22.8c0,9.4-1.8,18.3-5.4,26.6c-3.6,8.3-8.5,15.5-14.7,21.6
			c-6.2,6.1-13.5,11-21.9,14.6c-8.4,3.6-17.4,5.4-27,5.4c-8.3,0-16.3-1.8-24.1-5.4c-7.7-3.6-14.5-8.4-20.4-14.6
			c-5.8-6.1-10.5-13.3-14-21.6c-3.5-8.3-5.2-17.2-5.2-26.6c0-13,3-24.6,8.9-34.8c5.9-10.2,13.6-18.2,22.9-23.9
			c9.3-5.8,19.8-8.9,31.3-9.5c11.5-0.6,22.8,2.2,34,8.2c1.9,0.9,2.4,2.2,1.4,3.7l-10.8,19.5c-0.9,1.5-2.2,2.6-3.8,3.3
			c-1.6,0.7-3.2,0.5-4.7-0.4c-4.5-1.9-9.7-2.8-15.6-2.8c-4.7,0-9.1,0.9-13,2.8c-4,1.9-7.4,4.5-10.3,7.8c-2.9,3.3-5.2,7.2-6.8,11.7
			c-1.6,4.5-2.4,9.3-2.4,14.4c0,10.6,3.1,19.3,9.2,26.2c6.1,6.9,13.9,10.3,23.3,10.3c5.3,0,10.2-0.9,14.9-2.7
			c4.6-1.8,8.6-4.3,12-7.6c3.4-3.3,6.1-7.2,8.1-11.6c2-4.4,3-9.3,3-14.6c0-3.4-0.5-6.7-1.6-10c-1-3.3-2.3-6.3-3.8-8.9
			c-1.5-3.2-0.8-5.9,2-8.2l17-15.3C1635,803.5,1635.8,803.4,1636.6,804.2z M1748.3,778.2c7.5,0,14.3,1.4,20.2,4.1
			c5.9,2.7,11,6.6,15.3,11.7c4.2,5.1,7.5,11.1,9.8,18.1c2.3,7,3.4,14.7,3.4,23.2v71c0,1.9-0.6,3.5-1.8,4.8c-1.2,1.3-2.9,2-4.9,2
			H1771c-2.1,0-3.8-0.7-5.1-2c-1.3-1.3-2-2.9-2-4.8v-72.2c0-2.3-0.4-4.8-1.1-7.5c-0.8-2.7-2-5.3-3.7-7.6c-1.7-2.4-4-4.3-6.9-5.9
			c-2.9-1.6-6.6-2.4-11.2-2.4c-7.9,0-14.2,2.6-18.8,7.8c-4.6,5.2-6.9,12-6.9,20.5v67.3c0,1.9-0.7,3.5-2.1,4.8c-1.4,1.3-3.2,2-5.2,2
			h-18.7c-2.1,0-3.8-0.7-5.2-2c-1.4-1.3-2.1-2.9-2.1-4.8V788.9c0-1.7,0.7-3.2,2.1-4.4c1.4-1.2,3.2-1.8,5.2-1.8h17.3
			c2.1,0,3.7,0.6,5,1.8c1.2,1.2,1.8,2.7,1.8,4.4v1.7c0,0.8,0.3,1.4,1,1.8c0.7,0.5,1.1,0.7,1.3,0.7c1.7,0.4,2.9-0.1,3.7-1.4
			c3.2-4.3,7.5-7.7,13-10C1737.7,779.3,1743,778.2,1748.3,778.2z"/>
	</defs>
	<clipPath id="SVGID_5_">
		<use xlink:href="#SVGID_4_"  style="overflow:visible;"/>
	</clipPath>
	<linearGradient id="SVGID_6_" gradientUnits="userSpaceOnUse" x1="122.9998" y1="815.0767" x2="1797.0001" y2="815.0767">
		<stop  offset="0" style="stop-color:#FF0000"/>
		<stop  offset="0.1405" style="stop-color:#FF6000"/>
		<stop  offset="0.38" style="stop-color:#FFFF00"/>
		<stop  offset="0.4022" style="stop-color:#FCFF00"/>
		<stop  offset="0.4181" style="stop-color:#F3FF00"/>
		<stop  offset="0.4322" style="stop-color:#E3FF00"/>
		<stop  offset="0.445" style="stop-color:#CDFF00"/>
		<stop  offset="0.4572" style="stop-color:#B0FF00"/>
		<stop  offset="0.4687" style="stop-color:#8DFF00"/>
		<stop  offset="0.4798" style="stop-color:#62FF00"/>
		<stop  offset="0.4903" style="stop-color:#33FF00"/>
		<stop  offset="0.5" style="stop-color:#00FF00"/>
		<stop  offset="0.591" style="stop-color:#00FF47"/>
		<stop  offset="0.764" style="stop-color:#00FFCA"/>
		<stop  offset="0.84" style="stop-color:#00FFFF"/>
		<stop  offset="0.8582" style="stop-color:#00E0FF"/>
		<stop  offset="0.894" style="stop-color:#00AAFF"/>
		<stop  offset="0.9273" style="stop-color:#007FFF"/>
		<stop  offset="0.9571" style="stop-color:#0060FF"/>
		<stop  offset="0.9824" style="stop-color:#004DFF"/>
		<stop  offset="1" style="stop-color:#0046FF"/>
	</linearGradient>
	<rect x="123" y="429.3" class="st6" width="1674" height="771.6"/>
</g>
</svg>
