<?xml version="1.0" encoding="utf-8"?>
<!-- Generator: Adobe Illustrator 23.0.1, SVG Export Plug-In . SVG Version: 6.00 Build 0)  -->
<svg version="1.1" id="Layer_1" xmlns="http://www.w3.org/2000/svg" xmlns:xlink="http://www.w3.org/1999/xlink" x="0px" y="0px"
	 viewBox="0 0 1417.3 572" style="enable-background:new 0 0 1417.3 572;" xml:space="preserve">
<style type="text/css">
	.st0{fill:#101010;}
	.st1{opacity:0.5;}
	.st2{fill:#FFFFFF;}
	.st3{font-family:'Enso';}
	.st4{font-size:104.8855px;}
	.st5{font-size:65.8512px;}
	.st6{font-size:64.1998px;}
	.st7{fill:#F15A24;}
	.st8{fill:#0071BC;}
	.st9{fill:#006837;}
	.st10{fill:#C1272D;}
	.st11{fill:#666666;}
	.st12{fill:#D4145A;}
	.st13{enable-background:new    ;}
	.st14{font-size:82.2047px;}
	.st15{font-size:48.189px;}
</style>
<rect y="5.1" class="st0" width="1417.3" height="566.9"/>
<g class="st1">
	<path class="st2" d="M217,278.2c4.2,21.3,8.5,42.6,12.7,63.9c0.2,0,0.4,0,0.5,0c0.6-4.2,1.2-8.5,1.8-12.7
		c2.6-18.7,5.2-37.4,7.8-56.1c0.2-1.3-0.1-2.8-0.6-4c-5.5-12-11.2-24-16.7-36c-1-2.1-1.8-4.2-3-7c0.9,0.7,1.3,0.9,1.6,1.2
		c6.8,7.8,13.6,15.7,20.4,23.5c0.5,0.6,0.9,1.3,1.4,1.9c2.6,3.2,6.6,6,7.6,9.7c1.2,4.7,0.1,10-0.1,15c-1,27.1-2,54.1-3,81.2
		c0,0.4,0,0.9,0.3,1.4c2.3-5.5,4.5-11,6.8-16.5c7.7-18.7,15.3-37.4,23-56.1c3.1-7.7,6.3-15.3,9.3-23.1c0.5-1.4,0.7-3.1,0.4-4.6
		c-2.7-16.4-5.5-32.9-8.3-49.3c-0.1-0.8-0.2-1.6,0.2-2.6c6,8.3,11.9,16.6,17.8,24.9c0.5,0.7,0.6,1.6,0.7,2.5
		c2.4,21.3,4.9,42.6,7.3,63.9c0,0.3,0.2,0.7,0.6,1c0.9-5.2,1.7-10.5,2.6-15.7c2.6-16.2,5.3-32.4,7.8-48.6c0.2-1.5,0.1-3.2-0.3-4.6
		c-4.8-15.4-9.7-30.8-14.7-46.1c-0.4-1.2-1.4-2.5-2.5-3c-9.5-4.4-19-8.6-28.5-12.7c-0.9-0.4-2.4-0.2-3.3,0.3
		c-3.2,1.9-6.3,4.1-9.8,5.7c3.8-6.5,7.6-12.9,11.2-19.4c0.7-1.2,1.3-2.7,1.4-4.1c0.9-13.3,1.7-26.6,2.5-39.9c0-0.3,0-0.7-0.1-1.4
		c-3,2.6-5.8,5-8.6,7.4c-8,7-15.8,14.1-24,20.9c-3.3,2.7-7.3,4.6-11,6.7c-8.5,4.9-17,9.7-25.6,14.5c-0.2,0.1-0.5,0.1-1.1,0.3
		c0.4-0.6,0.5-1,0.7-1.2c3.1-2.1,4.1-5.1,4.3-8.8c0.3-6.6,1.1-13.2,1.8-20.6c-8,8.9-15.5,17.2-23,25.5c-0.2,0-0.4-0.1-0.6-0.1
		c0.2-1.3,0.3-2.6,0.5-4.3c-3.9,1.5-7.7,2.9-11.4,4.4c-1.7,0.7-3.5,1.2-5.2,2c-6.8,3.4-14,4.7-21.5,4.5c-1.7,0-2.7,0.6-3.4,2.3
		c-1.9,4.4-4,8.6-6.6,12.8c0.2-2.4,0.4-4.9,0.6-7.6c-7.2,1.4-14.1,2.8-21,4.2c-7.6,1.6-15.2,3.2-22.8,4.7c-3.2,0.6-6.7,0.7-6.2,5.5
		c-0.3-0.9-0.6-1.7-1.1-3c-5.4,1.8-10.8,3.5-16.6,5.4c2.1,3.2,4.1,6.1,6.2,9.2c0.9-0.8,1.7-1.5,2.8-2.6c-1,5.9,4.2,7.8,6.4,11.5
		c0.8,1.3,4.9-0.6,5.7-2.6c1-2.4,1.7-4.8,2.6-7.2c0.3-0.9,0.7-1.7,1-2.6c0.2,0.1,0.5,0.1,0.7,0.2c-0.5,3.5-0.9,7-1.5,10.5
		c-0.1,0.6-0.8,1.2-1.3,1.6c-1.1,1-2.3,1.9-3.5,2.8c-3.5,2.8-3.8,4.2-1.5,8.1c0.4,0.6,1.7,1,2.6,1c4.4,0,8.7-0.2,13.2,0.3
		c-2,0.6-4,1.1-6.3,1.8c2.9,7.1,5.7,14.2,8.6,21.4c1.8-6.4,3.6-12.6,5.6-19.6c0.3,2.5,0.5,4.4,0.7,6.5c5.1-2,10.1-3.8,15-5.9
		c1.2-0.5,1.8-2.3,2.7-3.5c0.6-0.8,1.1-1.7,1.7-2.6c0.2,0.1,0.4,0.1,0.7,0.2c-0.2,1.5-0.2,3-0.6,4.4c-0.5,2,0.2,2.9,2,3.5
		c9.6,3.2,19.2,6.6,28.8,9.9c3.9,1.3,7.7,2.7,11.6,4c-0.1,0.2-0.1,0.4-0.2,0.6c-4.9-0.9-9.7-1.9-14.6-2.8c-0.1,0.2-0.2,0.3-0.3,0.5
		c2.1,2.2,4.3,4.2,6.3,6.5c3.3,3.8,6.8,7.1,12.7,5.9c-0.1,0.3-0.1,0.6-0.2,0.9c-11.1,1.1-22.3,2.2-33.4,3.3c0-0.2-0.1-0.4-0.1-0.6
		c0.9-0.4,1.8-0.8,3.2-1.5c-8.5-2.7-16.5-5.3-24.9-8c0.5,1.4,0.8,2.5,1.2,3.6c-0.1,0.1-0.3,0.2-0.4,0.3c-3.7-3.6-7.5-7.2-11.2-10.8
		c-0.2,0.1-0.3,0.2-0.5,0.3c0.8,3.7,1.5,7.4,2.3,11.1c-0.2,0.1-0.5,0.2-0.7,0.3c-0.3-1-0.6-2-1-3.1c-4.3,1.4-8.1,2.6-12.2,3.9
		c2.6,6.9,5.2,13.4,7.8,20.2c1.1-0.8,2-1.5,3.6-2.7c-0.6,3-1.8,5.5-1.3,7.6s2.7,3.7,4.5,6c1.2-3.5,2.2-6.4,3.2-9.4
		c0.2,0,0.4,0.1,0.6,0.1c-0.1,2.7-0.3,5.4-0.5,9c3-3.7,5.9-6.6,8-9.9c0.9-1.5,0.4-3.9,0.9-6c0.8,2.3,1.5,4.6,2.4,7.3
		c4.8-2.4,9.6-4.8,14.3-7.2c0.1,0.1,0.2,0.3,0.3,0.4c-0.4,0.6-0.8,1.3-1.3,2.1c11.8,3.9,23.4,7.7,35,11.6c0,0.2-0.1,0.4-0.1,0.6
		c-4.2-0.5-8.4-0.9-13.2-1.4c3.2,4.1,6,7.7,8.9,11.2c2.1,2.7,4.4,5.3,6.4,8.1c0.6,0.9,0.9,2.5,0.6,3.5c-2.7,8-5.6,16-8.6,24.4
		c0.7-0.5,1.1-0.7,1.4-1.1c5.3-5.3,10.6-10.6,15.8-16c1-1.1,1.8-2.6,2.3-4c1.5-4.8,2.8-9.6,4.2-14.5c0.1,0.5,0.3,1,0.3,1.6
		c0,9.9,0.2,19.8-0.2,29.6c-0.1,3-1.6,6.1-2.7,9c-2.8,7.4-5.8,14.8-8.7,22.1c-0.1,0.2-0.1,0.5-0.2,1.1c5.4-4.1,10.5-8,15.6-11.9
		c3.5-2.7,7.1-5.3,10.5-8.1c0.8-0.6,1.4-1.8,1.5-2.8c1.7-16,3.2-31.9,4.9-47.9c0.1-0.5,0.2-1,0.3-1.5
		C216.6,278.1,216.8,278.1,217,278.2z M229.2,207.3c1.5-0.3,2.4-0.5,3.8-0.9c-14.4-7-28.3-13.8-42.2-20.6c0.1-0.2,0.2-0.4,0.3-0.6
		c2.2,0.7,4.3,1.5,6.5,2.2c17.6,6,35.2,12,52.8,18c2.1,0.7,3.3,1.8,4.2,3.9c4.7,12.2,9.6,24.4,14.5,36.6c0.6,1.6,1.2,3.1,1.8,4.7
		c-0.2,0.1-0.4,0.2-0.6,0.3c-7.6-11.1-15.2-22.1-22.7-33.2c-0.1,0.1-0.2,0.1-0.3,0.2c1.1,3.5,2.3,7.1,3.4,10.6
		c-0.2,0.1-0.4,0.2-0.6,0.3C243.1,221.7,236.3,214.6,229.2,207.3z M243,162.3c-7.9-0.9-15.2-1.7-22.5-2.5c0-0.2,0-0.5,0-0.7
		c4.8-1.8,9.7-3.5,14.6-5.3c0,0.7,0,1.2,0.1,1.8c8.1-6.4,16-12.6,24.5-19.4c-0.2,3.5,0.1,6.2-0.7,8.6c-0.5,1.7-2.3,3.1-3.5,4.6
		c0.2,0.3,0.3,0.5,0.5,0.8c0.6-0.8,1.2-1.6,1.9-2.4c0.2,0.3,0.4,0.5,0.6,0.8c-3.9,7.9-7.9,15.8-12.1,24.1c-2.1-3-3.9-5.5-5.7-8.1
		C241.4,164,242,163.3,243,162.3z M202.6,234.3c0.8,13.6,1.6,26.7,2.4,39.8c-3.1-12.2-5.8-24.4-7.9-36.7
		c-2.2-12.6-8.7-23.5-12.2-35.6c9.2,13,18.3,25.9,27.5,38.9c-0.2,0.1-0.4,0.3-0.5,0.4C209,239,206.1,236.9,202.6,234.3z M171,173.5
		c4.9-1.5,9.3-2.8,13.7-4.1c-9,6.5-18.6,11.4-29.8,12.3c-1.1,0.1-2.1-0.7-3.3,0.2c-1.7,1.2-3.7,2-5.5,3c-0.1-0.2-0.2-0.4-0.3-0.6
		c3.8-3.1,7.8-6,11.3-9.4c4.5-4.3,9.8-2,15.3-3.2C171.6,172.6,171.4,172.9,171,173.5z"/>
</g>
<g class="st1">
	<path class="st2" d="M1287.6,500c-2.2,0.5-3.7,1.7-4.8,3.3c-1.7,2.5-2.4,5.4-2.7,8.4c-0.8,7-0.2,14,0.7,21
		c0.6,5.2,1.4,10.3,2.1,15.6c-0.3,0.1-0.5,0.1-0.8,0.2c-10.9,0.4-21.8,0-32.7-1c-6.2-0.6-12.5-1.4-18.7-2.1c-0.6-0.1-1.1,0-1.7,0
		c-8.1,0.1-16.3,0.1-24.4,0.2c-0.9,0-1.9,0.3-2.5,0.8c-2,1.7-4.3,2.2-6.9,2.2c-10.4-0.1-20.9,0.1-31.3,0.2c-1.2,0-1.8-0.4-2.3-1.4
		c-1.4-2.8-1.3-5.6-0.8-8.5c0.2-1,0-1.5-1-1.9c-1.5-0.6-2.9-1.3-4.5-2c-0.1,0.7-0.3,1.3-0.4,2c-1.9,9.5-7.1,17-14.7,22.8
		c-14.7,11.3-31.1,15-49.2,9.8c-8.9-2.6-15.9-8.1-21.6-15.3c-7.3-9.3-12.1-19.7-12.2-31.7c-0.3-20.5,9.3-35.4,27.3-44.9
		c9.3-4.9,19.5-6.3,30-5.4c2.5,0.2,4.9,0.7,7.4,0.9c0.4,0,0.9-0.1,1.1-0.3c5.4-5.7,10.7-11.4,16-17.1c0,0,0-0.1,0-0.2
		c-1.2-1-2.5-2-3.6-3.2c-0.8-0.9-1.5-2-2.2-3c-0.2-0.3-0.4-0.7-0.7-0.9c-6.9-4.3-13.9-8.3-21.6-11.3c-1.7-0.6-3.2-0.4-4.8-0.2
		c-9.3,1.3-18.6,2.7-27.9,4c-1,0.1-1.8,0.5-2.5,1.3c-3.3,3.5-5.7,7.6-8.2,11.7c-2.9,4.7-5.9,9.4-9.1,14c-1.5,2.1-3.6,3.8-5.5,5.7
		c-0.1-0.1-0.3-0.2-0.4-0.3c1.1-2.9,2.3-5.7,3.5-8.8c-1.8,0-3.5,0-5.4,0c0.2-0.5,0.3-0.9,0.5-1.2c2.7-5.1,5.4-10.1,8-15.2
		c0.4-0.9,0.9-1,1.8-0.9c1.2,0.2,2.3,0.4,3.5,0.5c-0.6-4.9-2.7-8.1-8.3-8.9c0-1.5,0-3.1,0-4.8c2.1-0.3,4.2-0.6,6.3-0.8
		c4.9-0.3,9.7,0.2,14.4,1.4c0.9,0.2,1.9,0.2,2.8-0.1c4-1.2,8-2.5,12.2-3.9c-0.7-0.4-1.2-0.6-1.7-0.9c-4.3-2.1-8.5-4.5-12.2-7.7
		c-2.6-2.3-4.8-5-5.4-8.6c-0.1-0.5-0.1-1-0.2-1.8c0.5,0,1,0,1.5,0c15.1,0.4,30.2,0.7,45.3,1.1c0.4,0,1.1,0.4,1.2,0.7
		c1.5,6.6,5.1,12.1,9.4,17.1c1.6,1.9,3.3,3.7,5,5.6c3.8-2,7.6-1.1,11.4,0.1c11.8,3.9,23.9,4.9,36.2,4.1c0.5,0,1.1,0,1.6-0.1
		c2-0.1,4-0.1,5.7,1.3c0.5-1.1,0.9-2.2,1.3-3.1c5.6-12.3,15.1-19.4,28.3-21.7c14.9-2.6,29.5-0.9,43.6,4.5c2.6,1,5,2.4,7.3,4
		c2.7,1.8,4.5,4.5,4.9,8.1c1.9-1.3,3.7-2.5,5.7-3.8c-1.1-1-2.1-1.9-3-2.9c-2.6-2.6-2.4-3.4,0.9-4.7c3.8-1.6,7.7-3.1,11.5-4.6
		c0.8-0.3,1.2-0.8,1.4-1.6c1.4-4.8,0.6-9.5-1.6-13.9c-0.7-1.4-1.6-2.8-2.4-4.3c4.4-3.5,8.9-7,13.5-10.6c4.2,3.5,8.5,7,12.6,10.6
		c13.3,11.5,25.1,24.2,35.2,38.6c2.8,4,4.9,8.3,4.8,13.3c-0.1,4-1.4,7.6-3.4,11c-0.2,0.3-0.8,0.6-1.1,0.5c-5-0.8-9.5,0.5-13.6,3.3
		c-3.4,2.4-6.6,5.2-9.8,7.8c-0.1,0.1-0.2,0.3-0.4,0.5c13.3-1.2,25.5,1.3,36.5,8.9c-1.7,0.1-3.4,0.2-5.3,0.4c1.4,1.1,2.5,2.1,3.7,3.1
		c9.5,8.4,15.9,18.5,18.1,31.1c4.4,25.1-10.9,49.6-35.7,54.8c-24.2,5.1-46.5-5.9-56.2-27.8c-5.1-11.5-4.9-23.4-1.4-35.4
		C1285.7,505.1,1286.7,502.7,1287.6,500z M1309.4,501.5c-9.3,7.8-13.4,24-6.7,37.8c7.5,15.6,24.4,19.2,37.6,15.7
		c14.7-3.9,23.8-19.2,22-33.8c-0.8-6.8-3.8-12.6-8.7-17.4c-4.7-4.6-10.4-7.5-16.9-9.5c0.1,0.7,0.1,1.1,0.2,1.5
		c1.8,8.9,3.6,17.7,5.4,26.6c1.1,5.4-1.3,9.6-6.1,10.8c-3.4,0.9-5.6,0-7.5-2.8c-0.5-0.8-1.1-1.6-1.6-2.4c-0.5,0.3-0.9,0.5-1.3,0.7
		c-6.3,3.5-13.1,4.9-20.3,4.5c-0.7,0-1.3,0-1.6-1c-2.2-9.3-0.9-17.9,4.9-25.6c0.7-0.9,1.5-1.7,2.2-2.6c-0.2-0.3-0.4-0.6-0.6-0.9
		C1310.1,502.6,1309.8,502.1,1309.4,501.5z M1090.5,495.5c-0.5,0.3-0.9,0.6-1.3,0.8c-7.3,5.4-11.2,12.7-12,21.6
		c-0.8,9.6,1.7,18.3,8.3,25.4c8.3,8.9,19,10.8,30.3,8.5c13.3-2.7,19-13.2,23.3-24.9c-4.1-1.9-8.1-3.7-12.2-5.5
		c-0.1,0.5-0.2,0.8-0.3,1.1c-1.2,4.7-3.5,8.9-7.2,12.1c-5.9,5-15.7,7.9-23.8,1.4c-7.5-6-9-15.9-3.4-23.7c1.9-2.7,4.4-4.7,7.1-6.4
		c0.4-0.2,0.7-0.4,1.2-0.7C1097.1,501.9,1093.8,498.7,1090.5,495.5z M1184.7,498.3c0-3.2,0-6.2,0-9.1c0-0.9-0.2-1.6-0.8-2.2
		c-8.2-8.8-17.5-16.2-28-22.3c-0.7-0.4-1.3-0.5-2-0.1c-6.2,3.1-12.4,6.2-18.6,9.2c-0.3,0.2-0.6,0.4-1.2,0.7
		C1151.8,480.8,1168.5,488.8,1184.7,498.3z M1144.9,458.8c-3.1,3.3-6.1,6.4-9.1,9.6c0.1,0.1,0.1,0.1,0.2,0.2
		c4.5-2.4,9.1-4.9,13.8-7.4C1148,460.3,1146.5,459.6,1144.9,458.8z"/>
</g>
<text transform="matrix(0.9884 -0.1521 0.1521 0.9884 120.4792 490.2781)" class="st2 st3 st4">Brands!</text>
<text transform="matrix(0.9823 0.1873 -0.1873 0.9823 822.1 228.6455)" class="st2 st3 st5">Custom Designed</text>
<text transform="matrix(1 0 0 1 55.9665 69.9145)" class="st2 st3 st6">Lots of </text>
<text transform="matrix(1 0 0 1 281.6665 69.9145)" class="st7 st3 st6">c</text>
<text transform="matrix(1 0 0 1 307.2665 69.9145)" class="st8 st3 st6">o</text>
<text transform="matrix(1 0 0 1 341.8665 69.9145)" class="st9 st3 st6">l</text>
<text transform="matrix(1 0 0 1 357.8665 69.9145)" class="st10 st3 st6">o</text>
<text transform="matrix(1 0 0 1 392.4666 69.9145)" class="st11 st3 st6">r</text>
<text transform="matrix(1 0 0 1 416.3665 69.9145)" class="st12 st3 st6">s</text>
<g class="st13">
	<path class="st2" d="M504.4,68.3c0,0.5-0.2,0.9-0.5,1.2c-0.3,0.3-0.7,0.4-1.2,0.4h-4.2c-0.5,0-0.9-0.1-1.2-0.4
		c-0.3-0.3-0.5-0.7-0.5-1.2v-6.2c0-0.8,0-1.5,0-2.3s0-1.4,0-2.1c0-0.6,0-1.1,0-1.5s0-0.6,0-0.6c0-2-0.4-3.6-1.2-4.9
		c-0.8-1.3-1.9-2.3-3.3-3.1c-1-0.6-2.1-0.9-3.2-1c-1.1-0.1-2.2,0-3.2,0.3c-1,0.3-2,0.8-2.9,1.4c-0.9,0.7-1.6,1.5-2.2,2.5
		c-0.9,1.5-1.2,3-0.9,4.7c0.2,1.6,0.8,3.1,1.8,4.4c0.9,1.3,2.2,2.3,3.7,3c1.5,0.7,3.2,0.7,4.9,0.2c0.4-0.1,0.8-0.1,1.1,0.1
		c0.3,0.2,0.6,0.5,0.8,0.8l1.7,4.8c0.1,0.3,0,0.6-0.4,0.8c-2.3,0.8-4.5,1-6.7,0.8c-2.2-0.2-4.1-0.8-5.9-1.7
		c-1.8-0.9-3.3-2.2-4.6-3.7c-1.3-1.5-2.3-3.3-2.9-5.1c-0.6-1.9-0.9-3.9-0.7-6c0.1-2.1,0.7-4.2,1.8-6.3c0.9-1.8,2.2-3.3,3.9-4.6
		c1.6-1.3,3.4-2.2,5.3-2.8c1.9-0.6,3.9-0.8,5.9-0.5c2,0.2,3.9,0.9,5.6,2.1c0.3,0.3,0.6,0.5,0.9,0.4c0.3-0.1,0.4-0.4,0.4-0.8
		c0-0.4,0.2-0.8,0.5-1.2c0.3-0.3,0.7-0.5,1.1-0.5h4.6c0.5,0,0.9,0.2,1.2,0.5c0.3,0.3,0.5,0.7,0.5,1.2V68.3z"/>
	<path class="st2" d="M529.1,39.3c1.7,0,3.2,0.3,4.6,0.9c1.3,0.6,2.5,1.5,3.5,2.7c1,1.2,1.7,2.5,2.2,4.1c0.5,1.6,0.8,3.3,0.8,5.3
		v16.1c0,0.4-0.1,0.8-0.4,1.1c-0.3,0.3-0.7,0.4-1.1,0.4h-4.4c-0.5,0-0.9-0.1-1.2-0.4c-0.3-0.3-0.4-0.7-0.4-1.1V52
		c0-0.5-0.1-1.1-0.3-1.7c-0.2-0.6-0.4-1.2-0.8-1.7c-0.4-0.5-0.9-1-1.6-1.3c-0.7-0.4-1.5-0.5-2.5-0.5c-1.8,0-3.2,0.6-4.3,1.8
		c-1,1.2-1.6,2.7-1.6,4.7v15.3c0,0.4-0.2,0.8-0.5,1.1c-0.3,0.3-0.7,0.4-1.2,0.4h-4.2c-0.5,0-0.9-0.1-1.2-0.4
		c-0.3-0.3-0.5-0.7-0.5-1.1V41.7c0-0.4,0.2-0.7,0.5-1c0.3-0.3,0.7-0.4,1.2-0.4h3.9c0.5,0,0.8,0.1,1.1,0.4c0.3,0.3,0.4,0.6,0.4,1v0.4
		c0,0.2,0.1,0.3,0.2,0.4c0.1,0.1,0.2,0.2,0.3,0.2c0.4,0.1,0.7,0,0.8-0.3c0.7-1,1.7-1.7,3-2.3C526.7,39.6,527.9,39.3,529.1,39.3z"/>
	<path class="st2" d="M546.4,52.3c0.3-2.1,1-4,2.1-5.7c1.1-1.7,2.5-3.1,4.1-4.3c1.6-1.2,3.4-2,5.4-2.5s4.1-0.6,6.2-0.2
		c1.1,0.2,2.1,0.5,3,0.9c0.9,0.4,1.8,0.8,2.7,1.3V26.5c0-0.4,0.1-0.8,0.4-1.1c0.3-0.3,0.6-0.4,1-0.4h4.4c0.5,0,0.9,0.2,1.2,0.4
		c0.3,0.3,0.5,0.7,0.5,1.1v41.9c0,0.4-0.2,0.8-0.5,1.1c-0.3,0.3-0.7,0.4-1.2,0.4h-4.4c-0.4,0-0.7-0.1-1-0.4
		c-0.3-0.3-0.4-0.7-0.4-1.1v-15c0-0.8-0.2-1.6-0.5-2.3c-0.4-0.7-0.9-1.4-1.5-2c-0.6-0.6-1.3-1.1-2.2-1.5c-0.8-0.4-1.7-0.7-2.7-0.8
		c-1.2-0.2-2.3-0.1-3.4,0.2c-1.1,0.3-2.1,0.7-2.9,1.3c-0.9,0.6-1.6,1.4-2.2,2.3c-0.6,0.9-1,2-1.1,3.1c-0.2,1.1-0.1,2.2,0.1,3.3
		c0.3,1.1,0.7,2,1.3,2.9c0.6,0.9,1.4,1.6,2.3,2.2c0.9,0.6,1.9,1,3,1.2c0.6,0.1,1.2,0.1,1.7,0.1c0.6,0,1.1-0.1,1.7-0.3
		c0.4-0.2,0.8-0.1,1.1,0.1c0.4,0.2,0.6,0.6,0.7,1l1.5,4.4c0.1,0.4,0.1,0.7,0,0.9c-0.1,0.2-0.3,0.2-0.4,0.3c-1.2,0.3-2.4,0.5-3.7,0.7
		c-1.3,0.2-2.5,0.1-3.8-0.1c-2.1-0.3-4.1-1.1-5.8-2.2c-1.7-1.1-3.1-2.5-4.3-4.1c-1.2-1.6-2-3.4-2.5-5.4
		C546.1,56.5,546,54.4,546.4,52.3z"/>
	<path class="st2" d="M615.9,51.1c1.8,0.3,3.5,0.6,5,1c1.5,0.4,2.9,0.9,4,1.6c1.1,0.7,2,1.6,2.7,2.6c0.6,1.1,1,2.4,1,4
		c0,1.4-0.3,2.7-0.9,3.9c-0.6,1.2-1.5,2.3-2.6,3.1c-1.1,0.9-2.5,1.5-4.1,2c-1.6,0.5-3.3,0.7-5.3,0.7c-1.4,0-2.8-0.2-4.1-0.5
		c-1.3-0.4-2.5-0.9-3.6-1.6s-2-1.6-2.8-2.6c-0.8-1-1.4-2.2-1.8-3.5c-0.3-0.5-0.2-0.9,0.2-1.4c0.3-0.4,0.7-0.6,1.2-0.6h4.6
		c0.5,0,0.9,0.2,1.3,0.6c0.7,1.1,1.6,1.8,2.6,2.2c1,0.4,1.9,0.6,2.9,0.6c1.5,0,2.7-0.2,3.6-0.6c0.9-0.4,1.4-1,1.4-1.9
		c0-0.4-0.1-0.8-0.3-1.1c-0.2-0.3-0.5-0.6-0.9-0.9c-0.4-0.3-1.1-0.5-1.9-0.7c-0.8-0.2-1.8-0.4-3.1-0.6c-1.1-0.2-2.3-0.4-3.6-0.7
		c-1.3-0.3-2.6-0.8-3.7-1.4c-1.2-0.6-2.1-1.5-2.9-2.5c-0.8-1-1.2-2.4-1.2-4c0-1.2,0.3-2.3,0.8-3.4c0.5-1.1,1.3-2.2,2.2-3
		c1-0.9,2.2-1.6,3.6-2.2c1.4-0.6,3.1-0.8,5-0.8c3,0,5.5,0.7,7.6,2c2.1,1.3,3.6,3.1,4.6,5.3c0.1,0.5,0,1-0.3,1.3
		c-0.1,0.2-0.3,0.4-0.5,0.5c-0.3,0.1-0.5,0.2-0.8,0.2h-4.6c-0.3,0-0.5-0.1-0.7-0.2c-0.2-0.1-0.5-0.3-0.7-0.5
		c-0.3-0.5-0.9-0.9-1.8-1.3c-0.9-0.3-1.8-0.5-2.8-0.5c-0.9,0-1.5,0-2.1,0.1c-0.5,0.1-0.9,0.3-1.2,0.6c-0.3,0.3-0.5,0.5-0.5,0.9
		c-0.1,0.3-0.1,0.6-0.1,0.9c0,0.7,0.3,1.2,0.9,1.5C612.8,50.4,614,50.7,615.9,51.1z"/>
</g>
<text transform="matrix(1 0 0 1 629.4666 69.9145)" class="st2 st3 st14">i</text>
<text transform="matrix(1 0 0 1 650.3665 69.9145)" class="st2 st3 st6">z</text>
<text transform="matrix(1 0 0 1 678.6665 69.9145)" class="st2 st3 st15">e</text>
<text transform="matrix(1 0 0 1 703.7665 69.9145)" class="st2 st3 st6">s</text>
</svg>
