<?xml version="1.0" encoding="utf-8"?>
<!-- Generator: Adobe Illustrator 23.0.1, SVG Export Plug-In . SVG Version: 6.00 Build 0)  -->
<svg version="1.1" id="Layer_1" xmlns="http://www.w3.org/2000/svg" xmlns:xlink="http://www.w3.org/1999/xlink" x="0px" y="0px"
	 viewBox="0 0 294.7 84.2" style="enable-background:new 0 0 294.7 84.2;" xml:space="preserve">
<style type="text/css">
	.st0{fill:#0046E1;stroke:#FFFFFF;stroke-width:0.2835;stroke-miterlimit:10;}
	.st1{fill:#FFFFFF;}
	.st2{fill:#00E100;stroke:#FFFFFF;stroke-width:0.2835;stroke-miterlimit:10;}
	.st3{fill:#E10000;stroke:#FFFFFF;stroke-width:0.2835;stroke-miterlimit:10;}
	.st4{clip-path:url(#SVGID_1_);fill:url(#SVGID_2_);}
</style>
<g>
	<g>
		<g>
			<g>
				<polygon class="st0" points="67.6,59.4 67.6,42.4 52.9,33.9 6.3,51.9 6.3,68.9 21,77.4 				"/>
				<polyline class="st0" points="21.1,60.3 21.1,77.4 67.6,59.5 67.6,42.5 67,42.1 52.9,34 6.3,52 21.1,60.3 67.6,42.5 				"/>
			</g>
			<g>
				<path class="st1" d="M26.4,65.2l0.9-0.4c0.2-0.1,0.5-0.1,0.6-0.2c0.2,0,0.3,0.1,0.5,0.2c0.4,0.3,0.5,1,0.5,1.9
					c0,0.3,0,0.6-0.1,0.9c0,0.3-0.1,0.5-0.2,0.8c-0.1,0.2-0.2,0.5-0.3,0.7c-0.1,0.2-0.2,0.3-0.3,0.4s-0.2,0.2-0.4,0.3
					c-0.1,0.1-0.3,0.2-0.4,0.2l-0.9,0.4c-0.1,0.1-0.2,0.1-0.3,0s-0.1-0.1-0.1-0.2c0-0.1,0-0.2,0-0.4l0.1-3.8c0-0.2,0-0.4,0.1-0.5
					C26.1,65.4,26.2,65.3,26.4,65.2z M26.7,65.9l-0.1,3.5l0.5-0.2c0.1,0,0.2-0.1,0.3-0.1c0.1,0,0.1-0.1,0.2-0.2
					c0.1-0.1,0.1-0.1,0.2-0.2c0.2-0.4,0.4-1,0.4-1.7c0-0.5,0-0.9-0.1-1.1c-0.1-0.2-0.2-0.3-0.4-0.3c-0.2,0-0.3,0-0.6,0.1L26.7,65.9z
					"/>
				<path class="st1" d="M29.6,68.6l0.1-4.1c0-0.2,0-0.4,0.1-0.5c0.1-0.1,0.2-0.2,0.3-0.3c0.1,0,0.2,0,0.3,0.1s0.1,0.2,0.1,0.4
					l-0.1,4.1c0,0.2,0,0.4-0.1,0.5c-0.1,0.1-0.2,0.2-0.3,0.3c-0.1,0-0.2,0-0.3-0.1C29.6,68.9,29.6,68.8,29.6,68.6z"/>
				<path class="st1" d="M34.4,65.1l0,1c0,0.1,0,0.2,0,0.3c0,0.1-0.1,0.2-0.1,0.3s-0.1,0.2-0.2,0.3c-0.2,0.3-0.4,0.5-0.6,0.6
					s-0.4,0.3-0.7,0.4C32.5,68,32.2,68.1,32,68c-0.2,0-0.4-0.1-0.6-0.3s-0.3-0.4-0.3-0.7C31,66.7,31,66.4,31,66
					c0-0.4,0.1-0.8,0.1-1.2s0.2-0.7,0.4-1c0.2-0.3,0.4-0.6,0.6-0.8c0.2-0.2,0.5-0.4,0.8-0.5c0.2-0.1,0.5-0.1,0.6-0.1
					c0.2,0,0.3,0.1,0.4,0.2c0.1,0.1,0.2,0.2,0.3,0.3c0.1,0.1,0.1,0.3,0.1,0.4c0,0.1,0,0.3-0.1,0.4c-0.1,0.1-0.2,0.2-0.2,0.2
					c-0.1,0-0.1,0-0.1,0c0,0-0.1-0.1-0.1-0.1c-0.1-0.2-0.2-0.3-0.2-0.4c-0.1-0.1-0.1-0.1-0.2-0.2c-0.1,0-0.2,0-0.4,0.1
					c-0.2,0.1-0.3,0.2-0.4,0.3c-0.1,0.1-0.2,0.3-0.3,0.5c-0.1,0.2-0.2,0.4-0.2,0.7c-0.1,0.3-0.1,0.5-0.1,0.8c0,0.6,0.1,1,0.3,1.3
					c0.2,0.3,0.4,0.3,0.8,0.2c0.2-0.1,0.3-0.2,0.5-0.3s0.3-0.3,0.5-0.5l0-0.8l-0.6,0.2c-0.1,0.1-0.2,0.1-0.3,0
					c-0.1,0-0.1-0.1-0.1-0.3c0-0.1,0-0.2,0.1-0.3c0.1-0.1,0.1-0.2,0.2-0.2l0.8-0.3c0.1,0,0.2-0.1,0.3-0.1c0.1,0,0.1,0,0.2,0.1
					C34.4,64.8,34.4,64.9,34.4,65.1z"/>
				<path class="st1" d="M35.1,66.4l0.1-4.1c0-0.2,0-0.4,0.1-0.5c0.1-0.1,0.2-0.2,0.3-0.3c0.1,0,0.2,0,0.3,0.1
					c0.1,0.1,0.1,0.2,0.1,0.4l-0.1,4.1c0,0.2,0,0.4-0.1,0.5c-0.1,0.1-0.2,0.2-0.3,0.3c-0.1,0-0.2,0-0.3-0.1
					C35.1,66.7,35.1,66.6,35.1,66.4z"/>
				<path class="st1" d="M39,61l-0.8,0.3l-0.1,3.8c0,0.2,0,0.4-0.1,0.5c-0.1,0.1-0.2,0.2-0.3,0.3c-0.1,0-0.2,0-0.3-0.1
					c-0.1-0.1-0.1-0.2-0.1-0.4l0.1-3.8l-0.8,0.3c-0.1,0-0.2,0-0.3,0c-0.1-0.1-0.1-0.1-0.1-0.3c0-0.1,0-0.3,0.1-0.4
					c0.1-0.1,0.2-0.2,0.3-0.2l2.3-0.9c0.1,0,0.2,0,0.3,0c0.1,0.1,0.1,0.2,0.1,0.3c0,0.1,0,0.2-0.1,0.4C39.2,60.9,39.1,61,39,61z"/>
				<path class="st1" d="M41.7,63.7l-0.2-0.6l-1.4,0.6l-0.2,0.7c-0.1,0.3-0.1,0.5-0.2,0.6c0,0.1-0.1,0.2-0.2,0.2
					c-0.1,0-0.2,0-0.2-0.1c-0.1-0.1-0.1-0.2-0.1-0.3c0-0.1,0-0.1,0-0.2c0-0.1,0-0.2,0.1-0.3l1-3.8c0-0.1,0.1-0.2,0.1-0.4
					c0-0.2,0.1-0.3,0.1-0.4s0.1-0.2,0.2-0.3c0.1-0.1,0.2-0.1,0.3-0.2c0.1,0,0.2,0,0.2,0c0.1,0,0.1,0.1,0.2,0.2
					c0,0.1,0.1,0.2,0.1,0.2c0,0.1,0.1,0.2,0.1,0.4l0.9,3c0.1,0.2,0.1,0.4,0.1,0.5c0,0.1,0,0.2-0.1,0.4c-0.1,0.1-0.2,0.2-0.3,0.3
					c-0.1,0-0.1,0-0.1,0c0,0-0.1,0-0.1-0.1c0,0-0.1-0.1-0.1-0.2C41.7,63.8,41.7,63.8,41.7,63.7z M40.3,62.8l1.1-0.4l-0.5-1.9
					L40.3,62.8z"/>
				<path class="st1" d="M43.8,58.8l-0.1,3.8l1.5-0.6c0.1,0,0.2,0,0.3,0c0.1,0.1,0.1,0.2,0.1,0.3c0,0.1,0,0.2-0.1,0.3
					c-0.1,0.1-0.2,0.2-0.3,0.2l-1.7,0.7c-0.2,0.1-0.3,0.1-0.3,0c-0.1-0.1-0.1-0.2-0.1-0.5l0.1-4c0-0.2,0-0.4,0.1-0.5
					c0.1-0.1,0.2-0.2,0.3-0.3c0.1,0,0.2,0,0.3,0.1C43.7,58.4,43.8,58.6,43.8,58.8z"/>
				<path class="st1" d="M48.6,59.5L48,59.7l0,1.5c0,0.2,0,0.4-0.1,0.5S47.7,62,47.6,62c-0.1,0-0.2,0-0.3-0.1
					c-0.1-0.1-0.1-0.2-0.1-0.4l0.1-4c0-0.2,0-0.4,0.1-0.5s0.2-0.2,0.4-0.3l0.9-0.4c0.3-0.1,0.5-0.2,0.6-0.2c0.1,0,0.3,0,0.4,0.1
					c0.1,0.1,0.2,0.2,0.2,0.4c0.1,0.2,0.1,0.4,0.1,0.6c0,0.5-0.1,1-0.4,1.3S49.1,59.3,48.6,59.5z M48.5,57.1L48,57.3l0,1.6l0.5-0.2
					c0.2-0.1,0.3-0.2,0.4-0.2c0.1-0.1,0.2-0.2,0.3-0.4c0.1-0.1,0.1-0.3,0.1-0.5c0-0.2,0-0.4-0.1-0.5C49,57,48.8,57,48.5,57.1z"/>
				<path class="st1" d="M51.5,58.1l-0.3,0.1l0,1.7c0,0.2,0,0.4-0.1,0.5s-0.2,0.2-0.3,0.3c-0.1,0-0.2,0-0.3-0.1
					c-0.1-0.1-0.1-0.2-0.1-0.4l0.1-4c0-0.2,0-0.4,0.1-0.5c0.1-0.1,0.2-0.2,0.3-0.3l1.2-0.5c0.2-0.1,0.3-0.1,0.4-0.1
					c0.1,0,0.2,0,0.3,0c0.1,0,0.2,0.1,0.3,0.2c0.1,0.1,0.1,0.2,0.2,0.4c0,0.2,0.1,0.3,0.1,0.5c0,0.4-0.1,0.7-0.2,1
					c-0.2,0.3-0.4,0.5-0.7,0.8c0.1,0,0.2,0.1,0.4,0.3c0.1,0.1,0.2,0.3,0.3,0.5c0.1,0.2,0.2,0.4,0.2,0.5c0,0.2,0.1,0.3,0.1,0.3
					c0,0.1,0,0.1,0,0.2c0,0.1-0.1,0.1-0.1,0.2c-0.1,0.1-0.1,0.1-0.2,0.1c-0.1,0-0.1,0-0.2,0c-0.1,0-0.1-0.1-0.1-0.2
					c0-0.1-0.1-0.2-0.2-0.3l-0.3-0.6c-0.1-0.2-0.2-0.4-0.3-0.5c-0.1-0.1-0.2-0.2-0.2-0.2S51.7,58.1,51.5,58.1z M52,55.8L51.3,56
					l0,1.4l0.6-0.3c0.2-0.1,0.3-0.1,0.4-0.2c0.1-0.1,0.2-0.2,0.3-0.3c0.1-0.1,0.1-0.3,0.1-0.5c0-0.1,0-0.3-0.1-0.4
					c0-0.1-0.1-0.1-0.2-0.2C52.4,55.6,52.3,55.7,52,55.8z"/>
				<path class="st1" d="M54.1,58.7l0.1-4.1c0-0.2,0-0.4,0.1-0.5c0.1-0.1,0.2-0.2,0.3-0.3c0.1,0,0.2,0,0.3,0.1
					c0.1,0.1,0.1,0.2,0.1,0.4l-0.1,4.1c0,0.2,0,0.4-0.1,0.5s-0.2,0.2-0.3,0.3c-0.1,0-0.2,0-0.3-0.1S54.1,59,54.1,58.7z"/>
				<path class="st1" d="M56.7,53.6l1.3,2.5l0.1-3.1c0-0.2,0-0.4,0.1-0.5c0.1-0.1,0.1-0.2,0.2-0.2c0.1,0,0.2,0,0.2,0.1
					s0.1,0.2,0.1,0.4l-0.1,4.1c0,0.5-0.1,0.7-0.4,0.8c-0.1,0-0.1,0-0.2,0c-0.1,0-0.1,0-0.1-0.1c0,0-0.1-0.1-0.1-0.2
					c0-0.1-0.1-0.1-0.1-0.2l-1.3-2.5l-0.1,3.1c0,0.2,0,0.4-0.1,0.5c-0.1,0.1-0.1,0.2-0.2,0.3c-0.1,0-0.2,0-0.2-0.1s-0.1-0.2-0.1-0.4
					l0.1-4c0-0.2,0-0.3,0-0.4c0-0.1,0.1-0.2,0.2-0.3c0.1-0.1,0.2-0.2,0.2-0.2c0.1,0,0.1,0,0.2,0s0.1,0,0.1,0.1s0.1,0.1,0.1,0.2
					C56.6,53.5,56.7,53.6,56.7,53.6z"/>
				<path class="st1" d="M61.8,51.9l-0.8,0.3L61,56c0,0.2,0,0.4-0.1,0.5c-0.1,0.1-0.2,0.2-0.3,0.3c-0.1,0-0.2,0-0.3-0.1
					c-0.1-0.1-0.1-0.2-0.1-0.4l0.1-3.8l-0.8,0.3c-0.1,0-0.2,0-0.3,0c-0.1-0.1-0.1-0.1-0.1-0.3c0-0.1,0-0.3,0.1-0.4
					c0.1-0.1,0.2-0.2,0.3-0.2l2.3-0.9c0.1,0,0.2,0,0.3,0c0.1,0.1,0.1,0.2,0.1,0.3c0,0.1,0,0.2-0.1,0.4C62.1,51.8,62,51.8,61.8,51.9z
					"/>
				<path class="st1" d="M62.6,55.4l0.1-4.1c0-0.2,0-0.4,0.1-0.5c0.1-0.1,0.2-0.2,0.3-0.3c0.1,0,0.2,0,0.3,0.1
					c0.1,0.1,0.1,0.2,0.1,0.4l-0.1,4.1c0,0.2,0,0.4-0.1,0.5c-0.1,0.1-0.2,0.2-0.3,0.3c-0.1,0-0.2,0-0.3-0.1S62.6,55.6,62.6,55.4z"/>
				<path class="st1" d="M65.2,50.2l1.3,2.5l0.1-3.1c0-0.2,0-0.4,0.1-0.5c0.1-0.1,0.1-0.2,0.2-0.2c0.1,0,0.2,0,0.2,0.1
					s0.1,0.2,0.1,0.4l-0.1,4.1c0,0.5-0.1,0.7-0.4,0.8c-0.1,0-0.1,0-0.2,0c-0.1,0-0.1,0-0.1-0.1c0,0-0.1-0.1-0.1-0.2
					c0-0.1-0.1-0.1-0.1-0.2l-1.3-2.5l-0.1,3.1c0,0.2,0,0.4-0.1,0.5c-0.1,0.1-0.1,0.2-0.2,0.3c-0.1,0-0.2,0-0.2-0.1
					c-0.1-0.1-0.1-0.2-0.1-0.4l0.1-4c0-0.2,0-0.3,0-0.4c0-0.1,0.1-0.2,0.2-0.3c0.1-0.1,0.2-0.2,0.2-0.2c0.1,0,0.1,0,0.2,0
					c0,0,0.1,0,0.1,0.1c0,0,0.1,0.1,0.1,0.2C65.1,50.1,65.1,50.2,65.2,50.2z"/>
				<path class="st1" d="M71.2,50.4l0,1c0,0.1,0,0.2,0,0.3c0,0.1-0.1,0.2-0.1,0.3c0,0.1-0.1,0.2-0.2,0.3c-0.2,0.3-0.4,0.5-0.6,0.6
					s-0.4,0.3-0.7,0.4c-0.3,0.1-0.5,0.1-0.7,0.1c-0.2,0-0.4-0.1-0.6-0.3s-0.3-0.4-0.3-0.7c-0.1-0.3-0.1-0.7-0.1-1.1
					c0-0.4,0.1-0.8,0.1-1.2c0.1-0.4,0.2-0.7,0.4-1c0.2-0.3,0.4-0.6,0.6-0.8c0.2-0.2,0.5-0.4,0.8-0.5c0.2-0.1,0.5-0.1,0.6-0.1
					c0.2,0,0.3,0.1,0.4,0.2s0.2,0.2,0.3,0.3c0.1,0.1,0.1,0.3,0.1,0.4c0,0.1,0,0.3-0.1,0.4c-0.1,0.1-0.2,0.2-0.2,0.2
					c-0.1,0-0.1,0-0.1,0c0,0-0.1-0.1-0.1-0.1c-0.1-0.2-0.2-0.3-0.2-0.4c-0.1-0.1-0.1-0.1-0.2-0.2c-0.1,0-0.2,0-0.4,0.1
					c-0.2,0.1-0.3,0.2-0.4,0.3c-0.1,0.1-0.2,0.3-0.3,0.5c-0.1,0.2-0.2,0.4-0.2,0.7c-0.1,0.3-0.1,0.5-0.1,0.8c0,0.6,0.1,1,0.3,1.3
					c0.2,0.3,0.4,0.3,0.8,0.2c0.2-0.1,0.3-0.2,0.5-0.3s0.3-0.3,0.5-0.5l0-0.8L70,51c-0.1,0.1-0.2,0.1-0.3,0c-0.1,0-0.1-0.1-0.1-0.3
					c0-0.1,0-0.2,0.1-0.3c0.1-0.1,0.1-0.2,0.2-0.2l0.8-0.3c0.1,0,0.2-0.1,0.3-0.1c0.1,0,0.1,0,0.2,0.1
					C71.2,50.1,71.2,50.2,71.2,50.4z"/>
			</g>
		</g>
		<g>
			<g>
				<polygon class="st2" points="104.1,59.1 104.1,42.1 89.4,33.6 42.8,51.6 42.8,68.6 57.5,77.1 				"/>
				<polyline class="st2" points="57.6,60 57.6,77.1 104.1,59.2 104.1,42.2 103.6,41.8 89.4,33.7 42.8,51.7 57.6,60 104.1,42.2 				
					"/>
			</g>
			<g>
				<path class="st1" d="M67.5,69.1l0-6.8c0-0.4,0.1-0.6,0.2-0.9c0.1-0.2,0.3-0.4,0.5-0.5c0.2-0.1,0.4-0.1,0.5,0.1
					c0.1,0.1,0.2,0.4,0.2,0.7l0,6.8c0,0.4-0.1,0.7-0.2,0.9c-0.1,0.2-0.3,0.4-0.5,0.5c-0.2,0.1-0.4,0.1-0.5-0.1
					C67.6,69.7,67.5,69.4,67.5,69.1z"/>
				<path class="st1" d="M71.5,59.8l1.9-0.7c0.5-0.2,0.9-0.3,1.3-0.3c0.4,0,0.7,0.1,1,0.3c0.7,0.5,1.1,1.5,1.1,3.1
					c0,0.5,0,1-0.1,1.5c-0.1,0.5-0.2,0.9-0.4,1.3c-0.2,0.4-0.4,0.8-0.6,1.2c-0.2,0.3-0.4,0.5-0.6,0.7c-0.2,0.2-0.5,0.4-0.7,0.5
					s-0.6,0.3-0.9,0.4l-1.9,0.7c-0.3,0.1-0.5,0.1-0.6,0.1c-0.1,0-0.2-0.1-0.3-0.3c0-0.2-0.1-0.4-0.1-0.7l0-6.4
					c0-0.4,0.1-0.7,0.2-0.9C71,60.1,71.2,59.9,71.5,59.8z M72.1,61l0,5.9l1.1-0.4c0.2-0.1,0.4-0.2,0.6-0.2c0.1-0.1,0.3-0.2,0.4-0.3
					c0.1-0.1,0.3-0.3,0.4-0.4c0.5-0.7,0.7-1.6,0.8-2.8c0-0.9-0.1-1.5-0.3-1.8c-0.2-0.3-0.5-0.5-0.8-0.5c-0.3,0-0.7,0.1-1.1,0.3
					L72.1,61z"/>
				<path class="st1" d="M82.8,56.9l-3.3,1.2l0,2.1l3-1.1c0.2-0.1,0.4-0.1,0.5,0c0.1,0.1,0.2,0.2,0.2,0.4c0,0.2-0.1,0.4-0.2,0.5
					c-0.1,0.2-0.3,0.3-0.5,0.4l-3,1.1l0,2.5l3.4-1.3c0.2-0.1,0.4-0.1,0.5,0c0.1,0.1,0.2,0.2,0.2,0.4c0,0.2-0.1,0.4-0.2,0.6
					c-0.1,0.2-0.3,0.3-0.5,0.4l-4,1.5c-0.3,0.1-0.5,0.1-0.7,0c-0.1-0.1-0.2-0.4-0.2-0.7l0-6.5c0-0.3,0-0.5,0.1-0.7
					c0.1-0.2,0.2-0.3,0.3-0.5c0.1-0.1,0.3-0.2,0.5-0.3l3.9-1.4c0.2-0.1,0.4-0.1,0.5,0c0.1,0.1,0.2,0.2,0.2,0.4
					c0,0.2-0.1,0.4-0.2,0.6C83.2,56.7,83.1,56.8,82.8,56.9z"/>
				<path class="st1" d="M89.4,60.8l-0.3-1l-2.9,1.1l-0.4,1.2c-0.1,0.5-0.3,0.8-0.4,1c-0.1,0.2-0.3,0.3-0.5,0.4
					c-0.2,0.1-0.3,0-0.5-0.1c-0.1-0.1-0.2-0.3-0.2-0.5c0-0.1,0-0.2,0.1-0.4c0-0.1,0.1-0.3,0.2-0.6l1.9-6.3c0.1-0.2,0.1-0.4,0.2-0.7
					c0.1-0.3,0.2-0.5,0.2-0.7c0.1-0.2,0.2-0.3,0.3-0.5c0.1-0.1,0.3-0.3,0.5-0.3c0.2-0.1,0.4-0.1,0.5-0.1c0.1,0,0.2,0.1,0.3,0.2
					c0.1,0.1,0.2,0.2,0.2,0.4c0.1,0.1,0.1,0.3,0.2,0.6l1.8,4.9c0.1,0.4,0.2,0.7,0.2,0.8c0,0.2-0.1,0.4-0.2,0.6
					c-0.1,0.2-0.3,0.4-0.5,0.4c-0.1,0-0.2,0.1-0.3,0c-0.1,0-0.2-0.1-0.2-0.1c-0.1-0.1-0.1-0.2-0.2-0.3C89.5,61,89.4,60.9,89.4,60.8z
					 M86.5,59.5l2.2-0.8l-1.1-3.2L86.5,59.5z"/>
				<path class="st1" d="M97.5,56.1c0,0.5-0.1,1-0.3,1.5c-0.2,0.5-0.6,1-1,1.4c-0.4,0.4-0.9,0.7-1.5,0.9c-0.7,0.3-1.3,0.3-1.8,0.2
					c-0.3-0.1-0.6-0.3-0.8-0.6c-0.2-0.3-0.3-0.7-0.3-1c0-0.2,0.1-0.4,0.2-0.6c0.1-0.2,0.3-0.3,0.5-0.4c0.2-0.1,0.3,0,0.4,0
					c0.1,0.1,0.2,0.2,0.3,0.4c0.1,0.2,0.2,0.4,0.3,0.6c0.1,0.1,0.3,0.2,0.4,0.3c0.2,0,0.4,0,0.8-0.1c0.4-0.2,0.8-0.4,1.1-0.8
					c0.3-0.3,0.4-0.7,0.4-1.1c0-0.3-0.1-0.5-0.2-0.6c-0.1-0.1-0.3-0.2-0.6-0.2c-0.2,0-0.5,0-0.9,0c-0.5,0-0.9,0-1.3,0
					c-0.3-0.1-0.6-0.2-0.8-0.5c-0.2-0.3-0.3-0.6-0.3-1.1c0-0.5,0.1-0.9,0.3-1.4c0.2-0.5,0.5-0.9,0.9-1.2c0.4-0.4,0.9-0.6,1.4-0.8
					c0.4-0.2,0.8-0.2,1.1-0.2c0.3,0,0.6,0.1,0.8,0.2c0.2,0.1,0.4,0.3,0.5,0.5c0.1,0.2,0.1,0.4,0.1,0.6c0,0.2-0.1,0.4-0.2,0.6
					c-0.1,0.2-0.3,0.4-0.5,0.4c-0.2,0.1-0.3,0.1-0.4,0c-0.1-0.1-0.2-0.2-0.3-0.4c-0.1-0.3-0.3-0.5-0.5-0.6c-0.2-0.1-0.5-0.1-0.9,0.1
					c-0.4,0.1-0.7,0.4-0.9,0.6c-0.2,0.3-0.3,0.6-0.4,0.8c0,0.2,0,0.3,0.1,0.4c0.1,0.1,0.2,0.2,0.3,0.2c0.1,0,0.3,0.1,0.4,0.1
					c0.1,0,0.4,0,0.7,0c0.4,0,0.8-0.1,1.1,0c0.3,0,0.6,0.1,0.8,0.2c0.2,0.1,0.4,0.3,0.5,0.5C97.4,55.3,97.5,55.7,97.5,56.1z"/>
			</g>
		</g>
		<g>
			<g>
				<polygon class="st3" points="110.2,32.1 110.2,15.1 95.5,6.6 48.9,24.7 48.9,41.7 63.6,50.2 				"/>
				<polyline class="st3" points="63.7,33.1 63.7,50.2 110.2,32.2 110.2,15.2 109.7,14.9 95.5,6.7 49,24.8 63.7,33.1 110.2,15.2 
									"/>
			</g>
			<g>
				<path class="st1" d="M77.7,38.6c0,0.6-0.2,1.1-0.4,1.6c-0.3,0.5-0.6,1-1.1,1.4c-0.5,0.4-1,0.7-1.6,1c-0.7,0.3-1.4,0.3-1.8,0.1
					c-0.3-0.1-0.6-0.4-0.8-0.7c-0.2-0.3-0.3-0.7-0.3-1.1c0-0.2,0.1-0.4,0.2-0.7s0.3-0.3,0.5-0.4c0.2-0.1,0.3,0,0.4,0
					s0.2,0.2,0.3,0.5c0.1,0.3,0.2,0.5,0.3,0.6c0.1,0.2,0.3,0.3,0.5,0.3c0.2,0.1,0.5,0,0.8-0.1c0.5-0.2,0.8-0.4,1.1-0.8
					c0.3-0.4,0.5-0.7,0.5-1.1c0-0.3,0-0.5-0.2-0.7c-0.1-0.1-0.3-0.2-0.6-0.2s-0.6,0-1,0c-0.5,0-1,0-1.3-0.1
					c-0.4-0.1-0.6-0.3-0.8-0.6s-0.3-0.7-0.3-1.2c0-0.5,0.2-1,0.4-1.5c0.2-0.5,0.6-0.9,1-1.3c0.4-0.4,1-0.7,1.5-0.9
					c0.5-0.2,0.9-0.2,1.2-0.2c0.3,0,0.6,0.1,0.8,0.3c0.2,0.2,0.4,0.3,0.5,0.6c0.1,0.2,0.1,0.5,0.1,0.7c0,0.2-0.1,0.5-0.2,0.7
					s-0.3,0.4-0.5,0.4c-0.2,0.1-0.3,0.1-0.4,0c-0.1-0.1-0.2-0.2-0.3-0.4c-0.1-0.3-0.3-0.5-0.5-0.7s-0.5-0.1-0.9,0
					c-0.4,0.1-0.7,0.4-1,0.7s-0.4,0.6-0.4,0.9c0,0.2,0,0.3,0.1,0.4c0.1,0.1,0.2,0.2,0.3,0.2c0.1,0,0.3,0.1,0.4,0.1
					c0.1,0,0.4,0,0.7,0c0.4,0,0.8,0,1.1,0c0.3,0,0.6,0.1,0.9,0.2c0.2,0.1,0.4,0.3,0.5,0.6S77.7,38.1,77.7,38.6z"/>
				<path class="st1" d="M78.9,39.9l0.4-7.4c0-0.4,0.1-0.7,0.3-0.9c0.2-0.2,0.3-0.4,0.6-0.5c0.2-0.1,0.4-0.1,0.5,0.1
					s0.2,0.4,0.2,0.8l-0.4,7.4c0,0.4-0.1,0.7-0.3,0.9c-0.2,0.2-0.3,0.4-0.6,0.5c-0.2,0.1-0.4,0-0.5-0.1S78.9,40.3,78.9,39.9z"/>
				<path class="st1" d="M89.3,33.5l-0.1,1.8c0,0.2,0,0.4-0.1,0.6c0,0.2-0.1,0.3-0.2,0.5c-0.1,0.2-0.2,0.3-0.4,0.5
					c-0.5,0.5-0.9,0.8-1.4,1.1s-0.9,0.5-1.4,0.7c-0.6,0.2-1.1,0.3-1.6,0.2c-0.5-0.1-0.9-0.2-1.2-0.5s-0.6-0.7-0.7-1.3
					c-0.2-0.5-0.2-1.2-0.2-1.9c0-0.7,0.2-1.4,0.4-2.1c0.2-0.7,0.5-1.3,0.9-1.8s0.8-1,1.3-1.4c0.5-0.4,1.1-0.7,1.7-0.9
					c0.5-0.2,1-0.3,1.3-0.2s0.7,0.1,0.9,0.3c0.2,0.2,0.4,0.4,0.5,0.6c0.1,0.2,0.2,0.5,0.1,0.7c0,0.2-0.1,0.5-0.2,0.7
					c-0.2,0.2-0.3,0.4-0.5,0.4c-0.1,0-0.2,0-0.3,0c-0.1,0-0.2-0.1-0.2-0.2c-0.2-0.3-0.3-0.5-0.4-0.7s-0.3-0.2-0.5-0.3
					c-0.2,0-0.5,0-0.8,0.1c-0.4,0.1-0.7,0.3-1,0.6c-0.3,0.2-0.5,0.6-0.7,0.9s-0.4,0.8-0.5,1.2s-0.2,0.9-0.2,1.4
					c-0.1,1.1,0.1,1.9,0.5,2.3c0.4,0.4,0.9,0.5,1.7,0.3c0.4-0.1,0.7-0.3,1-0.5s0.6-0.5,1-0.8l0.1-1.5l-1.2,0.4
					c-0.3,0.1-0.5,0.1-0.6,0.1c-0.1-0.1-0.2-0.2-0.2-0.5c0-0.2,0.1-0.4,0.2-0.6c0.1-0.2,0.3-0.3,0.5-0.4l1.7-0.6
					c0.2-0.1,0.4-0.1,0.5-0.1c0.1,0,0.3,0.1,0.3,0.2C89.3,33,89.3,33.2,89.3,33.5z"/>
				<path class="st1" d="M93,27.7l2.7,4.5l0.3-5.6c0-0.4,0.1-0.7,0.2-0.9s0.3-0.4,0.5-0.4c0.2-0.1,0.4,0,0.5,0.1
					c0.1,0.1,0.2,0.4,0.2,0.7L97,33.5c0,0.8-0.3,1.3-0.9,1.5c-0.1,0-0.3,0.1-0.4,0.1c-0.1,0-0.2-0.1-0.3-0.1
					c-0.1-0.1-0.2-0.2-0.3-0.3S95,34.4,95,34.3l-2.6-4.4l-0.3,5.5c0,0.4-0.1,0.7-0.2,0.9c-0.1,0.2-0.3,0.4-0.5,0.5
					c-0.2,0.1-0.4,0-0.5-0.1c-0.1-0.1-0.2-0.4-0.2-0.7l0.3-7.2c0-0.3,0.1-0.6,0.1-0.7c0.1-0.2,0.2-0.4,0.3-0.6s0.3-0.3,0.5-0.4
					c0.1,0,0.3-0.1,0.4,0c0.1,0,0.2,0.1,0.2,0.1c0.1,0.1,0.1,0.2,0.2,0.3C92.8,27.5,92.9,27.6,93,27.7z"/>
				<path class="st1" d="M104.5,29.2c0,0.6-0.2,1.1-0.4,1.6c-0.3,0.5-0.6,1-1.1,1.4c-0.5,0.4-1,0.7-1.6,1c-0.7,0.3-1.4,0.3-1.8,0.1
					c-0.3-0.1-0.6-0.4-0.8-0.7c-0.2-0.3-0.3-0.7-0.3-1.1c0-0.2,0.1-0.4,0.2-0.7c0.1-0.2,0.3-0.3,0.5-0.4c0.2-0.1,0.3,0,0.4,0
					c0.1,0.1,0.2,0.2,0.3,0.5c0.1,0.3,0.2,0.5,0.3,0.6c0.1,0.2,0.3,0.3,0.5,0.3c0.2,0.1,0.5,0,0.8-0.1c0.5-0.2,0.8-0.4,1.1-0.8
					c0.3-0.4,0.5-0.7,0.5-1.1c0-0.3,0-0.5-0.2-0.7c-0.1-0.1-0.3-0.2-0.6-0.2c-0.2,0-0.6,0-1,0c-0.5,0-1,0-1.3-0.1s-0.6-0.3-0.8-0.6
					c-0.2-0.3-0.3-0.7-0.3-1.2c0-0.5,0.2-1,0.4-1.5c0.2-0.5,0.6-0.9,1-1.3c0.4-0.4,1-0.7,1.5-0.9c0.5-0.2,0.9-0.2,1.2-0.2
					c0.3,0,0.6,0.1,0.8,0.3c0.2,0.2,0.4,0.3,0.5,0.6c0.1,0.2,0.1,0.5,0.1,0.7c0,0.2-0.1,0.5-0.2,0.7c-0.1,0.2-0.3,0.4-0.5,0.4
					c-0.2,0.1-0.3,0.1-0.4,0c-0.1-0.1-0.2-0.2-0.3-0.4c-0.1-0.3-0.3-0.5-0.5-0.7c-0.2-0.1-0.5-0.1-0.9,0c-0.4,0.1-0.7,0.4-1,0.7
					c-0.3,0.3-0.4,0.6-0.4,0.9c0,0.2,0,0.3,0.1,0.4c0.1,0.1,0.2,0.2,0.3,0.2c0.1,0,0.3,0.1,0.4,0.1s0.4,0,0.7,0c0.4,0,0.8,0,1.1,0
					s0.6,0.1,0.9,0.2s0.4,0.3,0.5,0.6C104.5,28.3,104.6,28.7,104.5,29.2z"/>
			</g>
		</g>
	</g>
	<g>
		<defs>
			<path id="SVGID_8_" d="M146.5,15.7c0.1,0.1,0.2,0.3,0.2,0.5v4c0,0.2-0.1,0.3-0.2,0.5c-0.1,0.2-0.3,0.2-0.4,0.2h-8
				c-0.2,0-0.3,0.1-0.3,0.3v27.4c0,0.2-0.1,0.3-0.2,0.5c-0.1,0.1-0.3,0.2-0.4,0.2h-4c-0.1,0-0.3-0.1-0.4-0.2
				c-0.1-0.1-0.2-0.3-0.2-0.5V21.2c0-0.2-0.1-0.3-0.3-0.3h-8.1c-0.2,0-0.3-0.1-0.5-0.2c-0.1-0.2-0.2-0.3-0.2-0.5v-4
				c0-0.2,0.1-0.3,0.2-0.5c0.1-0.1,0.3-0.2,0.5-0.2h21.8C146.3,15.5,146.4,15.6,146.5,15.7z M163.1,48c0,0.4-0.1,0.6-0.3,0.9
				c-0.2,0.2-0.5,0.3-0.8,0.3h-2.9c-0.3,0-0.6-0.1-0.8-0.3c-0.2-0.2-0.3-0.5-0.3-0.9v-4.6c0-0.6,0-1.1,0-1.7c0-0.6,0-1.1,0-1.5
				c0-0.5,0-0.8,0-1.1c0-0.3,0-0.4,0-0.5c0-1.5-0.3-2.7-0.8-3.7c-0.5-1-1.3-1.8-2.2-2.3c-0.7-0.4-1.4-0.7-2.2-0.7
				c-0.8-0.1-1.5,0-2.2,0.2c-0.7,0.2-1.3,0.6-1.9,1.1c-0.6,0.5-1.1,1.1-1.5,1.9c-0.6,1.1-0.8,2.3-0.6,3.5c0.2,1.2,0.6,2.3,1.2,3.3
				c0.6,1,1.5,1.7,2.5,2.2c1,0.5,2.1,0.6,3.3,0.2c0.3-0.1,0.5-0.1,0.7,0.1c0.2,0.1,0.4,0.3,0.5,0.6l1.2,3.6c0.1,0.3,0,0.5-0.3,0.6
				c-1.6,0.6-3.1,0.8-4.5,0.6c-1.5-0.2-2.8-0.6-4-1.3c-1.2-0.7-2.2-1.6-3.1-2.8c-0.9-1.2-1.5-2.4-2-3.9c-0.4-1.4-0.6-2.9-0.5-4.5
				c0.1-1.6,0.5-3.1,1.2-4.7c0.6-1.3,1.5-2.5,2.6-3.5c1.1-1,2.3-1.7,3.6-2.1c1.3-0.4,2.6-0.6,4-0.4c1.4,0.2,2.6,0.7,3.8,1.6
				c0.2,0.3,0.4,0.4,0.6,0.3c0.2-0.1,0.3-0.3,0.3-0.6c0-0.3,0.1-0.6,0.3-0.9c0.2-0.3,0.5-0.4,0.8-0.4h3.1c0.3,0,0.6,0.1,0.8,0.4
				c0.2,0.3,0.3,0.5,0.3,0.9V48z M188.8,39.7c-0.2,1.6-0.7,3-1.5,4.3c-0.7,1.3-1.6,2.4-2.7,3.2c-1.1,0.9-2.3,1.5-3.7,1.9
				c-1.4,0.4-2.7,0.4-4.2,0.2c-0.8-0.1-1.4-0.3-2-0.7c-0.6-0.3-1.2-0.6-1.8-1v12.5c0,0.3-0.1,0.6-0.3,0.8c-0.2,0.2-0.4,0.3-0.7,0.3
				h-3c-0.3,0-0.6-0.1-0.8-0.3c-0.2-0.2-0.3-0.5-0.3-0.8V27.6c0-0.3,0.1-0.6,0.3-0.8c0.2-0.2,0.5-0.3,0.8-0.3h3
				c0.3,0,0.5,0.1,0.7,0.3c0.2,0.2,0.3,0.5,0.3,0.8v11.3c0,0.6,0.1,1.2,0.4,1.8c0.2,0.6,0.6,1.1,1,1.5c0.4,0.5,0.9,0.8,1.5,1.1
				s1.2,0.5,1.8,0.6c0.8,0.1,1.5,0.1,2.3-0.1c0.7-0.2,1.4-0.5,2-1c0.6-0.4,1.1-1,1.5-1.7c0.4-0.7,0.6-1.5,0.8-2.3
				c0.1-0.8,0.1-1.7-0.1-2.5c-0.2-0.8-0.5-1.5-0.9-2.2c-0.4-0.7-0.9-1.2-1.6-1.7c-0.6-0.4-1.3-0.7-2.1-0.9c-0.4-0.1-0.8-0.1-1.2-0.1
				c-0.4,0-0.8,0.1-1.1,0.2c-0.3,0.1-0.5,0.1-0.8-0.1c-0.2-0.2-0.4-0.4-0.5-0.7l-1-3.3c-0.1-0.3-0.1-0.5,0-0.7
				c0.1-0.1,0.2-0.2,0.3-0.2c0.8-0.2,1.6-0.4,2.5-0.5c0.9-0.1,1.7-0.1,2.5,0c1.4,0.3,2.7,0.8,3.9,1.6c1.2,0.8,2.1,1.9,2.9,3.1
				c0.8,1.2,1.3,2.6,1.7,4.1C189.1,36.5,189.1,38.1,188.8,39.7z M201.8,26.4c1.4,0,2.7,0.3,4,0.8c1.3,0.6,2.4,1.4,3.3,2.5
				c0.9,1.1,1.6,2.4,2.1,4c0.5,1.6,0.7,3.5,0.7,5.6c0,0.3,0,0.5-0.1,0.7c-0.1,0.1-0.3,0.2-0.6,0.2c-2.5,0-4.7,0-6.8,0h-7.8
				c0,0-0.1,0-0.1,0v0c0,0.2,0.1,0.5,0.3,0.9c0.2,0.5,0.5,0.9,0.9,1.4c0.4,0.5,0.9,1,1.6,1.4c0.7,0.4,1.5,0.7,2.5,0.8
				c0.9,0.1,1.6,0.1,2.3,0c0.7-0.1,1.3-0.3,1.8-0.6c0.5-0.2,1-0.5,1.4-0.9c0.4-0.3,0.7-0.7,1-1c0.1-0.1,0.2-0.1,0.4,0l2.3,2.2
				c0.1,0.1,0.2,0.2,0.2,0.3c0,0.1,0,0.2-0.1,0.3c-0.2,0.3-0.6,0.7-1.1,1.2c-0.5,0.5-1.1,1-1.9,1.5c-0.8,0.5-1.7,0.9-2.8,1.2
				c-1.1,0.3-2.3,0.5-3.7,0.5c-1.4,0-2.7-0.4-4-1c-1.3-0.6-2.4-1.5-3.3-2.5c-0.9-1-1.7-2.3-2.2-3.7c-0.6-1.4-0.8-2.9-0.8-4.5
				c0-1.6,0.3-3.1,0.8-4.5c0.5-1.4,1.3-2.6,2.2-3.7c0.9-1,2-1.9,3.3-2.5C199.1,26.7,200.5,26.4,201.8,26.4z M207.3,35.5
				c0,0,0-0.1,0-0.1c-0.1-0.4-0.3-0.8-0.6-1.3c-0.2-0.5-0.6-1-1-1.4c-0.4-0.4-0.9-0.8-1.6-1.1c-0.6-0.3-1.4-0.5-2.2-0.5
				c-0.9,0-1.7,0.2-2.3,0.6c-0.6,0.4-1.1,0.8-1.5,1.3c-0.4,0.5-0.7,1-0.9,1.4c-0.2,0.5-0.3,0.8-0.4,1v0.1c0,0,0.1,0,0.1,0h10.2
				C207.2,35.5,207.3,35.5,207.3,35.5z M220.6,15.8c0.2,0.3,0.3,0.6,0.3,0.9v31.3c0,0.3-0.1,0.6-0.3,0.8c-0.2,0.2-0.5,0.3-0.8,0.3
				h-3c-0.3,0-0.5-0.1-0.7-0.3c-0.2-0.2-0.3-0.5-0.3-0.8V16.8c0-0.4,0.1-0.7,0.3-0.9c0.2-0.3,0.4-0.4,0.7-0.4h3
				C220.1,15.5,220.4,15.6,220.6,15.8z M231.1,15.8c0.2,0.3,0.3,0.6,0.3,0.9v31.3c0,0.3-0.1,0.6-0.3,0.8c-0.2,0.2-0.5,0.3-0.8,0.3
				h-3c-0.3,0-0.5-0.1-0.7-0.3c-0.2-0.2-0.3-0.5-0.3-0.8V16.8c0-0.4,0.1-0.7,0.3-0.9c0.2-0.3,0.4-0.4,0.7-0.4h3
				C230.6,15.5,230.9,15.6,231.1,15.8z M240.8,18.2c0.7,0,1.1,0.4,1.1,1.2v3.4c0,0.3-0.1,0.5-0.3,0.8c-0.2,0.2-0.5,0.3-0.8,0.3h-3
				c-0.3,0-0.5-0.1-0.7-0.3c-0.2-0.2-0.3-0.5-0.3-0.8v-3.4c0-0.4,0.1-0.6,0.3-0.9c0.2-0.2,0.4-0.3,0.7-0.3H240.8z M240.8,26.4
				c0.3,0,0.6,0.1,0.8,0.4c0.2,0.3,0.3,0.6,0.3,0.9v20.3c0,0.3-0.1,0.6-0.3,0.8c-0.2,0.2-0.5,0.3-0.8,0.3h-3c-0.3,0-0.5-0.1-0.7-0.3
				c-0.2-0.2-0.3-0.5-0.3-0.8V27.7c0-0.4,0.1-0.7,0.3-0.9c0.2-0.3,0.4-0.4,0.7-0.4H240.8z M257.5,26.2c1.2,0,2.2,0.2,3.1,0.7
				c0.9,0.5,1.7,1.1,2.3,2c0.7,0.9,1.2,1.9,1.5,3.1c0.3,1.2,0.5,2.5,0.5,3.9v12.1c0,0.3-0.1,0.6-0.3,0.8c-0.2,0.2-0.4,0.3-0.8,0.3
				h-3c-0.3,0-0.6-0.1-0.8-0.3c-0.2-0.2-0.3-0.5-0.3-0.8V35.8c0-0.4-0.1-0.8-0.2-1.3c-0.1-0.5-0.3-0.9-0.6-1.3
				c-0.3-0.4-0.6-0.7-1.1-1c-0.4-0.3-1-0.4-1.7-0.4c-1.2,0-2.2,0.4-2.9,1.3c-0.7,0.9-1.1,2-1.1,3.5v11.5c0,0.3-0.1,0.6-0.3,0.8
				c-0.2,0.2-0.5,0.3-0.8,0.3h-2.9c-0.3,0-0.6-0.1-0.8-0.3c-0.2-0.2-0.3-0.5-0.3-0.8v-20c0-0.3,0.1-0.5,0.3-0.7
				c0.2-0.2,0.5-0.3,0.8-0.3h2.6c0.3,0,0.6,0.1,0.8,0.3c0.2,0.2,0.3,0.5,0.3,0.7v0.3c0,0.1,0.1,0.2,0.2,0.3c0.1,0.1,0.2,0.1,0.2,0.1
				c0.3,0.1,0.4,0,0.6-0.2c0.5-0.7,1.2-1.3,2-1.7C255.9,26.4,256.7,26.2,257.5,26.2z M287.4,30.7c0.7,1,1.3,2.2,1.7,3.4
				c0.4,1.2,0.6,2.5,0.6,3.9c0,1.6-0.3,3.1-0.8,4.5c-0.5,1.4-1.3,2.6-2.3,3.7c-1,1-2.1,1.9-3.4,2.5c-1.3,0.6-2.7,0.9-4.1,0.9
				c-1.3,0-2.5-0.3-3.7-0.9c-1.2-0.6-2.2-1.4-3.1-2.5c-0.9-1-1.6-2.3-2.1-3.7c-0.5-1.4-0.8-2.9-0.8-4.5c0-2.2,0.5-4.2,1.4-5.9
				c0.9-1.7,2.1-3.1,3.5-4.1c1.4-1,3-1.5,4.8-1.6c1.8-0.1,3.5,0.4,5.2,1.4c0.3,0.2,0.4,0.4,0.2,0.6l-1.6,3.3
				c-0.1,0.3-0.3,0.4-0.6,0.6c-0.2,0.1-0.5,0.1-0.7-0.1c-0.7-0.3-1.5-0.5-2.4-0.5c-0.7,0-1.4,0.2-2,0.5c-0.6,0.3-1.1,0.8-1.6,1.3
				c-0.4,0.6-0.8,1.2-1,2c-0.2,0.8-0.4,1.6-0.4,2.5c0,1.8,0.5,3.3,1.4,4.5c0.9,1.2,2.1,1.8,3.6,1.8c0.8,0,1.6-0.2,2.3-0.5
				c0.7-0.3,1.3-0.7,1.8-1.3c0.5-0.6,0.9-1.2,1.2-2c0.3-0.8,0.5-1.6,0.5-2.5c0-0.6-0.1-1.1-0.2-1.7c-0.2-0.6-0.4-1.1-0.6-1.5
				c-0.2-0.5-0.1-1,0.3-1.4l2.6-2.6C287.2,30.6,287.3,30.6,287.4,30.7z M255.2,63.4c-0.1-0.1-0.1-0.1-0.1-0.2c0,0,0-0.1,0-0.2v0
				l0.6-1c0.1-0.1,0.1-0.1,0.2-0.1c0.1,0,0.1,0,0.2,0l0,0c0.1,0.1,0.2,0.1,0.4,0.3c0.2,0.1,0.4,0.2,0.7,0.4c0.3,0.1,0.5,0.2,0.8,0.3
				c0.3,0.1,0.5,0.1,0.8,0.1c0.4,0,0.8-0.1,1.1-0.4c0.3-0.3,0.4-0.6,0.4-0.9c0-0.4-0.2-0.8-0.5-1.1c-0.3-0.3-0.9-0.6-1.5-0.9
				c-0.4-0.1-0.7-0.3-1.1-0.5c-0.4-0.2-0.7-0.4-0.9-0.7c-0.3-0.3-0.5-0.6-0.6-0.9c-0.2-0.3-0.2-0.8-0.2-1.2c0-0.3,0.1-0.7,0.2-1.1
				c0.1-0.4,0.4-0.7,0.6-1c0.3-0.3,0.6-0.5,1.1-0.7c0.4-0.2,0.9-0.3,1.5-0.2c0.4,0,0.8,0.1,1.1,0.2c0.4,0.1,0.7,0.2,1,0.3
				c0.3,0.1,0.5,0.2,0.7,0.3c0.2,0.1,0.3,0.2,0.4,0.3c0.1,0,0.1,0.1,0.1,0.2c0,0.1,0,0.2,0,0.2c-0.1,0.1-0.2,0.3-0.3,0.5
				c-0.1,0.2-0.2,0.3-0.3,0.5c-0.1,0.1-0.1,0.1-0.2,0.2c-0.1,0-0.2,0-0.2,0c0,0-0.1-0.1-0.3-0.2c-0.2-0.1-0.4-0.2-0.6-0.3
				c-0.2-0.1-0.5-0.2-0.7-0.3c-0.3-0.1-0.5-0.1-0.7-0.1c-0.2,0-0.4,0-0.6,0.1c-0.2,0.1-0.3,0.2-0.5,0.3c-0.1,0.1-0.2,0.2-0.3,0.4
				c-0.1,0.1-0.1,0.3-0.1,0.4c0,0.4,0.2,0.7,0.5,1c0.3,0.3,0.8,0.6,1.4,0.9c0.4,0.2,0.7,0.4,1.1,0.6c0.4,0.2,0.7,0.4,1,0.7
				c0.3,0.3,0.6,0.6,0.8,0.9c0.2,0.4,0.3,0.8,0.3,1.3c0,0.4-0.1,0.8-0.2,1.2c-0.2,0.4-0.4,0.7-0.7,1c-0.3,0.3-0.7,0.5-1.1,0.7
				c-0.4,0.2-0.9,0.2-1.5,0.2c-0.5,0-0.9-0.1-1.3-0.2c-0.4-0.1-0.8-0.2-1.1-0.4c-0.3-0.1-0.6-0.3-0.8-0.4
				C255.4,63.6,255.3,63.5,255.2,63.4L255.2,63.4z M265,54.5c0.3,0,0.4,0.1,0.4,0.4V56c0,0.1,0,0.2-0.1,0.2
				c-0.1,0.1-0.2,0.1-0.3,0.1h-1.1c-0.1,0-0.2,0-0.2-0.1c-0.1-0.1-0.1-0.2-0.1-0.2v-1.1c0-0.1,0-0.2,0.1-0.3
				c0.1-0.1,0.2-0.1,0.2-0.1H265z M265,57.2c0.1,0,0.2,0,0.3,0.1c0.1,0.1,0.1,0.2,0.1,0.3v6.6c0,0.1,0,0.2-0.1,0.3
				c-0.1,0.1-0.2,0.1-0.3,0.1h-1.1c-0.1,0-0.2,0-0.2-0.1c-0.1-0.1-0.1-0.2-0.1-0.3v-6.6c0-0.1,0-0.2,0.1-0.3
				c0.1-0.1,0.2-0.1,0.2-0.1H265z M274.1,65.2c0,0.4-0.1,0.9-0.2,1.3c-0.1,0.4-0.4,0.8-0.7,1.1c-0.3,0.3-0.7,0.6-1.1,0.8
				c-0.4,0.2-1,0.3-1.6,0.3c-0.8,0-1.4-0.2-2-0.5c-0.5-0.3-0.9-0.8-1.2-1.3c0,0,0,0,0-0.1c0,0,0-0.1,0.1-0.1l0.1,0
				c0.1,0,0.2-0.1,0.3-0.1c0.2-0.1,0.4-0.1,0.7-0.2c0.1,0,0.2,0,0.2,0.1c0.2,0.2,0.4,0.4,0.6,0.5c0.3,0.2,0.6,0.2,1.1,0.2
				c0.4,0,0.7-0.1,0.9-0.2c0.2-0.1,0.4-0.3,0.6-0.5c0.1-0.2,0.3-0.4,0.3-0.7c0.1-0.2,0.1-0.5,0.1-0.7c0-0.7,0-1.3,0-1.9
				c0-0.2,0-0.5,0-0.7c0-0.2,0-0.4,0-0.6c0-0.2,0-0.3,0-0.5c0-0.1,0-0.2,0-0.2c0-0.5-0.1-1-0.4-1.3c-0.3-0.4-0.6-0.6-1-0.8
				c-0.4-0.1-0.8-0.1-1.3,0c-0.4,0.1-0.8,0.5-1.1,0.9c-0.2,0.4-0.3,0.8-0.3,1.2c0,0.4,0.2,0.8,0.4,1.1c0.2,0.3,0.5,0.5,0.9,0.7
				c0.4,0.1,0.8,0.1,1.2,0c0.1,0,0.2,0,0.3,0c0.1,0,0.1,0.1,0.2,0.2l0.4,1.1c0.1,0.1,0,0.2-0.2,0.3c-0.5,0.1-1,0.2-1.5,0.1
				c-0.5-0.1-0.9-0.2-1.4-0.4c-0.4-0.2-0.8-0.5-1.1-0.9s-0.5-0.8-0.7-1.2c-0.2-0.4-0.2-0.9-0.2-1.4s0.2-1,0.4-1.5
				c0.2-0.4,0.5-0.8,0.9-1.1c0.4-0.3,0.8-0.5,1.3-0.7c0.5-0.1,0.9-0.2,1.4-0.1c0.5,0.1,0.9,0.2,1.3,0.6c0.1,0.1,0.1,0.1,0.2,0.1
				c0.1,0,0.1-0.1,0.1-0.2c0-0.1,0-0.2,0.1-0.3c0.1-0.1,0.2-0.1,0.3-0.1h1c0.1,0,0.2,0,0.2,0.1c0,0.1,0,0.2,0,0.3V65.2z M279.7,57.1
				c0.4,0,0.8,0.1,1.1,0.2c0.3,0.2,0.6,0.4,0.8,0.6c0.2,0.3,0.4,0.6,0.5,1c0.1,0.4,0.2,0.8,0.2,1.3v3.9c0,0.1,0,0.2-0.1,0.3
				c-0.1,0.1-0.2,0.1-0.3,0.1h-1.1c-0.1,0-0.2,0-0.3-0.1c-0.1-0.1-0.1-0.2-0.1-0.3v-4c0-0.1,0-0.3-0.1-0.4s-0.1-0.3-0.2-0.4
				c-0.1-0.1-0.2-0.2-0.4-0.3c-0.2-0.1-0.4-0.1-0.6-0.1c-0.4,0-0.8,0.1-1,0.4c-0.3,0.3-0.4,0.7-0.4,1.1v3.7c0,0.1,0,0.2-0.1,0.3
				c-0.1,0.1-0.2,0.1-0.3,0.1h-1c-0.1,0-0.2,0-0.3-0.1c-0.1-0.1-0.1-0.2-0.1-0.3v-6.5c0-0.1,0-0.2,0.1-0.2c0.1-0.1,0.2-0.1,0.3-0.1
				h0.9c0.1,0,0.2,0,0.3,0.1c0.1,0.1,0.1,0.1,0.1,0.2v0.1c0,0,0,0.1,0.1,0.1c0,0,0.1,0,0.1,0c0.1,0,0.2,0,0.2-0.1
				c0.2-0.2,0.4-0.4,0.7-0.6C279.1,57.2,279.4,57.1,279.7,57.1z M286.7,60c0.4,0.1,0.8,0.2,1.2,0.2c0.4,0.1,0.7,0.2,1,0.4
				c0.3,0.2,0.5,0.4,0.6,0.6c0.2,0.3,0.2,0.6,0.2,1c0,0.3-0.1,0.7-0.2,1c-0.1,0.3-0.4,0.5-0.6,0.8c-0.3,0.2-0.6,0.4-1,0.5
				c-0.4,0.1-0.8,0.2-1.3,0.2c-0.3,0-0.7,0-1-0.1c-0.3-0.1-0.6-0.2-0.9-0.4c-0.3-0.2-0.5-0.4-0.7-0.6c-0.2-0.2-0.3-0.5-0.4-0.8
				c-0.1-0.1,0-0.2,0-0.3c0.1-0.1,0.2-0.1,0.3-0.1h1.1c0.1,0,0.2,0,0.3,0.1c0.2,0.3,0.4,0.4,0.6,0.5c0.2,0.1,0.5,0.1,0.7,0.1
				c0.4,0,0.7-0.1,0.9-0.2c0.2-0.1,0.3-0.3,0.3-0.5c0-0.1,0-0.2-0.1-0.3c0-0.1-0.1-0.1-0.2-0.2c-0.1-0.1-0.3-0.1-0.5-0.2
				c-0.2,0-0.4-0.1-0.7-0.1c-0.3,0-0.5-0.1-0.9-0.2c-0.3-0.1-0.6-0.2-0.9-0.4c-0.3-0.2-0.5-0.4-0.7-0.6c-0.2-0.3-0.3-0.6-0.3-1
				c0-0.3,0.1-0.6,0.2-0.8c0.1-0.3,0.3-0.5,0.5-0.7c0.2-0.2,0.5-0.4,0.9-0.5c0.3-0.1,0.7-0.2,1.2-0.2c0.7,0,1.3,0.2,1.8,0.5
				c0.5,0.3,0.9,0.7,1.1,1.3c0,0.1,0,0.2-0.1,0.3c0,0.1-0.1,0.1-0.1,0.1c-0.1,0-0.1,0-0.2,0H288c-0.1,0-0.1,0-0.2,0
				c-0.1,0-0.1-0.1-0.2-0.1c-0.1-0.1-0.2-0.2-0.4-0.3c-0.2-0.1-0.4-0.1-0.7-0.1c-0.2,0-0.4,0-0.5,0c-0.1,0-0.2,0.1-0.3,0.1
				c-0.1,0.1-0.1,0.1-0.1,0.2s0,0.1,0,0.2c0,0.2,0.1,0.3,0.2,0.4C285.9,59.8,286.2,59.9,286.7,60z"/>
		</defs>
		<clipPath id="SVGID_1_">
			<use xlink:href="#SVGID_8_"  style="overflow:visible;"/>
		</clipPath>
		<linearGradient id="SVGID_2_" gradientUnits="userSpaceOnUse" x1="123.7895" y1="42.0331" x2="289.7443" y2="42.0331">
			<stop  offset="0" style="stop-color:#FF0000"/>
			<stop  offset="0.1405" style="stop-color:#FF6000"/>
			<stop  offset="0.38" style="stop-color:#FFFF00"/>
			<stop  offset="0.4022" style="stop-color:#FCFF00"/>
			<stop  offset="0.4181" style="stop-color:#F3FF00"/>
			<stop  offset="0.4322" style="stop-color:#E3FF00"/>
			<stop  offset="0.445" style="stop-color:#CDFF00"/>
			<stop  offset="0.4572" style="stop-color:#B0FF00"/>
			<stop  offset="0.4687" style="stop-color:#8DFF00"/>
			<stop  offset="0.4798" style="stop-color:#62FF00"/>
			<stop  offset="0.4903" style="stop-color:#33FF00"/>
			<stop  offset="0.5" style="stop-color:#00FF00"/>
			<stop  offset="0.591" style="stop-color:#00FF47"/>
			<stop  offset="0.764" style="stop-color:#00FFCA"/>
			<stop  offset="0.84" style="stop-color:#00FFFF"/>
			<stop  offset="0.8582" style="stop-color:#00E0FF"/>
			<stop  offset="0.894" style="stop-color:#00AAFF"/>
			<stop  offset="0.9273" style="stop-color:#007FFF"/>
			<stop  offset="0.9571" style="stop-color:#0060FF"/>
			<stop  offset="0.9824" style="stop-color:#004DFF"/>
			<stop  offset="1" style="stop-color:#0046FF"/>
		</linearGradient>
		<rect x="123.8" y="3.8" class="st4" width="166" height="76.5"/>
	</g>
</g>
</svg>
